<?xml version="1.0" encoding="UTF-8" standalone="no"?>
<!-- Created with Inkscape (http://www.inkscape.org/) -->

<svg
   version="1.1"
   id="svg1"
   width="666.66669"
   height="666.66669"
   viewBox="0 0 666.66669 666.66669"
   sodipodi:docname="07.eps"
   xmlns:inkscape="http://www.inkscape.org/namespaces/inkscape"
   xmlns:sodipodi="http://sodipodi.sourceforge.net/DTD/sodipodi-0.dtd"
   xmlns="http://www.w3.org/2000/svg"
   xmlns:svg="http://www.w3.org/2000/svg">
  <defs
     id="defs1" />
  <sodipodi:namedview
     id="namedview1"
     pagecolor="#ffffff"
     bordercolor="#000000"
     borderopacity="0.25"
     inkscape:showpageshadow="2"
     inkscape:pageopacity="0.0"
     inkscape:pagecheckerboard="0"
     inkscape:deskcolor="#d1d1d1">
    <inkscape:page
       x="0"
       y="0"
       inkscape:label="1"
       id="page1"
       width="666.66669"
       height="666.66669"
       margin="0"
       bleed="0" />
  </sodipodi:namedview>
  <g
     id="g1"
     inkscape:groupmode="layer"
     inkscape:label="1">
    <g
       id="group-R5">
      <path
         id="path2"
         d="M 5000,0 H 0 V 5000 H 5000 V 0"
         style="fill:#ffffff;fill-opacity:1;fill-rule:nonzero;stroke:none"
         transform="matrix(0.13333333,0,0,-0.13333333,0,666.66667)" />
      <path
         id="path3"
         d="m 2304.1,4596.5 c 0,0 -8.2,97.8 22.5,103.7 27.6,5.3 64.3,-78.8 64.3,-78.8 0,0 88.7,41.2 104.6,21.1 18.1,-23 -40.4,-90.6 -40.4,-90.6 0,0 57.9,-51.4 46.3,-77.3 -11.6,-25.9 -103.4,11.1 -103.4,11.1 0,0 -41,-89.6 -71.7,-84.6 -35.2,5.8 -27.4,103.6 -27.4,103.6 0,0 -88.4,24.2 -85.9,52.5 2.5,28.4 91.1,39.3 91.1,39.3"
         style="fill:#ffffff;fill-opacity:1;fill-rule:nonzero;stroke:none"
         transform="matrix(0.13333333,0,0,-0.13333333,0,666.66667)" />
      <path
         id="path4"
         d="m 2304.1,4596.5 c 0,0 -8.2,97.8 22.5,103.7 27.6,5.3 64.3,-78.8 64.3,-78.8 0,0 88.7,41.2 104.6,21.1 18.1,-23 -40.4,-90.6 -40.4,-90.6 0,0 57.9,-51.4 46.3,-77.3 -11.6,-25.9 -103.4,11.1 -103.4,11.1 0,0 -41,-89.6 -71.7,-84.6 -35.2,5.8 -27.4,103.6 -27.4,103.6 0,0 -88.4,24.2 -85.9,52.5 2.5,28.4 91.1,39.3 91.1,39.3 z"
         style="fill:none;stroke:#231f20;stroke-width:20;stroke-linecap:round;stroke-linejoin:round;stroke-miterlimit:10;stroke-dasharray:none;stroke-opacity:1"
         transform="matrix(0.13333333,0,0,-0.13333333,0,666.66667)" />
      <path
         id="path5"
         d="m 4544.3,3631.2 c 0,0 -6.3,74.8 17.2,79.3 21.1,4.1 49.2,-60.3 49.2,-60.3 0,0 67.8,31.5 80,16.1 13.8,-17.5 -30.9,-69.2 -30.9,-69.2 0,0 44.3,-39.3 35.4,-59.1 -8.9,-19.8 -79,8.5 -79,8.5 0,0 -31.4,-68.5 -54.8,-64.6 -26.9,4.5 -20.9,79.2 -20.9,79.2 0,0 -67.6,18.5 -65.7,40.1 1.9,21.6 69.5,30 69.5,30"
         style="fill:#ffffff;fill-opacity:1;fill-rule:nonzero;stroke:none"
         transform="matrix(0.13333333,0,0,-0.13333333,0,666.66667)" />
      <path
         id="path6"
         d="m 4544.3,3631.2 c 0,0 -6.3,74.8 17.2,79.3 21.1,4.1 49.2,-60.3 49.2,-60.3 0,0 67.8,31.5 80,16.1 13.8,-17.5 -30.9,-69.2 -30.9,-69.2 0,0 44.3,-39.3 35.4,-59.1 -8.9,-19.8 -79,8.5 -79,8.5 0,0 -31.4,-68.5 -54.8,-64.6 -26.9,4.5 -20.9,79.2 -20.9,79.2 0,0 -67.6,18.5 -65.7,40.1 1.9,21.6 69.5,30 69.5,30 z"
         style="fill:none;stroke:#231f20;stroke-width:20;stroke-linecap:round;stroke-linejoin:round;stroke-miterlimit:10;stroke-dasharray:none;stroke-opacity:1"
         transform="matrix(0.13333333,0,0,-0.13333333,0,666.66667)" />
      <path
         id="path7"
         d="m 388.598,2276.3 c 0,0 -8.5,101.2 23.203,107.3 28.496,5.5 66.597,-81.5 66.597,-81.5 0,0 91.801,42.6 108.204,21.8 18.695,-23.7 -41.801,-93.7 -41.801,-93.7 0,0 59.902,-53.2 47.898,-80 -12,-26.8 -107,11.4 -107,11.4 0,0 -42.398,-92.7 -74.199,-87.5 -36.402,6 -28.301,107.2 -28.301,107.2 0,0 -91.398,25 -88.898,54.3 2.597,29.4 94.297,40.7 94.297,40.7"
         style="fill:#ffffff;fill-opacity:1;fill-rule:nonzero;stroke:none"
         transform="matrix(0.13333333,0,0,-0.13333333,0,666.66667)" />
      <path
         id="path8"
         d="m 388.598,2276.3 c 0,0 -8.5,101.2 23.203,107.3 28.496,5.5 66.597,-81.5 66.597,-81.5 0,0 91.801,42.6 108.204,21.8 18.695,-23.7 -41.801,-93.7 -41.801,-93.7 0,0 59.902,-53.2 47.898,-80 -12,-26.8 -107,11.4 -107,11.4 0,0 -42.398,-92.7 -74.199,-87.5 -36.402,6 -28.301,107.2 -28.301,107.2 0,0 -91.398,25 -88.898,54.3 2.597,29.4 94.297,40.7 94.297,40.7 z"
         style="fill:none;stroke:#231f20;stroke-width:20;stroke-linecap:round;stroke-linejoin:round;stroke-miterlimit:10;stroke-dasharray:none;stroke-opacity:1"
         transform="matrix(0.13333333,0,0,-0.13333333,0,666.66667)" />
      <path
         id="path9"
         d="m 853.199,4619.6 c 237.481,0 430.001,-181.42 430.001,-405.2 0,-223.78 -192.52,-405.2 -430.001,-405.2 -237.48,0 -430,181.42 -430,405.2 0,223.78 192.52,405.2 430,405.2"
         style="fill:#ffffff;fill-opacity:1;fill-rule:nonzero;stroke:none"
         transform="matrix(0.13333333,0,0,-0.13333333,0,666.66667)" />
      <path
         id="path10"
         d="m 853.199,4619.6 c 237.481,0 430.001,-181.42 430.001,-405.2 0,-223.78 -192.52,-405.2 -430.001,-405.2 -237.48,0 -430,181.42 -430,405.2 0,223.78 192.52,405.2 430,405.2 z"
         style="fill:none;stroke:#231f20;stroke-width:20;stroke-linecap:round;stroke-linejoin:round;stroke-miterlimit:10;stroke-dasharray:none;stroke-opacity:1"
         transform="matrix(0.13333333,0,0,-0.13333333,0,666.66667)" />
      <path
         id="path11"
         d="m 797.004,4677.8 c -2.402,28 -4.801,56 -7.203,84"
         style="fill:#ffffff;fill-opacity:1;fill-rule:nonzero;stroke:#231f20;stroke-width:20;stroke-linecap:round;stroke-linejoin:round;stroke-miterlimit:10;stroke-dasharray:none;stroke-opacity:1"
         transform="matrix(0.13333333,0,0,-0.13333333,0,666.66667)" />
      <path
         id="path12"
         d="m 1061.3,4628.1 c 29.5,31.5 58.9,63.1 88.4,94.6"
         style="fill:#ffffff;fill-opacity:1;fill-rule:nonzero;stroke:#231f20;stroke-width:20;stroke-linecap:round;stroke-linejoin:round;stroke-miterlimit:10;stroke-dasharray:none;stroke-opacity:1"
         transform="matrix(0.13333333,0,0,-0.13333333,0,666.66667)" />
      <path
         id="path13"
         d="m 1306.7,4373.4 c 32.1,13.7 64.2,27.4 96.3,41.1"
         style="fill:#ffffff;fill-opacity:1;fill-rule:nonzero;stroke:#231f20;stroke-width:20;stroke-linecap:round;stroke-linejoin:round;stroke-miterlimit:10;stroke-dasharray:none;stroke-opacity:1"
         transform="matrix(0.13333333,0,0,-0.13333333,0,666.66667)" />
      <path
         id="path14"
         d="m 517.699,4564.2 c -27.797,20.5 -55.496,41.1 -83.301,61.6"
         style="fill:#ffffff;fill-opacity:1;fill-rule:nonzero;stroke:#231f20;stroke-width:20;stroke-linecap:round;stroke-linejoin:round;stroke-miterlimit:10;stroke-dasharray:none;stroke-opacity:1"
         transform="matrix(0.13333333,0,0,-0.13333333,0,666.66667)" />
      <path
         id="path15"
         d="m 367.5,4139.1 c -39.301,4 -78.699,8 -117.996,12"
         style="fill:#ffffff;fill-opacity:1;fill-rule:nonzero;stroke:#231f20;stroke-width:20;stroke-linecap:round;stroke-linejoin:round;stroke-miterlimit:10;stroke-dasharray:none;stroke-opacity:1"
         transform="matrix(0.13333333,0,0,-0.13333333,0,666.66667)" />
      <path
         id="path16"
         d="m 386.5,4343.1 c -33.801,14.3 -67.598,28.5 -101.402,42.8"
         style="fill:#ffffff;fill-opacity:1;fill-rule:nonzero;stroke:#231f20;stroke-width:20;stroke-linecap:round;stroke-linejoin:round;stroke-miterlimit:10;stroke-dasharray:none;stroke-opacity:1"
         transform="matrix(0.13333333,0,0,-0.13333333,0,666.66667)" />
      <path
         id="path17"
         d="m 485.297,3932.2 c -27.399,-20.8 -54.801,-41.6 -82.098,-62.3"
         style="fill:#ffffff;fill-opacity:1;fill-rule:nonzero;stroke:#231f20;stroke-width:20;stroke-linecap:round;stroke-linejoin:round;stroke-miterlimit:10;stroke-dasharray:none;stroke-opacity:1"
         transform="matrix(0.13333333,0,0,-0.13333333,0,666.66667)" />
      <path
         id="path18"
         d="m 651.801,3794.6 c -16.102,-29.7 -32.098,-59.4 -48.203,-89.1"
         style="fill:#ffffff;fill-opacity:1;fill-rule:nonzero;stroke:#231f20;stroke-width:20;stroke-linecap:round;stroke-linejoin:round;stroke-miterlimit:10;stroke-dasharray:none;stroke-opacity:1"
         transform="matrix(0.13333333,0,0,-0.13333333,0,666.66667)" />
      <path
         id="path19"
         d="m 871.602,3751.2 c -3.903,-44.6 -0.2,-89.8 10.996,-133.2"
         style="fill:#ffffff;fill-opacity:1;fill-rule:nonzero;stroke:#231f20;stroke-width:20;stroke-linecap:round;stroke-linejoin:round;stroke-miterlimit:10;stroke-dasharray:none;stroke-opacity:1"
         transform="matrix(0.13333333,0,0,-0.13333333,0,666.66667)" />
      <path
         id="path20"
         d="m 1063.2,3806.2 c 16.7,-18.6 33.5,-37.1 50.2,-55.7"
         style="fill:#ffffff;fill-opacity:1;fill-rule:nonzero;stroke:#231f20;stroke-width:20;stroke-linecap:round;stroke-linejoin:round;stroke-miterlimit:10;stroke-dasharray:none;stroke-opacity:1"
         transform="matrix(0.13333333,0,0,-0.13333333,0,666.66667)" />
      <path
         id="path21"
         d="m 1220.6,3938.2 c 39,-12.4 78,-24.9 117,-37.3"
         style="fill:#ffffff;fill-opacity:1;fill-rule:nonzero;stroke:#231f20;stroke-width:20;stroke-linecap:round;stroke-linejoin:round;stroke-miterlimit:10;stroke-dasharray:none;stroke-opacity:1"
         transform="matrix(0.13333333,0,0,-0.13333333,0,666.66667)" />
      <path
         id="path22"
         d="m 1312,4143.6 c 32.5,-3 65,-6 97.5,-9"
         style="fill:#ffffff;fill-opacity:1;fill-rule:nonzero;stroke:#231f20;stroke-width:20;stroke-linecap:round;stroke-linejoin:round;stroke-miterlimit:10;stroke-dasharray:none;stroke-opacity:1"
         transform="matrix(0.13333333,0,0,-0.13333333,0,666.66667)" />
      <path
         id="path23"
         d="m 533.102,4174.3 c -21.301,32.7 -15.504,80.4 12.996,107 28.504,26.6 76.5,29.1 107.601,5.6 31.797,-24.1 42.399,-67.7 40.903,-107.6"
         style="fill:#ffffff;fill-opacity:1;fill-rule:nonzero;stroke:#231f20;stroke-width:20;stroke-linecap:round;stroke-linejoin:round;stroke-miterlimit:10;stroke-dasharray:none;stroke-opacity:1"
         transform="matrix(0.13333333,0,0,-0.13333333,0,666.66667)" />
      <path
         id="path24"
         d="m 1180.5,4189.9 c 21.3,32.7 15.5,80.4 -13,107 -28.5,26.6 -76.5,29.1 -107.6,5.6 -31.8,-24.1 -42.4,-67.7 -40.9,-107.6"
         style="fill:#ffffff;fill-opacity:1;fill-rule:nonzero;stroke:#231f20;stroke-width:20;stroke-linecap:round;stroke-linejoin:round;stroke-miterlimit:10;stroke-dasharray:none;stroke-opacity:1"
         transform="matrix(0.13333333,0,0,-0.13333333,0,666.66667)" />
      <path
         id="path25"
         d="m 948.598,4220.9 c -58.5,-10.7 -118.102,-10.9 -184.496,-9.5 -12.7,-50.2 4.199,-109.7 39.496,-138.8 35.304,-29.1 85.906,-25.7 118.3,8.2 32.403,33.9 43.801,95.3 26.7,140.1"
         style="fill:#ffffff;fill-opacity:1;fill-rule:nonzero;stroke:none"
         transform="matrix(0.13333333,0,0,-0.13333333,0,666.66667)" />
      <path
         id="path26"
         d="m 948.598,4220.9 c -58.5,-10.7 -118.102,-10.9 -184.496,-9.5 -12.7,-50.2 4.199,-109.7 39.496,-138.8 35.304,-29.1 85.906,-25.7 118.3,8.2 32.403,33.9 43.801,95.3 26.7,140.1 z"
         style="fill:none;stroke:#231f20;stroke-width:20;stroke-linecap:round;stroke-linejoin:round;stroke-miterlimit:10;stroke-dasharray:none;stroke-opacity:1"
         transform="matrix(0.13333333,0,0,-0.13333333,0,666.66667)" />
      <path
         id="path27"
         d="m 4293.1,2222.1 c 46.5,97.4 46.3,215.9 -0.4,313.2 -46.7,97.3 -139.1,171.5 -244.3,196.1 -20.3,-102.8 -25.5,-211.8 10.2,-310.4 35.7,-98.5 118.5,-184.5 234.5,-198.9"
         style="fill:#ffffff;fill-opacity:1;fill-rule:nonzero;stroke:none"
         transform="matrix(0.13333333,0,0,-0.13333333,0,666.66667)" />
      <path
         id="path28"
         d="m 4293.1,2222.1 c 46.5,97.4 46.3,215.9 -0.4,313.2 -46.7,97.3 -139.1,171.5 -244.3,196.1 -20.3,-102.8 -25.5,-211.8 10.2,-310.4 35.7,-98.5 118.5,-184.5 234.5,-198.9 z"
         style="fill:none;stroke:#231f20;stroke-width:20;stroke-linecap:round;stroke-linejoin:round;stroke-miterlimit:10;stroke-dasharray:none;stroke-opacity:1"
         transform="matrix(0.13333333,0,0,-0.13333333,0,666.66667)" />
      <path
         id="path29"
         d="m 4289.5,2223.3 c -33.4,112.9 -83.4,220.9 -147.7,319.5"
         style="fill:none;stroke:#231f20;stroke-width:20;stroke-linecap:round;stroke-linejoin:round;stroke-miterlimit:10;stroke-dasharray:none;stroke-opacity:1"
         transform="matrix(0.13333333,0,0,-0.13333333,0,666.66667)" />
      <path
         id="path30"
         d="m 4520.1,2896.8 c -9.3,-84.7 -32.3,-168 -67.8,-245.5"
         style="fill:none;stroke:#231f20;stroke-width:20;stroke-linecap:round;stroke-linejoin:round;stroke-miterlimit:10;stroke-dasharray:none;stroke-opacity:1"
         transform="matrix(0.13333333,0,0,-0.13333333,0,666.66667)" />
      <path
         id="path31"
         d="m 4530.6,2946.5 c 22.1,0 40,-17.91 40,-40 0,-22.09 -17.9,-40 -40,-40 -22.09,0 -40,17.91 -40,40 0,22.09 17.91,40 40,40"
         style="fill:#ffffff;fill-opacity:1;fill-rule:nonzero;stroke:none"
         transform="matrix(0.13333333,0,0,-0.13333333,0,666.66667)" />
      <path
         id="path32"
         d="m 4530.6,2946.5 c 22.1,0 40,-17.91 40,-40 0,-22.09 -17.9,-40 -40,-40 -22.09,0 -40,17.91 -40,40 0,22.09 17.91,40 40,40 z"
         style="fill:none;stroke:#231f20;stroke-width:20;stroke-linecap:round;stroke-linejoin:round;stroke-miterlimit:10;stroke-dasharray:none;stroke-opacity:1"
         transform="matrix(0.13333333,0,0,-0.13333333,0,666.66667)" />
      <path
         id="path33"
         d="M 4678.5,2924.2 C 4611.1,2836 4557.9,2736.9 4521.6,2632"
         style="fill:none;stroke:#231f20;stroke-width:20;stroke-linecap:round;stroke-linejoin:round;stroke-miterlimit:10;stroke-dasharray:none;stroke-opacity:1"
         transform="matrix(0.13333333,0,0,-0.13333333,0,666.66667)" />
      <path
         id="path34"
         d="m 4684.1,2969.8 c 22.09,0 40,-17.91 40,-40 0,-22.09 -17.91,-40 -40,-40 -22.09,0 -40,17.91 -40,40 0,22.09 17.91,40 40,40"
         style="fill:#ffffff;fill-opacity:1;fill-rule:nonzero;stroke:none"
         transform="matrix(0.13333333,0,0,-0.13333333,0,666.66667)" />
      <path
         id="path35"
         d="m 4684.1,2969.8 c 22.09,0 40,-17.91 40,-40 0,-22.09 -17.91,-40 -40,-40 -22.09,0 -40,17.91 -40,40 0,22.09 17.91,40 40,40 z"
         style="fill:none;stroke:#231f20;stroke-width:20;stroke-linecap:round;stroke-linejoin:round;stroke-miterlimit:10;stroke-dasharray:none;stroke-opacity:1"
         transform="matrix(0.13333333,0,0,-0.13333333,0,666.66667)" />
      <path
         id="path36"
         d="m 4739.8,2768.8 c -69.8,-36.6 -129.6,-92.1 -171.3,-159"
         style="fill:none;stroke:#231f20;stroke-width:20;stroke-linecap:round;stroke-linejoin:round;stroke-miterlimit:10;stroke-dasharray:none;stroke-opacity:1"
         transform="matrix(0.13333333,0,0,-0.13333333,0,666.66667)" />
      <path
         id="path37"
         d="m 4748.6,2824.8 c 22.09,0 40,-17.91 40,-40 0,-22.09 -17.91,-40 -40,-40 -22.1,0 -40,17.91 -40,40 0,22.09 17.9,40 40,40"
         style="fill:#ffffff;fill-opacity:1;fill-rule:nonzero;stroke:none"
         transform="matrix(0.13333333,0,0,-0.13333333,0,666.66667)" />
      <path
         id="path38"
         d="m 4748.6,2824.8 c 22.09,0 40,-17.91 40,-40 0,-22.09 -17.91,-40 -40,-40 -22.1,0 -40,17.91 -40,40 0,22.09 17.9,40 40,40 z"
         style="fill:none;stroke:#231f20;stroke-width:20;stroke-linecap:round;stroke-linejoin:round;stroke-miterlimit:10;stroke-dasharray:none;stroke-opacity:1"
         transform="matrix(0.13333333,0,0,-0.13333333,0,666.66667)" />
      <path
         id="path39"
         d="m 4450.2,2737.8 c -15.9,116.7 -187.7,119 -140.4,12.6 48.8,-109.7 -44,-204.8 -17.7,-306 23.2,-89.4 150.2,-124.9 231.2,-60 52.3,41.9 89.6,111.6 134.2,117.7 31.9,4.3 68.3,-16.9 93.7,11.8 52.7,59.4 -18.1,123.4 -107.1,116.1 41.1,116.1 -110.8,198.7 -193.9,107.8"
         style="fill:#ffffff;fill-opacity:1;fill-rule:nonzero;stroke:none"
         transform="matrix(0.13333333,0,0,-0.13333333,0,666.66667)" />
      <path
         id="path40"
         d="m 4450.2,2737.8 c -15.9,116.7 -187.7,119 -140.4,12.6 48.8,-109.7 -44,-204.8 -17.7,-306 23.2,-89.4 150.2,-124.9 231.2,-60 52.3,41.9 89.6,111.6 134.2,117.7 31.9,4.3 68.3,-16.9 93.7,11.8 52.7,59.4 -18.1,123.4 -107.1,116.1 41.1,116.1 -110.8,198.7 -193.9,107.8 z"
         style="fill:none;stroke:#231f20;stroke-width:20;stroke-linecap:round;stroke-linejoin:round;stroke-miterlimit:10;stroke-dasharray:none;stroke-opacity:1"
         transform="matrix(0.13333333,0,0,-0.13333333,0,666.66667)" />
      <path
         id="path41"
         d="m 4476,2392.4 c -17.2,3.8 -35,-1.6 -51.8,-7 14.9,10.4 19,32.9 9.8,48.5 -9.2,15.6 -29.7,23.1 -47.2,18.4 -17.5,-4.8 -31,-20.7 -34.4,-38.5 -10.2,23.1 -31,41.2 -55.3,48.1 -8,2.3 -17.5,3.2 -24,-2 -7.4,-5.8 -8,-16.7 -6.7,-26 3.7,-26.5 18.3,-51.2 39.6,-67.4 7.1,-5.4 14.4,-10.3 21.7,-14.7 -39.4,-83.2 -67.7,-172.6 -80.2,-267.5 10.9,-5.2 21.9,-10.3 37.7,-15.2 18.7,90.8 48.3,179 87.5,261.8 31.4,-10.4 63.9,-12.5 95.4,-4.6 16,4 33.6,12.5 37.1,28.6 3.8,17.1 -12,33.7 -29.2,37.5"
         style="fill:#ffffff;fill-opacity:1;fill-rule:nonzero;stroke:none"
         transform="matrix(0.13333333,0,0,-0.13333333,0,666.66667)" />
      <path
         id="path42"
         d="m 4476,2392.4 c -17.2,3.8 -35,-1.6 -51.8,-7 14.9,10.4 19,32.9 9.8,48.5 -9.2,15.6 -29.7,23.1 -47.2,18.4 -17.5,-4.8 -31,-20.7 -34.4,-38.5 -10.2,23.1 -31,41.2 -55.3,48.1 -8,2.3 -17.5,3.2 -24,-2 -7.4,-5.8 -8,-16.7 -6.7,-26 3.7,-26.5 18.3,-51.2 39.6,-67.4 7.1,-5.4 14.4,-10.3 21.7,-14.7 -39.4,-83.2 -67.7,-172.6 -80.2,-267.5 10.9,-5.2 21.9,-10.3 37.7,-15.2 18.7,90.8 48.3,179 87.5,261.8 31.4,-10.4 63.9,-12.5 95.4,-4.6 16,4 33.6,12.5 37.1,28.6 3.8,17.1 -12,33.7 -29.2,37.5 z"
         style="fill:none;stroke:#231f20;stroke-width:20;stroke-linecap:round;stroke-linejoin:round;stroke-miterlimit:10;stroke-dasharray:none;stroke-opacity:1"
         transform="matrix(0.13333333,0,0,-0.13333333,0,666.66667)" />
      <path
         id="path43"
         d="m 4270.7,2096.1 c 35.2,92.2 118.8,164.3 215.3,185.5 96.4,21.1 202.6,-9.4 279.4,-91 -54.8,-75.6 -137.6,-130.4 -228.6,-151.2 -91,-21 -189.4,-7.6 -266.1,56.7"
         style="fill:#ffffff;fill-opacity:1;fill-rule:nonzero;stroke:none"
         transform="matrix(0.13333333,0,0,-0.13333333,0,666.66667)" />
      <path
         id="path44"
         d="m 4270.7,2096.1 c 35.2,92.2 118.8,164.3 215.3,185.5 96.4,21.1 202.6,-9.4 279.4,-91 -54.8,-75.6 -137.6,-130.4 -228.6,-151.2 -91,-21 -189.4,-7.6 -266.1,56.7 z"
         style="fill:none;stroke:#231f20;stroke-width:20;stroke-linecap:round;stroke-linejoin:round;stroke-miterlimit:10;stroke-dasharray:none;stroke-opacity:1"
         transform="matrix(0.13333333,0,0,-0.13333333,0,666.66667)" />
      <path
         id="path45"
         d="m 4272.9,2094.6 c 110.5,56.3 232.4,90.4 356.1,99.5"
         style="fill:none;stroke:#231f20;stroke-width:20;stroke-linecap:round;stroke-linejoin:round;stroke-miterlimit:10;stroke-dasharray:none;stroke-opacity:1"
         transform="matrix(0.13333333,0,0,-0.13333333,0,666.66667)" />
      <path
         id="path46"
         d="m 1348.4,2037.9 c -40.9,99.9 -33.9,218.2 18.3,312.7 52.2,94.5 148.7,163.3 255,181.9 14.4,-103.8 13.3,-212.9 -27.9,-309.3 -41.2,-96.4 -128.7,-177.6 -245.4,-185.3"
         style="fill:#ffffff;fill-opacity:1;fill-rule:nonzero;stroke:none"
         transform="matrix(0.13333333,0,0,-0.13333333,0,666.66667)" />
      <path
         id="path47"
         d="m 1348.4,2037.9 c -40.9,99.9 -33.9,218.2 18.3,312.7 52.2,94.5 148.7,163.3 255,181.9 14.4,-103.8 13.3,-212.9 -27.9,-309.3 -41.2,-96.4 -128.7,-177.6 -245.4,-185.3 z"
         style="fill:none;stroke:#231f20;stroke-width:20;stroke-linecap:round;stroke-linejoin:round;stroke-miterlimit:10;stroke-dasharray:none;stroke-opacity:1"
         transform="matrix(0.13333333,0,0,-0.13333333,0,666.66667)" />
      <path
         id="path48"
         d="m 1352.1,2038.9 c 39.8,110.8 95.8,215.8 165.7,310.6"
         style="fill:none;stroke:#231f20;stroke-width:20;stroke-linecap:round;stroke-linejoin:round;stroke-miterlimit:10;stroke-dasharray:none;stroke-opacity:1"
         transform="matrix(0.13333333,0,0,-0.13333333,0,666.66667)" />
      <path
         id="path49"
         d="m 1039.5,2743.5 c 9.3,-84.7 32.3,-168 67.8,-245.5"
         style="fill:none;stroke:#231f20;stroke-width:20;stroke-linecap:round;stroke-linejoin:round;stroke-miterlimit:10;stroke-dasharray:none;stroke-opacity:1"
         transform="matrix(0.13333333,0,0,-0.13333333,0,666.66667)" />
      <path
         id="path50"
         d="m 1028.9,2793.2 c 22.09,0 40,-17.91 40,-40 0,-22.09 -17.91,-40 -40,-40 -22.09,0 -39.998,17.91 -39.998,40 0,22.09 17.908,40 39.998,40"
         style="fill:#ffffff;fill-opacity:1;fill-rule:nonzero;stroke:none"
         transform="matrix(0.13333333,0,0,-0.13333333,0,666.66667)" />
      <path
         id="path51"
         d="m 1028.9,2793.2 c 22.09,0 40,-17.91 40,-40 0,-22.09 -17.91,-40 -40,-40 -22.09,0 -39.998,17.91 -39.998,40 0,22.09 17.908,40 39.998,40 z"
         style="fill:none;stroke:#231f20;stroke-width:20;stroke-linecap:round;stroke-linejoin:round;stroke-miterlimit:10;stroke-dasharray:none;stroke-opacity:1"
         transform="matrix(0.13333333,0,0,-0.13333333,0,666.66667)" />
      <path
         id="path52"
         d="m 881,2770.9 c 67.398,-88.2 120.6,-187.3 156.9,-292.2"
         style="fill:none;stroke:#231f20;stroke-width:20;stroke-linecap:round;stroke-linejoin:round;stroke-miterlimit:10;stroke-dasharray:none;stroke-opacity:1"
         transform="matrix(0.13333333,0,0,-0.13333333,0,666.66667)" />
      <path
         id="path53"
         d="m 875.398,2816.5 c 22.09,0 40,-17.91 40,-40 0,-22.09 -17.91,-40 -40,-40 -22.085,0 -40,17.91 -40,40 0,22.09 17.915,40 40,40"
         style="fill:#ffffff;fill-opacity:1;fill-rule:nonzero;stroke:none"
         transform="matrix(0.13333333,0,0,-0.13333333,0,666.66667)" />
      <path
         id="path54"
         d="m 875.398,2816.5 c 22.09,0 40,-17.91 40,-40 0,-22.09 -17.91,-40 -40,-40 -22.085,0 -40,17.91 -40,40 0,22.09 17.915,40 40,40 z"
         style="fill:none;stroke:#231f20;stroke-width:20;stroke-linecap:round;stroke-linejoin:round;stroke-miterlimit:10;stroke-dasharray:none;stroke-opacity:1"
         transform="matrix(0.13333333,0,0,-0.13333333,0,666.66667)" />
      <path
         id="path55"
         d="m 819.703,2615.5 c 69.801,-36.6 129.598,-92.1 171.297,-159"
         style="fill:none;stroke:#231f20;stroke-width:20;stroke-linecap:round;stroke-linejoin:round;stroke-miterlimit:10;stroke-dasharray:none;stroke-opacity:1"
         transform="matrix(0.13333333,0,0,-0.13333333,0,666.66667)" />
      <path
         id="path56"
         d="m 811,2671.5 c 22.09,0 40,-17.91 40,-40 0,-22.09 -17.91,-40 -40,-40 -22.094,0 -40,17.91 -40,40 0,22.09 17.906,40 40,40"
         style="fill:#ffffff;fill-opacity:1;fill-rule:nonzero;stroke:none"
         transform="matrix(0.13333333,0,0,-0.13333333,0,666.66667)" />
      <path
         id="path57"
         d="m 811,2671.5 c 22.09,0 40,-17.91 40,-40 0,-22.09 -17.91,-40 -40,-40 -22.094,0 -40,17.91 -40,40 0,22.09 17.906,40 40,40 z"
         style="fill:none;stroke:#231f20;stroke-width:20;stroke-linecap:round;stroke-linejoin:round;stroke-miterlimit:10;stroke-dasharray:none;stroke-opacity:1"
         transform="matrix(0.13333333,0,0,-0.13333333,0,666.66667)" />
      <path
         id="path58"
         d="m 1109.3,2584.6 c 15.9,116.7 187.7,119 140.4,12.6 -48.8,-109.7 44,-204.8 17.7,-306 -23.2,-89.4 -150.2,-124.9 -231.2,-60 -52.298,41.9 -89.598,111.6 -134.196,117.7 -31.906,4.3 -68.305,-16.9 -93.703,11.8 -52.699,59.4 18.101,123.4 107.097,116.1 -41.097,116 110.802,198.7 193.902,107.8"
         style="fill:#ffffff;fill-opacity:1;fill-rule:nonzero;stroke:none"
         transform="matrix(0.13333333,0,0,-0.13333333,0,666.66667)" />
      <path
         id="path59"
         d="m 1109.3,2584.6 c 15.9,116.7 187.7,119 140.4,12.6 -48.8,-109.7 44,-204.8 17.7,-306 -23.2,-89.4 -150.2,-124.9 -231.2,-60 -52.298,41.9 -89.598,111.6 -134.196,117.7 -31.906,4.3 -68.305,-16.9 -93.703,11.8 -52.699,59.4 18.101,123.4 107.097,116.1 -41.097,116 110.802,198.7 193.902,107.8 z"
         style="fill:none;stroke:#231f20;stroke-width:20;stroke-linecap:round;stroke-linejoin:round;stroke-miterlimit:10;stroke-dasharray:none;stroke-opacity:1"
         transform="matrix(0.13333333,0,0,-0.13333333,0,666.66667)" />
      <path
         id="path60"
         d="m 1083.5,2239.1 c 17.2,3.8 35,-1.6 51.8,-7 -14.9,10.4 -19,32.9 -9.8,48.5 9.2,15.6 29.7,23.1 47.2,18.4 17.5,-4.7 31,-20.7 34.4,-38.5 10.2,23.1 31,41.2 55.3,48.1 8,2.3 17.5,3.2 24,-2 7.4,-5.8 8,-16.7 6.7,-26 -3.7,-26.5 -18.3,-51.2 -39.6,-67.4 -7.1,-5.4 -14.4,-10.3 -21.7,-14.7 39.4,-83.2 67.7,-172.6 80.2,-267.5 -10.9,-5.2 -21.9,-10.3 -37.7,-15.2 -18.7,90.8 -48.3,179 -87.5,261.8 -31.4,-10.4 -63.9,-12.5 -95.4,-4.6 -16,4 -33.6,12.5 -37.1,28.6 -3.8,17.1 12,33.7 29.2,37.5"
         style="fill:#ffffff;fill-opacity:1;fill-rule:nonzero;stroke:none"
         transform="matrix(0.13333333,0,0,-0.13333333,0,666.66667)" />
      <path
         id="path61"
         d="m 1083.5,2239.1 c 17.2,3.8 35,-1.6 51.8,-7 -14.9,10.4 -19,32.9 -9.8,48.5 9.2,15.6 29.7,23.1 47.2,18.4 17.5,-4.7 31,-20.7 34.4,-38.5 10.2,23.1 31,41.2 55.3,48.1 8,2.3 17.5,3.2 24,-2 7.4,-5.8 8,-16.7 6.7,-26 -3.7,-26.5 -18.3,-51.2 -39.6,-67.4 -7.1,-5.4 -14.4,-10.3 -21.7,-14.7 39.4,-83.2 67.7,-172.6 80.2,-267.5 -10.9,-5.2 -21.9,-10.3 -37.7,-15.2 -18.7,90.8 -48.3,179 -87.5,261.8 -31.4,-10.4 -63.9,-12.5 -95.4,-4.6 -16,4 -33.6,12.5 -37.1,28.6 -3.8,17.1 12,33.7 29.2,37.5 z"
         style="fill:none;stroke:#231f20;stroke-width:20;stroke-linecap:round;stroke-linejoin:round;stroke-miterlimit:10;stroke-dasharray:none;stroke-opacity:1"
         transform="matrix(0.13333333,0,0,-0.13333333,0,666.66667)" />
      <path
         id="path62"
         d="m 1265.7,1847 c -7.9,98.4 -68.1,191 -154.8,238.3 -86.7,47.3 -197.099,47.7 -293.697,-9.2 31.395,-87.9 95.594,-163.7 177.098,-209.1 81.499,-45.4 179.799,-60.3 271.399,-20"
         style="fill:#ffffff;fill-opacity:1;fill-rule:nonzero;stroke:none"
         transform="matrix(0.13333333,0,0,-0.13333333,0,666.66667)" />
      <path
         id="path63"
         d="m 1265.7,1847 c -7.9,98.4 -68.1,191 -154.8,238.3 -86.7,47.3 -197.099,47.7 -293.697,-9.2 31.395,-87.9 95.594,-163.7 177.098,-209.1 81.499,-45.4 179.799,-60.3 271.399,-20 z"
         style="fill:none;stroke:#231f20;stroke-width:20;stroke-linecap:round;stroke-linejoin:round;stroke-miterlimit:10;stroke-dasharray:none;stroke-opacity:1"
         transform="matrix(0.13333333,0,0,-0.13333333,0,666.66667)" />
      <path
         id="path64"
         d="m 1263.2,1846.2 c -90.4,85 -197.8,151.8 -314.001,195.1"
         style="fill:none;stroke:#231f20;stroke-width:20;stroke-linecap:round;stroke-linejoin:round;stroke-miterlimit:10;stroke-dasharray:none;stroke-opacity:1"
         transform="matrix(0.13333333,0,0,-0.13333333,0,666.66667)" />
      <path
         id="path65"
         d="m -204.199,1442.3 c 121.2967,114 330.297,117.4 455.297,7.4 -13.895,174.9 91.203,353.2 250.906,425.8 159.695,72.6 363.094,34.5 485.793,-91 66.903,62.1 166.403,86.9 254.603,63.4 4,146.5 136.2,270.7 281.5,289.8 145.3,19.1 292.8,-52.9 389.6,-163 96.8,-110.1 148.2,-253.7 162,-398.1 3.9,-279.2 7.8,-558.3 11.7,-837.498 C 1367.3,692.398 642.004,644.801 -55.2969,459.699 -76.4023,668 -97.4023,876.199 -118.5,1084.5"
         style="fill:#ffffff;fill-opacity:1;fill-rule:nonzero;stroke:#231f20;stroke-width:20;stroke-linecap:round;stroke-linejoin:round;stroke-miterlimit:10;stroke-dasharray:none;stroke-opacity:1"
         transform="matrix(0.13333333,0,0,-0.13333333,0,666.66667)" />
      <path
         id="path66"
         d="m 3614,1271.4 c -82.6,87.4 -88.1,236.8 -12.2,330.1 75.9,93.2 223.4,118.1 325.7,55 -66.6,196.6 88.5,435 295.2,453.9 206.7,18.8 402.3,-187.6 372.4,-393 49.7,52.5 141.6,57 196.2,9.6 54.6,-47.4 63,-139 18,-195.6 123.2,90.4 316.9,6.5 373.6,-135.5 56.7,-141.9 3.8,-307.9 -90.2,-428.4 114.7,-9.301 183.4,-145.699 164.2,-259.102 C 5237.7,595 5158.7,502.199 5082.8,415.699 c -452.4,58.699 -904.7,117.41 -1357.1,176.199 7.6,159.903 -19.1,321.5 -111.7,679.502"
         style="fill:#ffffff;fill-opacity:1;fill-rule:nonzero;stroke:none"
         transform="matrix(0.13333333,0,0,-0.13333333,0,666.66667)" />
      <path
         id="path67"
         d="m 3614,1271.4 c -82.6,87.4 -88.1,236.8 -12.2,330.1 75.9,93.2 223.4,118.1 325.7,55 -66.6,196.6 88.5,435 295.2,453.9 206.7,18.8 402.3,-187.6 372.4,-393 49.7,52.5 141.6,57 196.2,9.6 54.6,-47.4 63,-139 18,-195.6 123.2,90.4 316.9,6.5 373.6,-135.5 56.7,-141.9 3.8,-307.9 -90.2,-428.4 114.7,-9.301 183.4,-145.699 164.2,-259.102 C 5237.7,595 5158.7,502.199 5082.8,415.699 c -452.4,58.699 -904.7,117.41 -1357.1,176.199 7.6,159.903 -19.1,321.5 -111.7,679.502 z"
         style="fill:none;stroke:#231f20;stroke-width:20;stroke-linecap:round;stroke-linejoin:round;stroke-miterlimit:10;stroke-dasharray:none;stroke-opacity:1"
         transform="matrix(0.13333333,0,0,-0.13333333,0,666.66667)" />
      <path
         id="path68"
         d="M 5196.2,492.199 C 3466.4,1073.6 1555.8,1103.4 -138.102,547.801 c 10.602,-265.5 21.204,-530.9026 31.801,-796.399 1736.101,5.496 3472.301,10.996 5208.401,16.496 38.2,222.20356 76.4,444.301 94.1,724.301"
         style="fill:#ffffff;fill-opacity:1;fill-rule:nonzero;stroke:none"
         transform="matrix(0.13333333,0,0,-0.13333333,0,666.66667)" />
      <path
         id="path69"
         d="M 5196.2,492.199 C 3466.4,1073.6 1555.8,1103.4 -138.102,547.801 c 10.602,-265.5 21.204,-530.9026 31.801,-796.399 1736.101,5.496 3472.301,10.996 5208.401,16.496 38.2,222.20356 76.4,444.301 94.1,724.301 z"
         style="fill:none;stroke:#231f20;stroke-width:20;stroke-linecap:round;stroke-linejoin:miter;stroke-miterlimit:10;stroke-dasharray:none;stroke-opacity:1"
         transform="matrix(0.13333333,0,0,-0.13333333,0,666.66667)" />
      <path
         id="path70"
         d="m 1635.6,1575.2 c 0,0 109.3,-957.098 138,-991.7 28.7,-34.598 735.1,-56.699 877.4,-56.699 142.7,0 1267.1,53.301 1352.6,94.699 85.5,41.5 156.3,932.4 156.3,932.4 L 2710.1,2239 2149.8,2177.7 1635.6,1575.2"
         style="fill:#ffffff;fill-opacity:1;fill-rule:nonzero;stroke:#231f20;stroke-width:20;stroke-linecap:round;stroke-linejoin:round;stroke-miterlimit:10;stroke-dasharray:none;stroke-opacity:1"
         transform="matrix(0.13333333,0,0,-0.13333333,0,666.66667)" />
      <path
         id="path71"
         d="m 2591.3,528.5 c 0,0 85.9,900.8 76.5,1063.8"
         style="fill:none;stroke:#231f20;stroke-width:20;stroke-linecap:round;stroke-linejoin:round;stroke-miterlimit:10;stroke-dasharray:none;stroke-opacity:1"
         transform="matrix(0.13333333,0,0,-0.13333333,0,666.66667)" />
      <path
         id="path72"
         d="m 1431.1,1525.7 c 3.5,73.8 593.8,803.6 709.9,839.1 116.1,35.5 1368.1,76.9 1541.1,42.9 135.4,-26.6 542.8,-505.8 643.3,-760.3 13.9,-35.3 -53.5,-146.1 -95.5,-170.1 -52.9,-30.1 -1497.7,-133.5 -1604.69,-65 -78.51,50.2 -430.31,670.8 -456.11,669.3 -25.8,-1.5 -544.3,-666.7 -579.7,-679.6 -35.4,-12.7 -160.3,81.4 -158.3,123.7"
         style="fill:#ffffff;fill-opacity:1;fill-rule:nonzero;stroke:none"
         transform="matrix(0.13333333,0,0,-0.13333333,0,666.66667)" />
      <path
         id="path73"
         d="m 1431.1,1525.7 c 3.5,73.8 593.8,803.6 709.9,839.1 116.1,35.5 1368.1,76.9 1541.1,42.9 135.4,-26.6 542.8,-505.8 643.3,-760.3 13.9,-35.3 -53.5,-146.1 -95.5,-170.1 -52.9,-30.1 -1497.7,-133.5 -1604.69,-65 -78.51,50.2 -430.31,670.8 -456.11,669.3 -25.8,-1.5 -544.3,-666.7 -579.7,-679.6 -35.4,-12.7 -160.3,81.4 -158.3,123.7 z"
         style="fill:none;stroke:#231f20;stroke-width:20;stroke-linecap:round;stroke-linejoin:round;stroke-miterlimit:10;stroke-dasharray:none;stroke-opacity:1"
         transform="matrix(0.13333333,0,0,-0.13333333,0,666.66667)" />
      <path
         id="path74"
         d="m 2278,2323.9 c 141.6,-220.9 283.2,-441.8 424.8,-662.8 30.8,-48.1 70.3,-99.3 128.6,-105.5 326.2,-34.6 1033.6,18.8 1494,91.9"
         style="fill:none;stroke:#231f20;stroke-width:10;stroke-linecap:round;stroke-linejoin:miter;stroke-miterlimit:10;stroke-dasharray:none;stroke-opacity:1"
         transform="matrix(0.13333333,0,0,-0.13333333,0,666.66667)" />
      <path
         id="path75"
         d="m 2616.7,1416.6 c 68.2,35.8 128.3,87.1 174.4,148.8"
         style="fill:none;stroke:#231f20;stroke-width:10;stroke-linecap:round;stroke-linejoin:miter;stroke-miterlimit:10;stroke-dasharray:none;stroke-opacity:1"
         transform="matrix(0.13333333,0,0,-0.13333333,0,666.66667)" />
      <path
         id="path76"
         d="m 2668.5,1166.4 c 487.7,-22.3 977.3,-4.3 1462,53.7"
         style="fill:none;stroke:#231f20;stroke-width:10;stroke-linecap:round;stroke-linejoin:miter;stroke-miterlimit:10;stroke-dasharray:none;stroke-opacity:1"
         transform="matrix(0.13333333,0,0,-0.13333333,0,666.66667)" />
      <path
         id="path77"
         d="M 4080.6,872.898 C 3595.3,827.602 3104.4,795.5 2617.5,816.102"
         style="fill:none;stroke:#231f20;stroke-width:10;stroke-linecap:round;stroke-linejoin:miter;stroke-miterlimit:10;stroke-dasharray:none;stroke-opacity:1"
         transform="matrix(0.13333333,0,0,-0.13333333,0,666.66667)" />
      <path
         id="path78"
         d="m 2403.9,526.801 c 0,0 49.6,331.898 49.6,604.699 0,419.4 -110.3,655.3 -356.5,628.5 -232.9,-25.3 -272.3,-297.6 -256.2,-559.4 20.3,-330.6 83.5,-647.901 83.5,-647.901 0,0 382.8,-32.801 479.6,-25.898"
         style="fill:#231f20;fill-opacity:1;fill-rule:nonzero;stroke:none"
         transform="matrix(0.13333333,0,0,-0.13333333,0,666.66667)" />
      <path
         id="path79"
         d="M 984.504,657 C 903.398,638.398 832.5,579.5 799.398,503.102 c -16.5,-38.204 -22.898,-85.5 1.403,-119.301 20.398,-28.5 58.199,-40.199 93.199,-38.199 35,2 68.102,15.597 100.504,29.097 106.196,44 212.296,88 318.496,132.102 -101.9,77.5 -222.7,130.097 -328.496,150.199"
         style="fill:#ffffff;fill-opacity:1;fill-rule:nonzero;stroke:none"
         transform="matrix(0.13333333,0,0,-0.13333333,0,666.66667)" />
      <path
         id="path80"
         d="M 984.504,657 C 903.398,638.398 832.5,579.5 799.398,503.102 c -16.5,-38.204 -22.898,-85.5 1.403,-119.301 20.398,-28.5 58.199,-40.199 93.199,-38.199 35,2 68.102,15.597 100.504,29.097 106.196,44 212.296,88 318.496,132.102 -101.9,77.5 -222.7,130.097 -328.496,150.199 z"
         style="fill:none;stroke:#231f20;stroke-width:20;stroke-linecap:round;stroke-linejoin:round;stroke-miterlimit:10;stroke-dasharray:none;stroke-opacity:1"
         transform="matrix(0.13333333,0,0,-0.13333333,0,666.66667)" />
      <path
         id="path81"
         d="M 984.504,468.301 C 944.301,445.102 918.102,399.5 918.301,353.102"
         style="fill:none;stroke:#231f20;stroke-width:20;stroke-linecap:round;stroke-linejoin:round;stroke-miterlimit:10;stroke-dasharray:none;stroke-opacity:1"
         transform="matrix(0.13333333,0,0,-0.13333333,0,666.66667)" />
      <path
         id="path82"
         d="M 866.402,501.801 C 827.5,471 809.801,415.699 823.801,368.102"
         style="fill:none;stroke:#231f20;stroke-width:20;stroke-linecap:round;stroke-linejoin:round;stroke-miterlimit:10;stroke-dasharray:none;stroke-opacity:1"
         transform="matrix(0.13333333,0,0,-0.13333333,0,666.66667)" />
      <path
         id="path83"
         d="m 2078.3,622.301 c -15.2,-62 -30.6,-126.199 -19.3,-189 11.2,-62.801 56.6,-124.199 119.7,-133.102 43.4,-6.097 87.3,13.5 120.2,42.5 80.6,71.203 100.7,188.703 99.4,296.203 -0.1,7.7 -0.8,16.496 -7.1,21.098 -5.1,3.699 -12,3.102 -18.2,2.301 -107.1,-13.301 -214.3,-26.602 -294.7,-40"
         style="fill:#ffffff;fill-opacity:1;fill-rule:nonzero;stroke:none"
         transform="matrix(0.13333333,0,0,-0.13333333,0,666.66667)" />
      <path
         id="path84"
         d="m 2078.3,622.301 c -15.2,-62 -30.6,-126.199 -19.3,-189 11.2,-62.801 56.6,-124.199 119.7,-133.102 43.4,-6.097 87.3,13.5 120.2,42.5 80.6,71.203 100.7,188.703 99.4,296.203 -0.1,7.7 -0.8,16.496 -7.1,21.098 -5.1,3.699 -12,3.102 -18.2,2.301 -107.1,-13.301 -214.3,-26.602 -294.7,-40 z"
         style="fill:none;stroke:#231f20;stroke-width:20;stroke-linecap:round;stroke-linejoin:round;stroke-miterlimit:10;stroke-dasharray:none;stroke-opacity:1"
         transform="matrix(0.13333333,0,0,-0.13333333,0,666.66667)" />
      <path
         id="path85"
         d="m 2132.8,419.898 c -14.2,-28 -17.6,-61.296 -9.2,-91.597"
         style="fill:none;stroke:#231f20;stroke-width:20;stroke-linecap:round;stroke-linejoin:round;stroke-miterlimit:10;stroke-dasharray:none;stroke-opacity:1"
         transform="matrix(0.13333333,0,0,-0.13333333,0,666.66667)" />
      <path
         id="path86"
         d="m 2262.1,423 c 16,-26.5 20.8,-59.699 13,-89.699"
         style="fill:none;stroke:#231f20;stroke-width:20;stroke-linecap:round;stroke-linejoin:round;stroke-miterlimit:10;stroke-dasharray:none;stroke-opacity:1"
         transform="matrix(0.13333333,0,0,-0.13333333,0,666.66667)" />
      <path
         id="path87"
         d="m 1203.5,1645.3 c 0,0 -381.199,-134.4 -549.301,-489.5 -89.496,-188.999 -74.297,-433.698 83.102,-531.999 132.898,-83 386.999,509.799 386.999,509.799"
         style="fill:#ffffff;fill-opacity:1;fill-rule:nonzero;stroke:#231f20;stroke-width:20;stroke-linecap:round;stroke-linejoin:round;stroke-miterlimit:10;stroke-dasharray:none;stroke-opacity:1"
         transform="matrix(0.13333333,0,0,-0.13333333,0,666.66667)" />
      <path
         id="path88"
         d="m 794,975 c 0,441.7 366.6,776.9 853.7,776.9 487.1,0 886.9,-241 919.3,-749.5 C 2596.3,541.402 2134.9,469.801 1647.7,469.801 1160.5,469.801 794,513 794,975"
         style="fill:#ffffff;fill-opacity:1;fill-rule:nonzero;stroke:#231f20;stroke-width:20;stroke-linecap:round;stroke-linejoin:round;stroke-miterlimit:10;stroke-dasharray:none;stroke-opacity:1"
         transform="matrix(0.13333333,0,0,-0.13333333,0,666.66667)" />
      <path
         id="path89"
         d="m 1202.6,1053.2 c 51.92,0 94,-42.99 94,-96.001 0,-53.019 -42.08,-96 -94,-96 -51.92,0 -94,42.981 -94,96 0,53.011 42.08,96.001 94,96.001"
         style="fill:#231f20;fill-opacity:1;fill-rule:nonzero;stroke:none"
         transform="matrix(0.13333333,0,0,-0.13333333,0,666.66667)" />
      <path
         id="path90"
         d="m 1166.3,1002 c 12.15,0 22,-10.031 22,-22.398 0,-12.372 -9.85,-22.403 -22,-22.403 -12.15,0 -22,10.031 -22,22.403 0,12.367 9.85,22.398 22,22.398"
         style="fill:#ffffff;fill-opacity:1;fill-rule:nonzero;stroke:none"
         transform="matrix(0.13333333,0,0,-0.13333333,0,666.66667)" />
      <path
         id="path91"
         d="m 1943.7,1053.2 c 51.92,0 94,-42.99 94,-96.001 0,-53.019 -42.08,-96 -94,-96 -51.91,0 -94,42.981 -94,96 0,53.011 42.09,96.001 94,96.001"
         style="fill:#231f20;fill-opacity:1;fill-rule:nonzero;stroke:none"
         transform="matrix(0.13333333,0,0,-0.13333333,0,666.66667)" />
      <path
         id="path92"
         d="m 1907.4,1002 c 12.15,0 22,-10.031 22,-22.398 0,-12.372 -9.85,-22.403 -22,-22.403 -12.15,0 -22,10.031 -22,22.403 0,12.367 9.85,22.398 22,22.398"
         style="fill:#ffffff;fill-opacity:1;fill-rule:nonzero;stroke:none"
         transform="matrix(0.13333333,0,0,-0.13333333,0,666.66667)" />
      <path
         id="path93"
         d="m 1494.9,985.102 c 0,18.898 29.1,34.298 64.9,34.298 35.8,0 64.9,-15.4 64.9,-34.298 0,-9.5 -16.2,-18 -32.4,-24.204 -21.3,-8.097 -43.8,-8.097 -65.1,0 -16.2,6.204 -32.3,14.801 -32.3,24.204"
         style="fill:#ffffff;fill-opacity:1;fill-rule:nonzero;stroke:none"
         transform="matrix(0.13333333,0,0,-0.13333333,0,666.66667)" />
      <path
         id="path94"
         d="m 1494.9,985.102 c 0,18.898 29.1,34.298 64.9,34.298 35.8,0 64.9,-15.4 64.9,-34.298 0,-9.5 -16.2,-18 -32.4,-24.204 -21.3,-8.097 -43.8,-8.097 -65.1,0 -16.2,6.204 -32.3,14.801 -32.3,24.204 z"
         style="fill:none;stroke:#231f20;stroke-width:20;stroke-linecap:round;stroke-linejoin:round;stroke-miterlimit:10;stroke-dasharray:none;stroke-opacity:1"
         transform="matrix(0.13333333,0,0,-0.13333333,0,666.66667)" />
      <path
         id="path95"
         d="m 1710.8,865.801 c -42.2,-4.801 -85.5,3 -123,23.199 -25.6,10.801 -40.1,-1.602 -60.1,-2.801 -27.1,-13.199 -56.4,-22.398 -86.8,-27.5 -7.6,-57.5 17.8,-118.898 65,-151.301 47.1,-32.398 113.8,-35 159.8,-0.996 45.9,33.996 64.4,100.098 45.1,159.399"
         style="fill:#ffffff;fill-opacity:1;fill-rule:nonzero;stroke:none"
         transform="matrix(0.13333333,0,0,-0.13333333,0,666.66667)" />
      <path
         id="path96"
         d="m 1710.8,865.801 c -42.2,-4.801 -85.5,3 -123,23.199 -25.6,10.801 -40.1,-1.602 -60.1,-2.801 -27.1,-13.199 -56.4,-22.398 -86.8,-27.5 -7.6,-57.5 17.8,-118.898 65,-151.301 47.1,-32.398 113.8,-35 159.8,-0.996 45.9,33.996 64.4,100.098 45.1,159.399 z"
         style="fill:none;stroke:#231f20;stroke-width:20;stroke-linecap:round;stroke-linejoin:round;stroke-miterlimit:10;stroke-dasharray:none;stroke-opacity:1"
         transform="matrix(0.13333333,0,0,-0.13333333,0,666.66667)" />
      <path
         id="path97"
         d="m 1400.6,875.699 c 21.2,-28.097 55.1,-42.398 86.8,-36.597 31.8,5.796 60.3,31.398 73,65.699"
         style="fill:#ffffff;fill-opacity:1;fill-rule:nonzero;stroke:#231f20;stroke-width:20;stroke-linecap:round;stroke-linejoin:round;stroke-miterlimit:10;stroke-dasharray:none;stroke-opacity:1"
         transform="matrix(0.13333333,0,0,-0.13333333,0,666.66667)" />
      <path
         id="path98"
         d="m 1745.6,875.699 c -24.5,-28.097 -63.8,-42.398 -100.5,-36.597 -36.7,5.796 -69.8,31.398 -84.6,65.699"
         style="fill:#ffffff;fill-opacity:1;fill-rule:nonzero;stroke:#231f20;stroke-width:20;stroke-linecap:round;stroke-linejoin:round;stroke-miterlimit:10;stroke-dasharray:none;stroke-opacity:1"
         transform="matrix(0.13333333,0,0,-0.13333333,0,666.66667)" />
      <path
         id="path99"
         d="m 1687.4,747.602 c -3.1,37 -71.8,65.5 -110,19.796 -8,19.5 -34.9,36 -65.7,25.903 -76.1,-25 -33,-155.699 17.6,-194.199 96.3,-73 165.1,64.699 158.1,148.5"
         style="fill:#ffffff;fill-opacity:1;fill-rule:nonzero;stroke:none"
         transform="matrix(0.13333333,0,0,-0.13333333,0,666.66667)" />
      <path
         id="path100"
         d="m 1687.4,747.602 c -3.1,37 -71.8,65.5 -110,19.796 -8,19.5 -34.9,36 -65.7,25.903 -76.1,-25 -33,-155.699 17.6,-194.199 96.3,-73 165.1,64.699 158.1,148.5 z"
         style="fill:none;stroke:#231f20;stroke-width:20;stroke-linecap:round;stroke-linejoin:round;stroke-miterlimit:10;stroke-dasharray:none;stroke-opacity:1"
         transform="matrix(0.13333333,0,0,-0.13333333,0,666.66667)" />
      <path
         id="path101"
         d="m 1576.9,770.102 c -4.3,-29.602 -4.6,-59.704 -0.9,-89.403"
         style="fill:none;stroke:#231f20;stroke-width:20;stroke-linecap:round;stroke-linejoin:round;stroke-miterlimit:10;stroke-dasharray:none;stroke-opacity:1"
         transform="matrix(0.13333333,0,0,-0.13333333,0,666.66667)" />
      <path
         id="path102"
         d="m 2129.87,898.039 c 79,4.852 145.41,-30 148.35,-77.848 2.94,-47.851 -58.71,-90.57 -137.7,-95.421 -79,-4.848 -145.41,30.011 -148.35,77.851 -2.94,47.848 58.71,90.559 137.7,95.418 z"
         style="fill:none;stroke:#231f20;stroke-width:10;stroke-linecap:round;stroke-linejoin:miter;stroke-miterlimit:10;stroke-dasharray:none;stroke-opacity:1"
         transform="matrix(0.13333333,0,0,-0.13333333,0,666.66667)" />
      <path
         id="path103"
         d="m 903.613,833.832 c 7.496,47.34 76.938,75.699 155.107,63.328 78.17,-12.371 135.46,-60.781 127.97,-108.129 -7.49,-47.351 -76.93,-75.699 -155.1,-63.34 -78.172,12.379 -135.469,60.778 -127.977,108.141 z"
         style="fill:none;stroke:#231f20;stroke-width:10;stroke-linecap:round;stroke-linejoin:miter;stroke-miterlimit:10;stroke-dasharray:none;stroke-opacity:1"
         transform="matrix(0.13333333,0,0,-0.13333333,0,666.66667)" />
      <path
         id="path104"
         d="m 2154.1,1645.3 c 0,0 377.3,-183.2 532.2,-489.5 94.3,-186.499 74.3,-433.698 -83.1,-531.999 -132.9,-83 -387,509.799 -387,509.799"
         style="fill:#ffffff;fill-opacity:1;fill-rule:nonzero;stroke:#231f20;stroke-width:20;stroke-linecap:round;stroke-linejoin:round;stroke-miterlimit:10;stroke-dasharray:none;stroke-opacity:1"
         transform="matrix(0.13333333,0,0,-0.13333333,0,666.66667)" />
      <path
         id="path105"
         d="m 3269.5,2912.4 c 56.3,89.6 163.5,133.8 267.6,152.6 104.1,18.8 211.5,17.6 314.1,43.3 102.6,25.7 205.1,86.2 242.2,185.3 26.9,71.9 21.5,164.3 83.6,209.6 40.3,29.4 99,25.6 140.6,-1.8 41.7,-27.4 67.4,-74.6 77.6,-123.5 27,-130 -51.3,-265.2 -162.6,-337.7 -111.3,-72.5 -248.7,-92.5 -381.4,-94.5 -74.7,-1.1 -149.9,2.8 -223.5,-10.3 -73.5,-13.1 -147,-45.6 -191.5,-105.5 -40,43.4 -93.6,73.9 -166.7,82.5"
         style="fill:#ffffff;fill-opacity:1;fill-rule:nonzero;stroke:none"
         transform="matrix(0.13333333,0,0,-0.13333333,0,666.66667)" />
      <path
         id="path106"
         d="m 3269.5,2912.4 c 56.3,89.6 163.5,133.8 267.6,152.6 104.1,18.8 211.5,17.6 314.1,43.3 102.6,25.7 205.1,86.2 242.2,185.3 26.9,71.9 21.5,164.3 83.6,209.6 40.3,29.4 99,25.6 140.6,-1.8 41.7,-27.4 67.4,-74.6 77.6,-123.5 27,-130 -51.3,-265.2 -162.6,-337.7 -111.3,-72.5 -248.7,-92.5 -381.4,-94.5 -74.7,-1.1 -149.9,2.8 -223.5,-10.3 -73.5,-13.1 -147,-45.6 -191.5,-105.5 -40,43.4 -93.6,73.9 -166.7,82.5 z"
         style="fill:none;stroke:#231f20;stroke-width:20;stroke-linecap:round;stroke-linejoin:round;stroke-miterlimit:10;stroke-dasharray:none;stroke-opacity:1"
         transform="matrix(0.13333333,0,0,-0.13333333,0,666.66667)" />
      <path
         id="path107"
         d="m 2310.9,2271.5 c -111.3,-50.3 -262.3,-120.5 -367.5,-159.9 -45.7,-17.1 -100.8,-30.9 -140.1,-1.9 -30.5,22.5 -40.5,65.2 -33.8,102.6 6.7,37.4 27,70.6 47.6,102.5 93,144.1 198.5,280.1 320.7,460.4 219.9,-16 433.2,66.4 643,134.1 209.8,67.7 434.1,105 647.7,50.1 192.3,-49.5 643.2,-534.2 553.4,-688 -59.4,-101.8 -381.4,-15 -562.2,109.5 C 3172.2,2150 2611.4,2156 2310.9,2271.5"
         style="fill:#ffffff;fill-opacity:1;fill-rule:nonzero;stroke:#231f20;stroke-width:20;stroke-linecap:round;stroke-linejoin:round;stroke-miterlimit:10;stroke-dasharray:none;stroke-opacity:1"
         transform="matrix(0.13333333,0,0,-0.13333333,0,666.66667)" />
      <path
         id="path108"
         d="m 1913.3,2185 c -32,-14.2 -53.6,-49.1 -52,-84.1"
         style="fill:none;stroke:#231f20;stroke-width:20;stroke-linecap:round;stroke-linejoin:round;stroke-miterlimit:10;stroke-dasharray:none;stroke-opacity:1"
         transform="matrix(0.13333333,0,0,-0.13333333,0,666.66667)" />
      <path
         id="path109"
         d="m 1830.1,2230.8 c -28.7,-23 -46.1,-59.4 -46.1,-96.2"
         style="fill:none;stroke:#231f20;stroke-width:20;stroke-linecap:round;stroke-linejoin:round;stroke-miterlimit:10;stroke-dasharray:none;stroke-opacity:1"
         transform="matrix(0.13333333,0,0,-0.13333333,0,666.66667)" />
      <path
         id="path110"
         d="m 3975.1,2263.2 c -24.1,1.9 -46.7,17.1 -57.4,38.7"
         style="fill:none;stroke:#231f20;stroke-width:20;stroke-linecap:round;stroke-linejoin:round;stroke-miterlimit:10;stroke-dasharray:none;stroke-opacity:1"
         transform="matrix(0.13333333,0,0,-0.13333333,0,666.66667)" />
      <path
         id="path111"
         d="m 3895.2,2226.6 c -28,5 -52.9,24.4 -64.7,50.2"
         style="fill:none;stroke:#231f20;stroke-width:20;stroke-linecap:round;stroke-linejoin:round;stroke-miterlimit:10;stroke-dasharray:none;stroke-opacity:1"
         transform="matrix(0.13333333,0,0,-0.13333333,0,666.66667)" />
      <path
         id="path112"
         d="m 2011.7,2857.7 c 0,0 160,-176 504.8,-176 344.8,0 648.4,112.3 731.6,311.5 L 2011.7,2857.7"
         style="fill:#ffffff;fill-opacity:1;fill-rule:nonzero;stroke:#231f20;stroke-width:20;stroke-linecap:round;stroke-linejoin:round;stroke-miterlimit:10;stroke-dasharray:none;stroke-opacity:1"
         transform="matrix(0.13333333,0,0,-0.13333333,0,666.66667)" />
      <path
         id="path113"
         d="m 2379.7,2720.7 c 70.36,0 127.4,-57.04 127.4,-127.4 0,-70.36 -57.04,-127.4 -127.4,-127.4 -70.36,0 -127.4,57.04 -127.4,127.4 0,70.36 57.04,127.4 127.4,127.4"
         style="fill:#ffffff;fill-opacity:1;fill-rule:nonzero;stroke:none"
         transform="matrix(0.13333333,0,0,-0.13333333,0,666.66667)" />
      <path
         id="path114"
         d="m 2379.7,2720.7 c 70.36,0 127.4,-57.04 127.4,-127.4 0,-70.36 -57.04,-127.4 -127.4,-127.4 -70.36,0 -127.4,57.04 -127.4,127.4 0,70.36 57.04,127.4 127.4,127.4 z"
         style="fill:none;stroke:#231f20;stroke-width:20;stroke-linecap:round;stroke-linejoin:round;stroke-miterlimit:10;stroke-dasharray:none;stroke-opacity:1"
         transform="matrix(0.13333333,0,0,-0.13333333,0,666.66667)" />
      <path
         id="path115"
         d="m 2572.4,2325.2 c 0,0 -38.3,-485.8 134.2,-465.9 175.9,20.3 308.9,505.3 308.9,505.3"
         style="fill:#ffffff;fill-opacity:1;fill-rule:nonzero;stroke:#231f20;stroke-width:20;stroke-linecap:round;stroke-linejoin:round;stroke-miterlimit:10;stroke-dasharray:none;stroke-opacity:1"
         transform="matrix(0.13333333,0,0,-0.13333333,0,666.66667)" />
      <path
         id="path116"
         d="m 2744.5,1870.2 c -12,32 -10.6,68.8 3.7,99.9"
         style="fill:none;stroke:#231f20;stroke-width:20;stroke-linecap:round;stroke-linejoin:round;stroke-miterlimit:10;stroke-dasharray:none;stroke-opacity:1"
         transform="matrix(0.13333333,0,0,-0.13333333,0,666.66667)" />
      <path
         id="path117"
         d="m 2669.1,1863.5 c -21.9,32.7 -27.6,75.7 -15,113"
         style="fill:none;stroke:#231f20;stroke-width:20;stroke-linecap:round;stroke-linejoin:round;stroke-miterlimit:10;stroke-dasharray:none;stroke-opacity:1"
         transform="matrix(0.13333333,0,0,-0.13333333,0,666.66667)" />
      <path
         id="path118"
         d="m 2905.3,2833.5 c 450.4,72.2 872,377 493.2,975.5 -6.7,650.4 -241,908 -766.7,381.7 -122.2,9 -255.7,-1.1 -376.2,-28.8 -647.1,415.8 -788.3,149.4 -718.3,-510.7 -375.5,-1003.8 707.7,-923.6 1368,-817.7"
         style="fill:#ffffff;fill-opacity:1;fill-rule:nonzero;stroke:none"
         transform="matrix(0.13333333,0,0,-0.13333333,0,666.66667)" />
      <path
         id="path119"
         d="m 2905.3,2833.5 c 450.4,72.2 872,377 493.2,975.5 -6.7,650.4 -241,908 -766.7,381.7 -122.2,9 -255.7,-1.1 -376.2,-28.8 -647.1,415.8 -788.3,149.4 -718.3,-510.7 -375.5,-1003.8 707.7,-923.6 1368,-817.7 z"
         style="fill:none;stroke:#231f20;stroke-width:20;stroke-linecap:round;stroke-linejoin:miter;stroke-miterlimit:10;stroke-dasharray:none;stroke-opacity:1"
         transform="matrix(0.13333333,0,0,-0.13333333,0,666.66667)" />
      <path
         id="path120"
         d="m 3217.9,4047.4 c 0,0 -28.4,273.3 -114,282.3 -85.6,9 -237.6,-134.5 -237.6,-134.5 0,0 203.5,-40.4 351.6,-147.8"
         style="fill:#ffffff;fill-opacity:1;fill-rule:nonzero;stroke:none"
         transform="matrix(0.13333333,0,0,-0.13333333,0,666.66667)" />
      <path
         id="path121"
         d="m 3217.9,4047.4 c 0,0 -28.4,273.3 -114,282.3 -85.6,9 -237.6,-134.5 -237.6,-134.5 0,0 203.5,-40.4 351.6,-147.8 z"
         style="fill:none;stroke:#231f20;stroke-width:20;stroke-linecap:round;stroke-linejoin:round;stroke-miterlimit:10;stroke-dasharray:none;stroke-opacity:1"
         transform="matrix(0.13333333,0,0,-0.13333333,0,666.66667)" />
      <path
         id="path122"
         d="m 1662.2,3866.3 c 0,0 -26.1,258.8 56.5,293.2 82.6,34.4 257.1,-79 257.1,-79 0,0 -207.6,-115.9 -313.6,-214.2"
         style="fill:#ffffff;fill-opacity:1;fill-rule:nonzero;stroke:none"
         transform="matrix(0.13333333,0,0,-0.13333333,0,666.66667)" />
      <path
         id="path123"
         d="m 1662.2,3866.3 c 0,0 -26.1,258.8 56.5,293.2 82.6,34.4 257.1,-79 257.1,-79 0,0 -207.6,-115.9 -313.6,-214.2 z"
         style="fill:none;stroke:#231f20;stroke-width:20;stroke-linecap:round;stroke-linejoin:round;stroke-miterlimit:10;stroke-dasharray:none;stroke-opacity:1"
         transform="matrix(0.13333333,0,0,-0.13333333,0,666.66667)" />
      <path
         id="path124"
         d="m 1501.7,3242 c -120.7,30.4 -250.6,23.3 -367.3,-20"
         style="fill:none;stroke:#231f20;stroke-width:10;stroke-linecap:round;stroke-linejoin:miter;stroke-miterlimit:10;stroke-dasharray:none;stroke-opacity:1"
         transform="matrix(0.13333333,0,0,-0.13333333,0,666.66667)" />
      <path
         id="path125"
         d="m 1561.9,3042 c -114.7,-30.1 -220.8,-92.4 -303,-177.9"
         style="fill:none;stroke:#231f20;stroke-width:10;stroke-linecap:round;stroke-linejoin:miter;stroke-miterlimit:10;stroke-dasharray:none;stroke-opacity:1"
         transform="matrix(0.13333333,0,0,-0.13333333,0,666.66667)" />
      <path
         id="path126"
         d="m 3485.7,3465.9 c 119.3,58.1 258.3,74.8 387.9,46.4"
         style="fill:none;stroke:#231f20;stroke-width:10;stroke-linecap:round;stroke-linejoin:miter;stroke-miterlimit:10;stroke-dasharray:none;stroke-opacity:1"
         transform="matrix(0.13333333,0,0,-0.13333333,0,666.66667)" />
      <path
         id="path127"
         d="m 3506.2,3264.3 c 121.9,4.9 244.8,-20.9 354.4,-74.3"
         style="fill:none;stroke:#231f20;stroke-width:10;stroke-linecap:round;stroke-linejoin:miter;stroke-miterlimit:10;stroke-dasharray:none;stroke-opacity:1"
         transform="matrix(0.13333333,0,0,-0.13333333,0,666.66667)" />
      <path
         id="path128"
         d="m 2446.4,3484.5 c -1.5,15.4 19.2,29.9 46,32.5 26.9,2.6 49.9,-7.9 51.3,-23.2 0.9,-9.9 -18.3,-20.5 -32.2,-26.8 -8.9,-4.1 -19,-5 -28.5,-2.7 -14.7,3.5 -35.6,10.3 -36.6,20.2"
         style="fill:#231f20;fill-opacity:1;fill-rule:nonzero;stroke:none"
         transform="matrix(0.13333333,0,0,-0.13333333,0,666.66667)" />
      <path
         id="path129"
         d="m 2372.7,3397.9 c 0,0 5.5,-279.8 137.2,-275.5 132.4,4.3 119,283.9 119,283.9"
         style="fill:#ffffff;fill-opacity:1;fill-rule:nonzero;stroke:#231f20;stroke-width:20;stroke-linecap:round;stroke-linejoin:round;stroke-miterlimit:10;stroke-dasharray:none;stroke-opacity:1"
         transform="matrix(0.13333333,0,0,-0.13333333,0,666.66667)" />
      <path
         id="path130"
         d="m 2354.9,3408.9 c 20.2,-22.6 48.4,-34.3 75.6,-31.4 27.2,2.9 52.9,20.4 69,47"
         style="fill:#ffffff;fill-opacity:1;fill-rule:nonzero;stroke:#231f20;stroke-width:20;stroke-linecap:round;stroke-linejoin:miter;stroke-miterlimit:10;stroke-dasharray:none;stroke-opacity:1"
         transform="matrix(0.13333333,0,0,-0.13333333,0,666.66667)" />
      <path
         id="path131"
         d="m 2644.8,3418.3 c -18.7,-23.9 -46,-37.4 -73.3,-36.3 -27.3,1.2 -54.1,17 -71.9,42.4"
         style="fill:#ffffff;fill-opacity:1;fill-rule:nonzero;stroke:#231f20;stroke-width:20;stroke-linecap:round;stroke-linejoin:miter;stroke-miterlimit:10;stroke-dasharray:none;stroke-opacity:1"
         transform="matrix(0.13333333,0,0,-0.13333333,0,666.66667)" />
      <path
         id="path132"
         d="m 2405.6,3221.2 c 60.9,39.4 137.8,40.7 200.3,3.3"
         style="fill:none;stroke:#231f20;stroke-width:20;stroke-linecap:round;stroke-linejoin:round;stroke-miterlimit:10;stroke-dasharray:none;stroke-opacity:1"
         transform="matrix(0.13333333,0,0,-0.13333333,0,666.66667)" />
      <path
         id="path133"
         d="m 2053.2,3531.4 c 47.94,0 86.8,-38.86 86.8,-86.8 0,-47.94 -38.86,-86.8 -86.8,-86.8 -47.94,0 -86.8,38.86 -86.8,86.8 0,47.94 38.86,86.8 86.8,86.8"
         style="fill:#231f20;fill-opacity:1;fill-rule:nonzero;stroke:none"
         transform="matrix(0.13333333,0,0,-0.13333333,0,666.66667)" />
      <path
         id="path134"
         d="m 2053.2,3531.4 c 47.94,0 86.8,-38.86 86.8,-86.8 0,-47.94 -38.86,-86.8 -86.8,-86.8 -47.94,0 -86.8,38.86 -86.8,86.8 0,47.94 38.86,86.8 86.8,86.8 z"
         style="fill:none;stroke:#231f20;stroke-width:10;stroke-linecap:butt;stroke-linejoin:miter;stroke-miterlimit:10;stroke-dasharray:none;stroke-opacity:1"
         transform="matrix(0.13333333,0,0,-0.13333333,0,666.66667)" />
      <path
         id="path135"
         d="m 2028.19,3500.04 c 18.57,2.8 35.86,-9.81 38.63,-28.16 2.76,-18.35 -10.05,-35.49 -28.62,-38.29 -18.57,-2.79 -35.86,9.81 -38.62,28.16 -2.77,18.35 10.04,35.49 28.61,38.29"
         style="fill:#ffffff;fill-opacity:1;fill-rule:nonzero;stroke:none"
         transform="matrix(0.13333333,0,0,-0.13333333,0,666.66667)" />
      <path
         id="path136"
         d="m 2970.1,3576.1 c 47.94,0 86.8,-38.86 86.8,-86.8 0,-47.94 -38.86,-86.8 -86.8,-86.8 -47.94,0 -86.8,38.86 -86.8,86.8 0,47.94 38.86,86.8 86.8,86.8"
         style="fill:#231f20;fill-opacity:1;fill-rule:nonzero;stroke:none"
         transform="matrix(0.13333333,0,0,-0.13333333,0,666.66667)" />
      <path
         id="path137"
         d="m 2970.1,3576.1 c 47.94,0 86.8,-38.86 86.8,-86.8 0,-47.94 -38.86,-86.8 -86.8,-86.8 -47.94,0 -86.8,38.86 -86.8,86.8 0,47.94 38.86,86.8 86.8,86.8 z"
         style="fill:none;stroke:#231f20;stroke-width:10;stroke-linecap:butt;stroke-linejoin:miter;stroke-miterlimit:10;stroke-dasharray:none;stroke-opacity:1"
         transform="matrix(0.13333333,0,0,-0.13333333,0,666.66667)" />
      <path
         id="path138"
         d="m 2944.97,3544.61 c 18.57,2.8 35.86,-9.81 38.62,-28.15 2.77,-18.35 -10.04,-35.49 -28.61,-38.29 -18.56,-2.8 -35.86,9.8 -38.62,28.15 -2.77,18.35 10.05,35.5 28.61,38.29"
         style="fill:#ffffff;fill-opacity:1;fill-rule:nonzero;stroke:none"
         transform="matrix(0.13333333,0,0,-0.13333333,0,666.66667)" />
      <path
         id="path139"
         d="m 3140.5,3411.7 c 63.51,0 115,-29.1 115,-65 0,-35.9 -51.49,-65 -115,-65 -63.52,0 -115,29.1 -115,65 0,35.9 51.48,65 115,65 z"
         style="fill:none;stroke:#231f20;stroke-width:10;stroke-linecap:round;stroke-linejoin:miter;stroke-miterlimit:10;stroke-dasharray:none;stroke-opacity:1"
         transform="matrix(0.13333333,0,0,-0.13333333,0,666.66667)" />
      <path
         id="path140"
         d="m 1846.4,3411.7 c 63.51,0 115,-29.1 115,-65 0,-35.9 -51.49,-65 -115,-65 -63.51,0 -115,29.1 -115,65 0,35.9 51.49,65 115,65 z"
         style="fill:none;stroke:#231f20;stroke-width:10;stroke-linecap:round;stroke-linejoin:miter;stroke-miterlimit:10;stroke-dasharray:none;stroke-opacity:1"
         transform="matrix(0.13333333,0,0,-0.13333333,0,666.66667)" />
      <path
         id="path141"
         d="m 624.801,2887.8 c -49.801,35.5 -101,71.8 -160.199,92.4 -59.204,20.7 -129.106,22.6 -170,-8.2 -26.606,-20.1 -37.598,-50.8 -46.5,-80.7 -5.204,-17.3 -10,-35.1 -8.301,-53.8 1.699,-18.7 10.801,-38.8 28.898,-52.7 25.903,-20 63,-22.9 95.203,-21.4 71,3.3 152.598,16.3 206.996,47.9 18.704,26.6 29.5,54.7 53.903,76.5"
         style="fill:#ffffff;fill-opacity:1;fill-rule:nonzero;stroke:none"
         transform="matrix(0.13333333,0,0,-0.13333333,0,666.66667)" />
      <path
         id="path142"
         d="m 624.801,2887.8 c -49.801,35.5 -101,71.8 -160.199,92.4 -59.204,20.7 -129.106,22.6 -170,-8.2 -26.606,-20.1 -37.598,-50.8 -46.5,-80.7 -5.204,-17.3 -10,-35.1 -8.301,-53.8 1.699,-18.7 10.801,-38.8 28.898,-52.7 25.903,-20 63,-22.9 95.203,-21.4 71,3.3 152.598,16.3 206.996,47.9 18.704,26.6 29.5,54.7 53.903,76.5 z"
         style="fill:none;stroke:#231f20;stroke-width:20;stroke-linecap:round;stroke-linejoin:round;stroke-miterlimit:10;stroke-dasharray:none;stroke-opacity:1"
         transform="matrix(0.13333333,0,0,-0.13333333,0,666.66667)" />
      <path
         id="path143"
         d="m 741.602,2947.8 c 71.699,67.1 132.597,143.7 180.601,227.1 15.793,27.5 30.496,57.5 26.195,89.5 -2.199,16.4 -11.5,34.4 -28.796,40.4 -12.301,4.3 -26.004,1.3 -36.301,-5 -10.305,-6.3 -17.699,-15.6 -24.801,-24.8 -39.902,-52.1 -73.898,-109.3 -126.398,-151 -32.903,-26.1 -73.2,-46.3 -95.602,-80.6 -8.504,-13 -13.398,-31.2 -1.898,-43.6 5.3,-5.8 13.097,-9 20.597,-12 31.903,-12.7 63.903,-25.6 86.403,-40"
         style="fill:#ffffff;fill-opacity:1;fill-rule:nonzero;stroke:none"
         transform="matrix(0.13333333,0,0,-0.13333333,0,666.66667)" />
      <path
         id="path144"
         d="m 741.602,2947.8 c 71.699,67.1 132.597,143.7 180.601,227.1 15.793,27.5 30.496,57.5 26.195,89.5 -2.199,16.4 -11.5,34.4 -28.796,40.4 -12.301,4.3 -26.004,1.3 -36.301,-5 -10.305,-6.3 -17.699,-15.6 -24.801,-24.8 -39.902,-52.1 -73.898,-109.3 -126.398,-151 -32.903,-26.1 -73.2,-46.3 -95.602,-80.6 -8.504,-13 -13.398,-31.2 -1.898,-43.6 5.3,-5.8 13.097,-9 20.597,-12 31.903,-12.7 63.903,-25.6 86.403,-40 z"
         style="fill:none;stroke:#231f20;stroke-width:20;stroke-linecap:round;stroke-linejoin:round;stroke-miterlimit:10;stroke-dasharray:none;stroke-opacity:1"
         transform="matrix(0.13333333,0,0,-0.13333333,0,666.66667)" />
      <path
         id="path145"
         d="m 687.5,2949.2 c 42.797,104.1 60.602,217.9 52.5,334.1 -3.301,47.1 -18.301,103.9 -72.102,129.2 -39.796,18.6 -87.097,11.1 -117.402,-9.2 -30.297,-20.3 -46.996,-51 -61.996,-81.2 -14.902,-30.3 -29.301,-61.6 -56.398,-84.7 -39.204,-33.5 -102.903,-47.6 -128.801,-89.6 -32.805,-53.1 12.797,-130 79.898,-172.6 67.098,-42.6 164.797,-71 244.598,-93.9 33.805,25.1 56.203,59.4 59.703,67.9"
         style="fill:#ffffff;fill-opacity:1;fill-rule:nonzero;stroke:none"
         transform="matrix(0.13333333,0,0,-0.13333333,0,666.66667)" />
      <path
         id="path146"
         d="m 687.5,2949.2 c 42.797,104.1 60.602,217.9 52.5,334.1 -3.301,47.1 -18.301,103.9 -72.102,129.2 -39.796,18.6 -87.097,11.1 -117.402,-9.2 -30.297,-20.3 -46.996,-51 -61.996,-81.2 -14.902,-30.3 -29.301,-61.6 -56.398,-84.7 -39.204,-33.5 -102.903,-47.6 -128.801,-89.6 -32.805,-53.1 12.797,-130 79.898,-172.6 67.098,-42.6 164.797,-71 244.598,-93.9 33.805,25.1 56.203,59.4 59.703,67.9 z"
         style="fill:none;stroke:#231f20;stroke-width:20;stroke-linecap:round;stroke-linejoin:round;stroke-miterlimit:10;stroke-dasharray:none;stroke-opacity:1"
         transform="matrix(0.13333333,0,0,-0.13333333,0,666.66667)" />
      <path
         id="path147"
         d="m 669.398,2937.6 c -40,-36.4 -79.101,-74.9 -108.097,-121.3 -6.301,-10.1 -12.301,-21 -13.199,-32.9 -0.899,-11.9 4.894,-24.7 15.496,-27.7 10.504,-3 21.5,4.1 30.601,11.2 46.699,36.9 84.903,86.1 109.903,141.6 -9.704,9.1 -19.399,18.3 -34.704,29.1"
         style="fill:#ffffff;fill-opacity:1;fill-rule:nonzero;stroke:none"
         transform="matrix(0.13333333,0,0,-0.13333333,0,666.66667)" />
      <path
         id="path148"
         d="m 669.398,2937.6 c -40,-36.4 -79.101,-74.9 -108.097,-121.3 -6.301,-10.1 -12.301,-21 -13.199,-32.9 -0.899,-11.9 4.894,-24.7 15.496,-27.7 10.504,-3 21.5,4.1 30.601,11.2 46.699,36.9 84.903,86.1 109.903,141.6 -9.704,9.1 -19.399,18.3 -34.704,29.1 z"
         style="fill:none;stroke:#231f20;stroke-width:20;stroke-linecap:round;stroke-linejoin:round;stroke-miterlimit:10;stroke-dasharray:none;stroke-opacity:1"
         transform="matrix(0.13333333,0,0,-0.13333333,0,666.66667)" />
      <path
         id="path149"
         d="m 661.328,3011.23 c 22.301,27.93 68.121,28.41 102.348,1.08 34.222,-27.33 43.898,-72.12 21.601,-100.04 -22.297,-27.93 -68.121,-28.41 -102.347,-1.08 -34.231,27.33 -43.899,72.12 -21.602,100.04"
         style="fill:#ffffff;fill-opacity:1;fill-rule:nonzero;stroke:none"
         transform="matrix(0.13333333,0,0,-0.13333333,0,666.66667)" />
      <path
         id="path150"
         d="m 661.328,3011.23 c 22.301,27.93 68.121,28.41 102.348,1.08 34.222,-27.33 43.898,-72.12 21.601,-100.04 -22.297,-27.93 -68.121,-28.41 -102.347,-1.08 -34.231,27.33 -43.899,72.12 -21.602,100.04 z"
         style="fill:none;stroke:#231f20;stroke-width:20;stroke-linecap:round;stroke-linejoin:round;stroke-miterlimit:10;stroke-dasharray:none;stroke-opacity:1"
         transform="matrix(0.13333333,0,0,-0.13333333,0,666.66667)" />
      <path
         id="path151"
         d="m 730.699,3318.7 c -29.199,16.6 -67.5,8.1 -96.398,-12 -28.903,-20 -50.399,-49.9 -71.305,-79.1 -20.894,-29.2 -42.297,-59.1 -71.098,-79.3 -19.695,-13.9 -42.097,-22.5 -63.699,-32.5 -21.597,-10 -43.199,-21.7 -59.398,-40.1 C 352.699,3057.3 342.797,3031 349,3007.6"
         style="fill:none;stroke:#231f20;stroke-width:10;stroke-linecap:round;stroke-linejoin:miter;stroke-miterlimit:10;stroke-dasharray:none;stroke-opacity:1"
         transform="matrix(0.13333333,0,0,-0.13333333,0,666.66667)" />
      <path
         id="path152"
         d="m 377.5,2976.5 c -12.5,-20.1 -25.297,-40.9 -29.398,-64.3 -4.102,-23.4 2.898,-50 22.195,-60.8 -30.996,-14.5 -50.594,-53.3 -44.496,-87.6"
         style="fill:none;stroke:#231f20;stroke-width:10;stroke-linecap:round;stroke-linejoin:round;stroke-miterlimit:10;stroke-dasharray:none;stroke-opacity:1"
         transform="matrix(0.13333333,0,0,-0.13333333,0,666.66667)" />
      <path
         id="path153"
         d="m 369.902,2849.9 c 67.399,-12.8 136.797,-15.9 205.899,-9.1"
         style="fill:none;stroke:#231f20;stroke-width:10;stroke-linecap:round;stroke-linejoin:round;stroke-miterlimit:10;stroke-dasharray:none;stroke-opacity:1"
         transform="matrix(0.13333333,0,0,-0.13333333,0,666.66667)" />
      <path
         id="path154"
         d="m 659,3017.7 c -46.102,52.3 -87.199,109.7 -122.301,171"
         style="fill:none;stroke:#231f20;stroke-width:10;stroke-linecap:round;stroke-linejoin:round;stroke-miterlimit:10;stroke-dasharray:none;stroke-opacity:1"
         transform="matrix(0.13333333,0,0,-0.13333333,0,666.66667)" />
      <path
         id="path155"
         d="m 654.398,2921.9 c -87.097,44.3 -163.097,111.2 -219.894,193.4"
         style="fill:none;stroke:#231f20;stroke-width:10;stroke-linecap:round;stroke-linejoin:round;stroke-miterlimit:10;stroke-dasharray:none;stroke-opacity:1"
         transform="matrix(0.13333333,0,0,-0.13333333,0,666.66667)" />
      <path
         id="path156"
         d="m 941.699,3282.4 c -24.597,4.3 -49.898,-10.6 -67.898,-30.2 -18,-19.6 -30.602,-43.7 -46.102,-65.4 -24.902,-34.7 -57.601,-63.1 -94.398,-82.1"
         style="fill:none;stroke:#231f20;stroke-width:10;stroke-linecap:round;stroke-linejoin:round;stroke-miterlimit:10;stroke-dasharray:none;stroke-opacity:1"
         transform="matrix(0.13333333,0,0,-0.13333333,0,666.66667)" />
      <path
         id="path157"
         d="m 801.402,3154.9 c -8.504,-46.1 -26.004,-90.7 -51.203,-130.1"
         style="fill:none;stroke:#231f20;stroke-width:10;stroke-linecap:round;stroke-linejoin:round;stroke-miterlimit:10;stroke-dasharray:none;stroke-opacity:1"
         transform="matrix(0.13333333,0,0,-0.13333333,0,666.66667)" />
      <path
         id="path158"
         d="m 4066.3,4137.8 c 40.7,-6.9 82.3,-1.1 123.2,4.5 40.9,5.6 82.6,10.9 123.1,3.1 40.5,-7.8 80.2,-31.2 97.1,-68.9 13.8,-30.9 10.6,-66.6 3.8,-99.8 -7.9,-38.2 -21.8,-77.9 -52.7,-101.8 -42.9,-33.1 -106.9,-24.7 -152.1,5 -45.3,29.7 -76.1,76.4 -111.6,119.7 -10.2,46.5 -20.5,93.1 -30.8,138.2"
         style="fill:#ffffff;fill-opacity:1;fill-rule:nonzero;stroke:none"
         transform="matrix(0.13333333,0,0,-0.13333333,0,666.66667)" />
      <path
         id="path159"
         d="m 4066.3,4137.8 c 40.7,-6.9 82.3,-1.1 123.2,4.5 40.9,5.6 82.6,10.9 123.1,3.1 40.5,-7.8 80.2,-31.2 97.1,-68.9 13.8,-30.9 10.6,-66.6 3.8,-99.8 -7.9,-38.2 -21.8,-77.9 -52.7,-101.8 -42.9,-33.1 -106.9,-24.7 -152.1,5 -45.3,29.7 -76.1,76.4 -111.6,119.7 -10.2,46.5 -20.5,93.1 -30.8,138.2 z"
         style="fill:none;stroke:#231f20;stroke-width:20;stroke-linecap:round;stroke-linejoin:round;stroke-miterlimit:10;stroke-dasharray:none;stroke-opacity:1"
         transform="matrix(0.13333333,0,0,-0.13333333,0,666.66667)" />
      <path
         id="path160"
         d="m 4294.2,4105.4 c 9.2,-22.8 16.4,-47.3 14.2,-71.8 -2.2,-24.5 -15.6,-49.2 -39.9,-61.7 11.2,-17.3 15.2,-39.2 11,-59.4 -4.29,-20.2 -16.7,-38.5 -34,-49.9"
         style="fill:none;stroke:#231f20;stroke-width:10;stroke-linecap:round;stroke-linejoin:round;stroke-miterlimit:10;stroke-dasharray:none;stroke-opacity:1"
         transform="matrix(0.13333333,0,0,-0.13333333,0,666.66667)" />
      <path
         id="path161"
         d="m 4129,4011.9 c 42.2,-26.3 92,-40.4 141.7,-40.2"
         style="fill:none;stroke:#231f20;stroke-width:10;stroke-linecap:round;stroke-linejoin:round;stroke-miterlimit:10;stroke-dasharray:none;stroke-opacity:1"
         transform="matrix(0.13333333,0,0,-0.13333333,0,666.66667)" />
      <path
         id="path162"
         d="m 4004.2,4218.9 c 2.9,93.7 7.4,188.3 31.9,278.8 24.5,90.5 70.8,177.7 144.4,235.7 33.4,26.4 75.2,46.9 117.4,40.6 47.4,-7.1 84.6,-47.4 101.2,-92.4 16.6,-45 16.2,-94.2 14.2,-142.1 -2,-47.9 -5.3,-96.6 6.1,-143.2 8.7,-35.9 25.9,-69.3 36.5,-104.7 10.6,-35.4 14.1,-75.5 -3.7,-107.9 -17.9,-32.5 -53.6,-51 -89,-62.2 -92.8,-29.4 -192.8,-20.8 -290.5,-13 -24.6,38.6 -49.2,77.3 -68.5,110.4"
         style="fill:#ffffff;fill-opacity:1;fill-rule:nonzero;stroke:none"
         transform="matrix(0.13333333,0,0,-0.13333333,0,666.66667)" />
      <path
         id="path163"
         d="m 4004.2,4218.9 c 2.9,93.7 7.4,188.3 31.9,278.8 24.5,90.5 70.8,177.7 144.4,235.7 33.4,26.4 75.2,46.9 117.4,40.6 47.4,-7.1 84.6,-47.4 101.2,-92.4 16.6,-45 16.2,-94.2 14.2,-142.1 -2,-47.9 -5.3,-96.6 6.1,-143.2 8.7,-35.9 25.9,-69.3 36.5,-104.7 10.6,-35.4 14.1,-75.5 -3.7,-107.9 -17.9,-32.5 -53.6,-51 -89,-62.2 -92.8,-29.4 -192.8,-20.8 -290.5,-13 -24.6,38.6 -49.2,77.3 -68.5,110.4 z"
         style="fill:none;stroke:#231f20;stroke-width:20;stroke-linecap:round;stroke-linejoin:round;stroke-miterlimit:10;stroke-dasharray:none;stroke-opacity:1"
         transform="matrix(0.13333333,0,0,-0.13333333,0,666.66667)" />
      <path
         id="path164"
         d="m 4158.3,4709.4 c 59.8,-53.5 86.9,-141.1 66.8,-229.5 31.6,-40.9 63.7,-82.7 81.1,-131.3 17.3,-48.7 17.8,-106.3 -11.7,-153.2 23.2,-19.4 33.7,-52.7 26,-82"
         style="fill:none;stroke:#231f20;stroke-width:10;stroke-linecap:round;stroke-linejoin:round;stroke-miterlimit:10;stroke-dasharray:none;stroke-opacity:1"
         transform="matrix(0.13333333,0,0,-0.13333333,0,666.66667)" />
      <path
         id="path165"
         d="m 4052.6,4326.8 c 38,68.1 99.5,122.8 171.6,152.5"
         style="fill:none;stroke:#231f20;stroke-width:10;stroke-linecap:round;stroke-linejoin:round;stroke-miterlimit:10;stroke-dasharray:none;stroke-opacity:1"
         transform="matrix(0.13333333,0,0,-0.13333333,0,666.66667)" />
      <path
         id="path166"
         d="m 4051.6,4175.9 c 80.6,-15.2 165.4,-8 242.3,20.8"
         style="fill:none;stroke:#231f20;stroke-width:10;stroke-linecap:round;stroke-linejoin:round;stroke-miterlimit:10;stroke-dasharray:none;stroke-opacity:1"
         transform="matrix(0.13333333,0,0,-0.13333333,0,666.66667)" />
      <path
         id="path167"
         d="m 4016.8,4158.5 c -20.7,-27.8 -49.3,-45.9 -77.4,-63.8 -28,-17.9 -56.5,-36.5 -76.6,-64.9 -20.1,-28.5 -30.7,-69 -19.2,-108.4 9.4,-32.3 32,-59.2 55.3,-82.1 26.9,-26.4 58.2,-50.6 90.8,-52.8 45.1,-3 79.2,38.7 89.5,87.3 10.3,48.6 2.1,102.9 -1.3,157 -20.6,43 -41.3,85.9 -61.1,127.7"
         style="fill:#ffffff;fill-opacity:1;fill-rule:nonzero;stroke:none"
         transform="matrix(0.13333333,0,0,-0.13333333,0,666.66667)" />
      <path
         id="path168"
         d="m 4016.8,4158.5 c -20.7,-27.8 -49.3,-45.9 -77.4,-63.8 -28,-17.9 -56.5,-36.5 -76.6,-64.9 -20.1,-28.5 -30.7,-69 -19.2,-108.4 9.4,-32.3 32,-59.2 55.3,-82.1 26.9,-26.4 58.2,-50.6 90.8,-52.8 45.1,-3 79.2,38.7 89.5,87.3 10.3,48.6 2.1,102.9 -1.3,157 -20.6,43 -41.3,85.9 -61.1,127.7 z"
         style="fill:none;stroke:#231f20;stroke-width:20;stroke-linecap:round;stroke-linejoin:round;stroke-miterlimit:10;stroke-dasharray:none;stroke-opacity:1"
         transform="matrix(0.13333333,0,0,-0.13333333,0,666.66667)" />
      <path
         id="path169"
         d="m 3897.1,4007.9 c 7.6,-23.4 17.3,-46.9 32.8,-65.3 15.5,-18.4 37.9,-30.9 59.8,-27.7 3.2,-20 13.3,-39.7 27.6,-53.6 14.2,-13.9 32.4,-21.7 49.4,-21.4"
         style="fill:none;stroke:#231f20;stroke-width:10;stroke-linecap:round;stroke-linejoin:round;stroke-miterlimit:10;stroke-dasharray:none;stroke-opacity:1"
         transform="matrix(0.13333333,0,0,-0.13333333,0,666.66667)" />
      <path
         id="path170"
         d="m 4051.4,4023.3 c -10.5,-44.2 -32.5,-82.7 -62.8,-109.8"
         style="fill:none;stroke:#231f20;stroke-width:10;stroke-linecap:round;stroke-linejoin:round;stroke-miterlimit:10;stroke-dasharray:none;stroke-opacity:1"
         transform="matrix(0.13333333,0,0,-0.13333333,0,666.66667)" />
      <path
         id="path171"
         d="m 4007.8,4257.6 c -55.8,73.6 -113.1,147 -180.3,206.1 -67.1,59.2 -145.6,103.7 -223.8,110 -35.5,2.9 -72.8,-3.6 -94.7,-31.7 -24.7,-31.6 -24,-84.3 -8.2,-129.5 15.9,-45.2 44.5,-84.4 73.4,-121.8 28.8,-37.3 58.9,-74.6 78.9,-118.1 15.4,-33.6 24.3,-69.7 38.3,-104 14,-34.2 35,-68.3 64.5,-84.6 29.6,-16.3 62,-11.6 90,-1.2 73.3,27.2 129.1,88.9 184,148.6 -7.4,44.6 -14.8,89.1 -22.1,126.2"
         style="fill:#ffffff;fill-opacity:1;fill-rule:nonzero;stroke:none"
         transform="matrix(0.13333333,0,0,-0.13333333,0,666.66667)" />
      <path
         id="path172"
         d="m 4007.8,4257.6 c -55.8,73.6 -113.1,147 -180.3,206.1 -67.1,59.2 -145.6,103.7 -223.8,110 -35.5,2.9 -72.8,-3.6 -94.7,-31.7 -24.7,-31.6 -24,-84.3 -8.2,-129.5 15.9,-45.2 44.5,-84.4 73.4,-121.8 28.8,-37.3 58.9,-74.6 78.9,-118.1 15.4,-33.6 24.3,-69.7 38.3,-104 14,-34.2 35,-68.3 64.5,-84.6 29.6,-16.3 62,-11.6 90,-1.2 73.3,27.2 129.1,88.9 184,148.6 -7.4,44.6 -14.8,89.1 -22.1,126.2 z"
         style="fill:none;stroke:#231f20;stroke-width:20;stroke-linecap:round;stroke-linejoin:round;stroke-miterlimit:10;stroke-dasharray:none;stroke-opacity:1"
         transform="matrix(0.13333333,0,0,-0.13333333,0,666.66667)" />
      <path
         id="path173"
         d="m 3631,4566.7 c -5.4,-75.7 28.7,-160.7 91.9,-220.7 4.4,-50.1 9,-101.2 26.6,-149.7 17.6,-48.5 50.6,-95 95.5,-116.4 -2.8,-28.3 10,-60.7 31.5,-80"
         style="fill:none;stroke:#231f20;stroke-width:10;stroke-linecap:round;stroke-linejoin:round;stroke-miterlimit:10;stroke-dasharray:none;stroke-opacity:1"
         transform="matrix(0.13333333,0,0,-0.13333333,0,666.66667)" />
      <path
         id="path174"
         d="m 3916.1,4317.6 c -62.4,33.9 -131.3,44 -192.2,28.3"
         style="fill:none;stroke:#231f20;stroke-width:10;stroke-linecap:round;stroke-linejoin:round;stroke-miterlimit:10;stroke-dasharray:none;stroke-opacity:1"
         transform="matrix(0.13333333,0,0,-0.13333333,0,666.66667)" />
      <path
         id="path175"
         d="m 4003.8,4197.2 c -40.2,-56.4 -95.9,-96.9 -159.2,-115.9"
         style="fill:none;stroke:#231f20;stroke-width:10;stroke-linecap:round;stroke-linejoin:round;stroke-miterlimit:10;stroke-dasharray:none;stroke-opacity:1"
         transform="matrix(0.13333333,0,0,-0.13333333,0,666.66667)" />
      <path
         id="path176"
         d="m 4016.7,4226.6 c 42,-59 82.2,-120.5 105.7,-189.1 5.1,-14.9 9.5,-30.8 6.5,-46.3 -3,-15.5 -15.4,-30.2 -31.2,-30.7 -15.5,-0.5 -28.1,11.9 -38,23.9 -51.1,61.8 -86.1,136.8 -100.9,215.6 16.6,8.7 33.1,17.4 57.9,26.6"
         style="fill:#ffffff;fill-opacity:1;fill-rule:nonzero;stroke:none"
         transform="matrix(0.13333333,0,0,-0.13333333,0,666.66667)" />
      <path
         id="path177"
         d="m 4016.7,4226.6 c 42,-59 82.2,-120.5 105.7,-189.1 5.1,-14.9 9.5,-30.8 6.5,-46.3 -3,-15.5 -15.4,-30.2 -31.2,-30.7 -15.5,-0.5 -28.1,11.9 -38,23.9 -51.1,61.8 -86.1,136.8 -100.9,215.6 16.6,8.7 33.1,17.4 57.9,26.6 z"
         style="fill:none;stroke:#231f20;stroke-width:20;stroke-linecap:round;stroke-linejoin:round;stroke-miterlimit:10;stroke-dasharray:none;stroke-opacity:1"
         transform="matrix(0.13333333,0,0,-0.13333333,0,666.66667)" />
      <path
         id="path178"
         d="m 3917.65,4353.11 c 56.8,24.34 117.98,8.76 136.64,-34.81 18.66,-43.55 -12.27,-98.59 -69.08,-122.93 -56.8,-24.33 -117.97,-8.75 -136.64,34.81 -18.66,43.55 12.27,98.59 69.08,122.93"
         style="fill:#ffffff;fill-opacity:1;fill-rule:nonzero;stroke:none"
         transform="matrix(0.13333333,0,0,-0.13333333,0,666.66667)" />
      <path
         id="path179"
         d="m 3917.65,4353.11 c 56.8,24.34 117.98,8.76 136.64,-34.81 18.66,-43.55 -12.27,-98.59 -69.08,-122.93 -56.8,-24.33 -117.97,-8.75 -136.64,34.81 -18.66,43.55 12.27,98.59 69.08,122.93 z"
         style="fill:none;stroke:#231f20;stroke-width:20;stroke-linecap:round;stroke-linejoin:round;stroke-miterlimit:10;stroke-dasharray:none;stroke-opacity:1"
         transform="matrix(0.13333333,0,0,-0.13333333,0,666.66667)" />
      <path
         id="path180"
         d="m 3979.3,574.398 c 39,28.5 85.9,48.102 80.5,77.403 -7.5,40.898 -125.4,16.301 -147.1,-18.801 -1.7,33.602 37.1,112.5 -3,130.301 C 3860.9,785 3814.8,699 3823.2,641 c -31.3,53.602 -116.5,79.801 -130.5,50.602 -14.9,-31 36.2,-74.903 43.9,-119.602"
         style="fill:#ffffff;fill-opacity:1;fill-rule:nonzero;stroke:#231f20;stroke-width:20;stroke-linecap:round;stroke-linejoin:round;stroke-miterlimit:10;stroke-dasharray:none;stroke-opacity:1"
         transform="matrix(0.13333333,0,0,-0.13333333,0,666.66667)" />
      <path
         id="path181"
         d="m 529.801,202.602 c 30,37.796 70.101,69.097 57.203,95.898 C 568.902,336 461.801,281 450.098,241.402 c -10.594,31.899 6,118.399 -37.399,124.899 -52.797,8 -74.5,-87.102 -51,-140.801 -44.398,43.402 -133.5,46.102 -139.297,14.199 -6.101,-33.801 54.7,-62.597 74,-103.699"
         style="fill:#ffffff;fill-opacity:1;fill-rule:nonzero;stroke:#231f20;stroke-width:20;stroke-linecap:round;stroke-linejoin:round;stroke-miterlimit:10;stroke-dasharray:none;stroke-opacity:1"
         transform="matrix(0.13333333,0,0,-0.13333333,0,666.66667)" />
      <path
         id="path182"
         d="m 3005.3,532 c 33.1,32.199 74.8,56.602 66.3,84.301 C 3059.6,655 2952,617.5 2935.8,581 c -5.7,32.301 21.3,113.301 -18.4,125.898 -48.4,15.301 -81.4,-73.296 -66.5,-128.5 -35.8,48.301 -118.9,63.704 -128.5,33.801 -10.2,-31.801 42.9,-68.297 55.6,-110.699"
         style="fill:#ffffff;fill-opacity:1;fill-rule:nonzero;stroke:#231f20;stroke-width:20;stroke-linecap:round;stroke-linejoin:round;stroke-miterlimit:10;stroke-dasharray:none;stroke-opacity:1"
         transform="matrix(0.13333333,0,0,-0.13333333,0,666.66667)" />
      <path
         id="path183"
         d="m 4516.2,162.5 c -15.9,23.902 -65.1,69.5 -49.8,93.5 19.1,29.898 95.2,3.602 125.7,-43.301 -69.5,156.403 70.7,202.801 108.2,7.699 20.9,48.204 89.1,92.903 114,58 16.7,-23.296 -21.7,-77.699 -53,-146"
         style="fill:#ffffff;fill-opacity:1;fill-rule:nonzero;stroke:#231f20;stroke-width:20;stroke-linecap:round;stroke-linejoin:round;stroke-miterlimit:10;stroke-dasharray:none;stroke-opacity:1"
         transform="matrix(0.13333333,0,0,-0.13333333,0,666.66667)" />
      <path
         id="path184"
         d="m 4343.3,717.699 c -11.4,19.5 -48.7,58.602 -34.5,75.403 17.7,20.8 78.5,-6.204 100.3,-44.602 -46.3,124.801 72.2,146.602 89.5,-4.398 20.5,34.398 79.7,61.796 97.7,33.097 C 4608.4,758 4573.1,720.5 4542.6,671.898"
         style="fill:#ffffff;fill-opacity:1;fill-rule:nonzero;stroke:#231f20;stroke-width:20;stroke-linecap:round;stroke-linejoin:round;stroke-miterlimit:10;stroke-dasharray:none;stroke-opacity:1"
         transform="matrix(0.13333333,0,0,-0.13333333,0,666.66667)" />
      <path
         id="path185"
         d="M 2412.7,94.6016 C 2394.8,117 2341.9,158.301 2355.1,183.5 c 16.4,31.398 94.5,11.801 128.9,-32.398 -82.6,149.898 53.2,208.097 107.2,16.898 16.7,49.801 80.8,100.102 108.7,67.5 18.6,-21.801 -15,-79.301 -40.4,-150"
         style="fill:#ffffff;fill-opacity:1;fill-rule:nonzero;stroke:#231f20;stroke-width:20;stroke-linecap:round;stroke-linejoin:round;stroke-miterlimit:10;stroke-dasharray:none;stroke-opacity:1"
         transform="matrix(0.13333333,0,0,-0.13333333,0,666.66667)" />
      <path
         id="path186"
         d="m 193.398,624.301 c -24.398,15.097 -88.199,36 -84.296,64.199 4.8,35.102 85,43 132.199,13.102 -128.403,113.199 -20.403,213.898 95.101,52.097 -1.105,52.5 42.196,121.602 79.399,100.301 24.898,-14.199 12.699,-79.699 12.699,-154.801"
         style="fill:#ffffff;fill-opacity:1;fill-rule:nonzero;stroke:#231f20;stroke-width:20;stroke-linecap:round;stroke-linejoin:round;stroke-miterlimit:10;stroke-dasharray:none;stroke-opacity:1"
         transform="matrix(0.13333333,0,0,-0.13333333,0,666.66667)" />
    </g>
  </g>
</svg>
