<?xml version="1.0" encoding="UTF-8" standalone="no"?>
<!-- Created with Inkscape (http://www.inkscape.org/) -->

<svg
   version="1.1"
   id="svg1"
   width="666.66669"
   height="666.66669"
   viewBox="0 0 666.66669 666.66669"
   sodipodi:docname="05.eps"
   xmlns:inkscape="http://www.inkscape.org/namespaces/inkscape"
   xmlns:sodipodi="http://sodipodi.sourceforge.net/DTD/sodipodi-0.dtd"
   xmlns="http://www.w3.org/2000/svg"
   xmlns:svg="http://www.w3.org/2000/svg">
  <defs
     id="defs1" />
  <sodipodi:namedview
     id="namedview1"
     pagecolor="#ffffff"
     bordercolor="#000000"
     borderopacity="0.25"
     inkscape:showpageshadow="2"
     inkscape:pageopacity="0.0"
     inkscape:pagecheckerboard="0"
     inkscape:deskcolor="#d1d1d1">
    <inkscape:page
       x="0"
       y="0"
       inkscape:label="1"
       id="page1"
       width="666.66669"
       height="666.66669"
       margin="0"
       bleed="0" />
  </sodipodi:namedview>
  <g
     id="g1"
     inkscape:groupmode="layer"
     inkscape:label="1">
    <g
       id="group-R5">
      <path
         id="path2"
         d="M 5000,0 H 0 V 5000 H 5000 V 0"
         style="fill:#ffffff;fill-opacity:1;fill-rule:nonzero;stroke:none"
         transform="matrix(0.13333333,0,0,-0.13333333,0,666.66667)" />
      <path
         id="path3"
         d="m 1316.35,3236.94 c 0,0 -40.33,-60.12 21.5,-170.12 61.83,-110 374.69,-81.55 686.59,85.06 311.91,166.61 451.91,357 463.57,440.97 11.67,83.97 -88.33,163.72 -145,174.68 0,0 -138.33,-227.57 -480,-389.97 -341.66,-162.4 -546.66,-140.62 -546.66,-140.62"
         style="fill:#ffffff;fill-opacity:1;fill-rule:nonzero;stroke:none"
         transform="matrix(0.13333333,0,0,-0.13333333,0,666.66667)" />
      <path
         id="path4"
         d="m 1316.35,3236.94 c 0,0 -40.33,-60.12 21.5,-170.12 61.83,-110 374.69,-81.55 686.59,85.06 311.91,166.61 451.91,357 463.57,440.97 11.67,83.97 -88.33,163.72 -145,174.68 0,0 -138.33,-227.57 -480,-389.97 -341.66,-162.4 -546.66,-140.62 -546.66,-140.62 z"
         style="fill:none;stroke:#040606;stroke-width:14;stroke-linecap:round;stroke-linejoin:round;stroke-miterlimit:10;stroke-dasharray:none;stroke-opacity:1"
         transform="matrix(0.13333333,0,0,-0.13333333,0,666.66667)" />
      <path
         id="path5"
         d="m 1263.01,3333.49 c 0,0 -43.59,-56.43 -24.29,-96.55 19.29,-40.12 68.29,-25.12 68.29,-25.12 0,0 -17.66,-41.66 30.84,-48.33 48.5,-6.67 51.83,25 51.83,25 0,0 26.67,-75 105,-58.33 78.33,16.66 91.41,76.66 91.41,76.66 0,0 21.92,-23.33 55.26,-8.33 33.33,15 31.66,53.33 31.66,53.33 0,0 18.34,-21.42 46.67,-14.88 28.33,6.55 38.33,38.22 38.33,38.22 0,0 43.34,-58.34 133.34,-25 90,33.33 81.33,110 81.33,110 0,0 23.2,-15 51.76,0 28.57,15 20.24,53.33 20.24,53.33 0,0 26.67,-20 51.67,-13.33 25,6.66 28.33,43.33 28.33,43.33 0,0 56.67,-15 85,18.33 28.33,33.34 10,85 10,85 0,0 26.67,-13.33 41.67,0 15,13.34 0,46.03 0,46.03 0,0 43.33,-16.03 71.66,7.31 28.34,23.33 8.34,70 8.34,70 0,0 41.66,6.66 50,53.33 8.33,46.67 -36.67,53.33 -36.67,53.33 0,0 55.39,26.67 37.69,81.67 -17.69,55 -101.02,33.33 -101.02,33.33 0,0 -46.67,-308.33 -416.67,-466.66 -370,-158.34 -611.67,-91.67 -611.67,-91.67"
         style="fill:#ffffff;fill-opacity:1;fill-rule:nonzero;stroke:none"
         transform="matrix(0.13333333,0,0,-0.13333333,0,666.66667)" />
      <path
         id="path6"
         d="m 1263.01,3333.49 c 0,0 -43.59,-56.43 -24.29,-96.55 19.29,-40.12 68.29,-25.12 68.29,-25.12 0,0 -17.66,-41.66 30.84,-48.33 48.5,-6.67 51.83,25 51.83,25 0,0 26.67,-75 105,-58.33 78.33,16.66 91.41,76.66 91.41,76.66 0,0 21.92,-23.33 55.26,-8.33 33.33,15 31.66,53.33 31.66,53.33 0,0 18.34,-21.42 46.67,-14.88 28.33,6.55 38.33,38.22 38.33,38.22 0,0 43.34,-58.34 133.34,-25 90,33.33 81.33,110 81.33,110 0,0 23.2,-15 51.76,0 28.57,15 20.24,53.33 20.24,53.33 0,0 26.67,-20 51.67,-13.33 25,6.66 28.33,43.33 28.33,43.33 0,0 56.67,-15 85,18.33 28.33,33.34 10,85 10,85 0,0 26.67,-13.33 41.67,0 15,13.34 0,46.03 0,46.03 0,0 43.33,-16.03 71.66,7.31 28.34,23.33 8.34,70 8.34,70 0,0 41.66,6.66 50,53.33 8.33,46.67 -36.67,53.33 -36.67,53.33 0,0 55.39,26.67 37.69,81.67 -17.69,55 -101.02,33.33 -101.02,33.33 0,0 -46.67,-308.33 -416.67,-466.66 -370,-158.34 -611.67,-91.67 -611.67,-91.67 z"
         style="fill:none;stroke:#040606;stroke-width:14;stroke-linecap:round;stroke-linejoin:round;stroke-miterlimit:10;stroke-dasharray:none;stroke-opacity:1"
         transform="matrix(0.13333333,0,0,-0.13333333,0,666.66667)" />
      <path
         id="path7"
         d="m 1259.68,3436.82 c -26.67,-31.66 -38.33,-105 30,-170 68.33,-65 316.67,-20 586.67,96.67 270,116.67 435,340 445,420 10,80 -27.52,163.41 -111.67,165.27 0,0 -155.61,-178.6 -440.37,-333.6 -284.77,-155 -509.63,-178.34 -509.63,-178.34"
         style="fill:#ffffff;fill-opacity:1;fill-rule:nonzero;stroke:none"
         transform="matrix(0.13333333,0,0,-0.13333333,0,666.66667)" />
      <path
         id="path8"
         d="m 1259.68,3436.82 c -26.67,-31.66 -38.33,-105 30,-170 68.33,-65 316.67,-20 586.67,96.67 270,116.67 435,340 445,420 10,80 -27.52,163.41 -111.67,165.27 0,0 -155.61,-178.6 -440.37,-333.6 -284.77,-155 -509.63,-178.34 -509.63,-178.34 z"
         style="fill:none;stroke:#040606;stroke-width:14;stroke-linecap:round;stroke-linejoin:round;stroke-miterlimit:10;stroke-dasharray:none;stroke-opacity:1"
         transform="matrix(0.13333333,0,0,-0.13333333,0,666.66667)" />
      <path
         id="path9"
         d="m 1151.35,3563.49 c -1.67,-5 -38.34,-131.67 0,-296.67 0,0 180,185 410,206.67 230,21.67 371.66,-43.33 371.66,-43.33 0,0 61.67,264.33 131.67,366.33 70,102 340,236.99 340,236.99 0,0 -91.67,99.37 -275,98.02 0,0 -107.63,-228.01 -441.32,-384.68 -333.68,-156.66 -537.01,-183.33 -537.01,-183.33"
         style="fill:#ffffff;fill-opacity:1;fill-rule:nonzero;stroke:none"
         transform="matrix(0.13333333,0,0,-0.13333333,0,666.66667)" />
      <path
         id="path10"
         d="m 1151.35,3563.49 c -1.67,-5 -38.34,-131.67 0,-296.67 0,0 180,185 410,206.67 230,21.67 371.66,-43.33 371.66,-43.33 0,0 61.67,264.33 131.67,366.33 70,102 340,236.99 340,236.99 0,0 -91.67,99.37 -275,98.02 0,0 -107.63,-228.01 -441.32,-384.68 -333.68,-156.66 -537.01,-183.33 -537.01,-183.33 z"
         style="fill:none;stroke:#040606;stroke-width:14;stroke-linecap:round;stroke-linejoin:round;stroke-miterlimit:10;stroke-dasharray:none;stroke-opacity:1"
         transform="matrix(0.13333333,0,0,-0.13333333,0,666.66667)" />
      <path
         id="path11"
         d="m 1143.46,3540.16 c -9.07,0.91 44.81,-186.67 283.01,-160 238.21,26.66 261.89,276.66 261.89,276.66 0,0 -247.78,-146.66 -544.9,-116.66"
         style="fill:#ffffff;fill-opacity:1;fill-rule:nonzero;stroke:none"
         transform="matrix(0.13333333,0,0,-0.13333333,0,666.66667)" />
      <path
         id="path12"
         d="m 1143.46,3540.16 c -9.07,0.91 44.81,-186.67 283.01,-160 238.21,26.66 261.89,276.66 261.89,276.66 0,0 -247.78,-146.66 -544.9,-116.66 z"
         style="fill:none;stroke:#040606;stroke-width:14;stroke-linecap:round;stroke-linejoin:round;stroke-miterlimit:10;stroke-dasharray:none;stroke-opacity:1"
         transform="matrix(0.13333333,0,0,-0.13333333,0,666.66667)" />
      <path
         id="path13"
         d="m 1767.3,3677.96 c -6.13,-3.11 161.83,-109.98 312.5,17.87 170.74,144.87 77,327.49 31.45,363.33 0,0 -75.87,-245.42 -343.95,-381.2"
         style="fill:#ffffff;fill-opacity:1;fill-rule:nonzero;stroke:none"
         transform="matrix(0.13333333,0,0,-0.13333333,0,666.66667)" />
      <path
         id="path14"
         d="m 1767.3,3677.96 c -6.13,-3.11 161.83,-109.98 312.5,17.87 170.74,144.87 77,327.49 31.45,363.33 0,0 -75.87,-245.42 -343.95,-381.2 z"
         style="fill:none;stroke:#040606;stroke-width:14;stroke-linecap:round;stroke-linejoin:round;stroke-miterlimit:10;stroke-dasharray:none;stroke-opacity:1"
         transform="matrix(0.13333333,0,0,-0.13333333,0,666.66667)" />
      <path
         id="path15"
         d="m 1384.68,4308.48 c 333.33,156.68 660,96.68 746.67,-36.66 86.66,-133.34 83.33,-400 -386.67,-633.33 -431.28,-214.11 -640,-170 -723.33,16.67 -83.338,186.66 52.96,507.45 363.33,653.32"
         style="fill:#ffffff;fill-opacity:1;fill-rule:nonzero;stroke:none"
         transform="matrix(0.13333333,0,0,-0.13333333,0,666.66667)" />
      <path
         id="path16"
         d="m 1384.68,4308.48 c 333.33,156.68 660,96.68 746.67,-36.66 86.66,-133.34 83.33,-400 -386.67,-633.33 -431.28,-214.11 -640,-170 -723.33,16.67 -83.338,186.66 52.96,507.45 363.33,653.32 z"
         style="fill:none;stroke:#040606;stroke-width:14;stroke-linecap:round;stroke-linejoin:round;stroke-miterlimit:10;stroke-dasharray:none;stroke-opacity:1"
         transform="matrix(0.13333333,0,0,-0.13333333,0,666.66667)" />
      <path
         id="path17"
         d="m 1296.73,4150 c 32.24,-14.11 -20.03,-64.38 -38.62,-50.07 -18.6,14.3 15.73,60.08 38.62,50.07 z"
         style="fill:none;stroke:#040606;stroke-width:14;stroke-linecap:round;stroke-linejoin:round;stroke-miterlimit:10;stroke-dasharray:none;stroke-opacity:1"
         transform="matrix(0.13333333,0,0,-0.13333333,0,666.66667)" />
      <path
         id="path18"
         d="m 1536.99,4277.27 c 27.64,-21.78 -35.61,-57.25 -50,-38.72 -14.39,18.53 30.37,54.18 50,38.72 z"
         style="fill:none;stroke:#040606;stroke-width:14;stroke-linecap:round;stroke-linejoin:round;stroke-miterlimit:10;stroke-dasharray:none;stroke-opacity:1"
         transform="matrix(0.13333333,0,0,-0.13333333,0,666.66667)" />
      <path
         id="path19"
         d="m 1158.83,3965.12 c 32.97,-12.3 -16.45,-65.38 -35.81,-52.12 -19.35,13.26 12.4,60.86 35.81,52.12 z"
         style="fill:none;stroke:#040606;stroke-width:14;stroke-linecap:round;stroke-linejoin:round;stroke-miterlimit:10;stroke-dasharray:none;stroke-opacity:1"
         transform="matrix(0.13333333,0,0,-0.13333333,0,666.66667)" />
      <path
         id="path20"
         d="m 1473.26,4103.41 c 31.08,-16.51 -24.85,-62.68 -42.31,-47 -17.46,15.67 20.25,58.72 42.31,47 z"
         style="fill:none;stroke:#040606;stroke-width:14;stroke-linecap:round;stroke-linejoin:round;stroke-miterlimit:10;stroke-dasharray:none;stroke-opacity:1"
         transform="matrix(0.13333333,0,0,-0.13333333,0,666.66667)" />
      <path
         id="path21"
         d="m 1104.15,3796.04 c 34.23,-8.14 -8.25,-66.92 -29.09,-56.16 -20.85,10.77 4.78,61.93 29.09,56.16 z"
         style="fill:none;stroke:#040606;stroke-width:14;stroke-linecap:round;stroke-linejoin:round;stroke-miterlimit:10;stroke-dasharray:none;stroke-opacity:1"
         transform="matrix(0.13333333,0,0,-0.13333333,0,666.66667)" />
      <path
         id="path22"
         d="m 1679.14,4129.5 c 31.07,-16.5 -24.85,-62.67 -42.31,-47 -17.46,15.68 20.24,58.72 42.31,47 z"
         style="fill:none;stroke:#040606;stroke-width:14;stroke-linecap:round;stroke-linejoin:round;stroke-miterlimit:10;stroke-dasharray:none;stroke-opacity:1"
         transform="matrix(0.13333333,0,0,-0.13333333,0,666.66667)" />
      <path
         id="path23"
         d="m 1768.05,4274.66 c 24.78,-24.98 -42.33,-52.48 -54.35,-32.32 -12.03,20.14 36.75,50.06 54.35,32.32 z"
         style="fill:none;stroke:#040606;stroke-width:14;stroke-linecap:round;stroke-linejoin:round;stroke-miterlimit:10;stroke-dasharray:none;stroke-opacity:1"
         transform="matrix(0.13333333,0,0,-0.13333333,0,666.66667)" />
      <path
         id="path24"
         d="m 1363.24,3955.49 c 24.78,-24.99 -42.33,-52.48 -54.35,-32.33 -12.02,20.15 36.75,50.06 54.35,32.33 z"
         style="fill:none;stroke:#040606;stroke-width:14;stroke-linecap:round;stroke-linejoin:round;stroke-miterlimit:10;stroke-dasharray:none;stroke-opacity:1"
         transform="matrix(0.13333333,0,0,-0.13333333,0,666.66667)" />
      <path
         id="path25"
         d="m 1940.47,4329.15 c 13.08,-32.66 -59.43,-31.84 -62.65,-8.6 -3.22,23.24 53.36,31.79 62.65,8.6 z"
         style="fill:none;stroke:#040606;stroke-width:14;stroke-linecap:round;stroke-linejoin:round;stroke-miterlimit:10;stroke-dasharray:none;stroke-opacity:1"
         transform="matrix(0.13333333,0,0,-0.13333333,0,666.66667)" />
      <path
         id="path26"
         d="m 2084.22,4226.59 c 20.45,-28.63 -50.19,-45.02 -58.83,-23.21 -8.64,21.82 44.3,43.54 58.83,23.21 z"
         style="fill:none;stroke:#040606;stroke-width:14;stroke-linecap:round;stroke-linejoin:round;stroke-miterlimit:10;stroke-dasharray:none;stroke-opacity:1"
         transform="matrix(0.13333333,0,0,-0.13333333,0,666.66667)" />
      <path
         id="path27"
         d="m 1353.18,3842.57 c 0,0 66.71,30.35 146.58,29.34 0,0 -50.13,-26.01 -105.13,-97.68"
         style="fill:none;stroke:#040606;stroke-width:20;stroke-linecap:round;stroke-linejoin:round;stroke-miterlimit:10;stroke-dasharray:none;stroke-opacity:1"
         transform="matrix(0.13333333,0,0,-0.13333333,0,666.66667)" />
      <path
         id="path28"
         d="m 1871.02,4138.91 c 0,0 -56.35,-46.86 -90.2,-119.21 0,0 45.23,33.82 133.69,52.16"
         style="fill:none;stroke:#040606;stroke-width:20;stroke-linecap:round;stroke-linejoin:round;stroke-miterlimit:10;stroke-dasharray:none;stroke-opacity:1"
         transform="matrix(0.13333333,0,0,-0.13333333,0,666.66667)" />
      <path
         id="path29"
         d="m 1544.68,3896.05 c 0,0 3.9,0.81 10.7,2.7 10.4,2.91 27.5,8.2 47.7,16.81 23.4,9.89 50.9,24.29 76.5,44.2 11.6,9.1 22.9,19.4 32.9,31 5.6,6.1 10.7,12.6 15.5,19.4"
         style="fill:none;stroke:#040606;stroke-width:14;stroke-linecap:round;stroke-linejoin:round;stroke-miterlimit:10;stroke-dasharray:none;stroke-opacity:1"
         transform="matrix(0.13333333,0,0,-0.13333333,0,666.66667)" />
      <path
         id="path30"
         d="m 1597.98,3860.16 c -12.8,-2.1 -31,21.39 -42.6,38.59 10.4,2.91 27.5,8.2 47.7,16.81 4.2,-22.41 7.6,-53.3 -5.1,-55.4 z"
         style="fill:none;stroke:#040606;stroke-width:14;stroke-linecap:round;stroke-linejoin:round;stroke-miterlimit:10;stroke-dasharray:none;stroke-opacity:1"
         transform="matrix(0.13333333,0,0,-0.13333333,0,666.66667)" />
      <path
         id="path31"
         d="m 1727.98,3938.55 c -9.9,-5 -32.1,9.11 -48.4,21.21 11.6,9.1 22.9,19.4 32.9,31 12.5,-21.31 25.1,-47.41 15.5,-52.21 z"
         style="fill:none;stroke:#040606;stroke-width:14;stroke-linecap:round;stroke-linejoin:round;stroke-miterlimit:10;stroke-dasharray:none;stroke-opacity:1"
         transform="matrix(0.13333333,0,0,-0.13333333,0,666.66667)" />
      <path
         id="path32"
         d="m 1426.47,3738.57 c 18.21,-30.08 -54.78,-68.41 -73.29,-46.75 -18.5,21.67 55.09,76.84 73.29,46.75 z"
         style="fill:none;stroke:#040606;stroke-width:14;stroke-linecap:round;stroke-linejoin:round;stroke-miterlimit:10;stroke-dasharray:none;stroke-opacity:1"
         transform="matrix(0.13333333,0,0,-0.13333333,0,666.66667)" />
      <path
         id="path33"
         d="m 2021.55,4088.61 c 18.21,-30.08 -54.78,-68.41 -73.29,-46.75 -18.5,21.67 55.08,76.84 73.29,46.75 z"
         style="fill:none;stroke:#040606;stroke-width:14;stroke-linecap:round;stroke-linejoin:round;stroke-miterlimit:10;stroke-dasharray:none;stroke-opacity:1"
         transform="matrix(0.13333333,0,0,-0.13333333,0,666.66667)" />
      <path
         id="path34"
         d="m 3773.43,4309.82 c -17.6,-157 -58.51,-305.3 -108.3,-437.3 -65.4,-173.2 -146.11,-318.4 -209.41,-418.9 -27.5,-43.8 -51.7,-79 -69.89,-104.5 -21.6,-30.3 -56.5,-48.3 -93.6,-48.4 -255.9,-0.3 -464.7,85.4 -556.3,130.1 -32.4,15.9 -55.3,46.1 -62.31,81.5 -25.09,127.9 -31.09,270.9 -27.19,408.3 6.1,213.2 35.99,413.1 55.3,522.8 9.7,55.1 16.7,87.5 16.7,87.5 405,-281.4 1055,-221.1 1055,-221.1 z"
         style="fill:none;stroke:#040606;stroke-width:14;stroke-linecap:round;stroke-linejoin:round;stroke-miterlimit:10;stroke-dasharray:none;stroke-opacity:1"
         transform="matrix(0.13333333,0,0,-0.13333333,0,666.66667)" />
      <path
         id="path35"
         d="m 3773.43,4337.32 c 0,0 32.5,72.5 20,115 -12.5,42.5 -277.5,152.5 -545,212.5 -267.5,60 -475,42.5 -497.5,0 -22.5,-42.5 -17.5,-92.5 -17.5,-92.5 0,0 -50,-8.78 -32.5,-51.89 17.5,-43.11 275,-163.11 527.5,-208.11 252.5,-45 540.72,-50 567.86,-20 27.14,30 -22.86,45 -22.86,45"
         style="fill:#ffffff;fill-opacity:1;fill-rule:nonzero;stroke:none"
         transform="matrix(0.13333333,0,0,-0.13333333,0,666.66667)" />
      <path
         id="path36"
         d="m 3773.43,4337.32 c 0,0 32.5,72.5 20,115 -12.5,42.5 -277.5,152.5 -545,212.5 -267.5,60 -475,42.5 -497.5,0 -22.5,-42.5 -17.5,-92.5 -17.5,-92.5 0,0 -50,-8.78 -32.5,-51.89 17.5,-43.11 275,-163.11 527.5,-208.11 252.5,-45 540.72,-50 567.86,-20 27.14,30 -22.86,45 -22.86,45 z"
         style="fill:none;stroke:#040606;stroke-width:14;stroke-linecap:round;stroke-linejoin:round;stroke-miterlimit:10;stroke-dasharray:none;stroke-opacity:1"
         transform="matrix(0.13333333,0,0,-0.13333333,0,666.66667)" />
      <path
         id="path37"
         d="m 2745.93,4547.32 c 0,0 195,-112.5 470,-177.5 275,-65 522.5,-40 522.5,-40"
         style="fill:none;stroke:#040606;stroke-width:14;stroke-linecap:round;stroke-linejoin:round;stroke-miterlimit:10;stroke-dasharray:none;stroke-opacity:1"
         transform="matrix(0.13333333,0,0,-0.13333333,0,666.66667)" />
      <path
         id="path38"
         d="m 2773.43,4652.32 c -2.5,-27.5 127.21,-130 477.35,-200 350.15,-70 515.15,-42.5 522.65,0"
         style="fill:none;stroke:#040606;stroke-width:14;stroke-linecap:round;stroke-linejoin:round;stroke-miterlimit:10;stroke-dasharray:none;stroke-opacity:1"
         transform="matrix(0.13333333,0,0,-0.13333333,0,666.66667)" />
      <path
         id="path39"
         d="m 3210.93,4572.32 c -2.41,-17.51 87.5,-40 117.5,-25 30,15 30,170 62.5,200 32.5,30 162.5,42.5 175,62.5 12.5,20 -12.5,105 -30,110 -17.5,5 -160,-30 -215,-57.5 -55,-27.5 -100,-217.5 -110,-290"
         style="fill:#ffffff;fill-opacity:1;fill-rule:nonzero;stroke:none"
         transform="matrix(0.13333333,0,0,-0.13333333,0,666.66667)" />
      <path
         id="path40"
         d="m 3210.93,4572.32 c -2.41,-17.51 87.5,-40 117.5,-25 30,15 30,170 62.5,200 32.5,30 162.5,42.5 175,62.5 12.5,20 -12.5,105 -30,110 -17.5,5 -160,-30 -215,-57.5 -55,-27.5 -100,-217.5 -110,-290 z"
         style="fill:none;stroke:#040606;stroke-width:14;stroke-linecap:round;stroke-linejoin:round;stroke-miterlimit:10;stroke-dasharray:none;stroke-opacity:1"
         transform="matrix(0.13333333,0,0,-0.13333333,0,666.66667)" />
      <path
         id="path41"
         d="m 3665.13,3872.52 c -65.4,-173.2 -146.11,-318.4 -209.41,-418.9 -456.59,90.7 -699.2,323.7 -809.29,467 6.1,213.2 35.99,413.1 55.3,522.8 258.7,-298.7 757.4,-498 963.4,-570.9 z"
         style="fill:none;stroke:#040606;stroke-width:14;stroke-linecap:round;stroke-linejoin:round;stroke-miterlimit:10;stroke-dasharray:none;stroke-opacity:1"
         transform="matrix(0.13333333,0,0,-0.13333333,0,666.66667)" />
      <path
         id="path42"
         d="m 2966.66,4131.33 c 40.84,-12.95 20.51,-110.08 -22.47,-103.66 -42.99,6.43 -18.38,116.62 22.47,103.66"
         style="fill:#040606;fill-opacity:1;fill-rule:nonzero;stroke:none"
         transform="matrix(0.13333333,0,0,-0.13333333,0,666.66667)" />
      <path
         id="path43"
         d="m 3384.99,4033 c 40.84,-12.96 20.51,-110.08 -22.47,-103.66 -42.99,6.42 -18.38,116.61 22.47,103.66"
         style="fill:#040606;fill-opacity:1;fill-rule:nonzero;stroke:none"
         transform="matrix(0.13333333,0,0,-0.13333333,0,666.66667)" />
      <path
         id="path44"
         d="m 3300.93,3991.22 c -8.8,-1.6 -17.31,-2.8 -25.61,-3.8 -30.4,-3.7 -57.9,-3.8 -82.5,-1.4 -105.9,9.9 -158.59,63.8 -158.59,63.8"
         style="fill:none;stroke:#040606;stroke-width:14;stroke-linecap:round;stroke-linejoin:round;stroke-miterlimit:10;stroke-dasharray:none;stroke-opacity:1"
         transform="matrix(0.13333333,0,0,-0.13333333,0,666.66667)" />
      <path
         id="path45"
         d="m 3232.63,3884.82 c -45.4,0 -42.71,70.6 -39.81,101.2 24.6,-2.4 52.1,-2.3 82.5,1.4 1.01,-39 -3.4,-102.6 -42.69,-102.6 z"
         style="fill:none;stroke:#040606;stroke-width:14;stroke-linecap:round;stroke-linejoin:round;stroke-miterlimit:10;stroke-dasharray:none;stroke-opacity:1"
         transform="matrix(0.13333333,0,0,-0.13333333,0,666.66667)" />
      <path
         id="path46"
         d="m 3233.44,3984.45 v -55.42"
         style="fill:none;stroke:#040606;stroke-width:14;stroke-linecap:round;stroke-linejoin:round;stroke-miterlimit:10;stroke-dasharray:none;stroke-opacity:1"
         transform="matrix(0.13333333,0,0,-0.13333333,0,666.66667)" />
      <path
         id="path47"
         d="m 2819.26,4034.05 c 18.34,35.77 105,-6.51 93.34,-42.87 -11.67,-36.36 -111.67,7.11 -93.34,42.87 z"
         style="fill:none;stroke:#040606;stroke-width:14;stroke-linecap:round;stroke-linejoin:round;stroke-miterlimit:10;stroke-dasharray:none;stroke-opacity:1"
         transform="matrix(0.13333333,0,0,-0.13333333,0,666.66667)" />
      <path
         id="path48"
         d="m 3358.77,3882.28 c 13.75,37.76 104.99,6.56 97.93,-30.96 -7.06,-37.53 -111.69,-6.8 -97.93,30.96 z"
         style="fill:none;stroke:#040606;stroke-width:14;stroke-linecap:round;stroke-linejoin:round;stroke-miterlimit:10;stroke-dasharray:none;stroke-opacity:1"
         transform="matrix(0.13333333,0,0,-0.13333333,0,666.66667)" />
      <path
         id="path49"
         d="m 4148.5,2393.83 c -340,-190 -777.5,-275 -832.5,-270 -3.01,0.3 -6.21,0.7 -9.6,1.2 -49.01,7.61 -141.61,41.1 -209.81,84.31 -15,9.39 -28.7,19.29 -40.59,29.49 -13.51,11.6 -25.61,24.8 -35.71,41.1 -42.4,68 -50,188.51 20.1,458.9 5.1,19.6 10.3,38.8 15.61,57.41 36.89,129.19 78.29,233.59 113.39,310.49 44.9,98.1 79.51,151.4 81.5,154.51 0.11,0.09 0.11,0.09 0.11,0.09 -142.5,37.5 -75,222.5 9.39,281.5 84.4,59 198.8,26 233.11,0 34.29,-26 245,-19 308.7,-42.3 63.8,-23.4 108.8,-31.7 231.3,-79.2 122.5,-47.5 202.5,-110 240,-136.59 19.89,-14.11 50.29,-36.71 78.19,-77.21 0.1,-0.1 0.1,-0.1 0.2,-0.2 4.7,-6.8 9.3,-14.1 13.7,-22 0.1,-0.1 0.2,-0.2 0.2,-0.2 19.1,-33.49 35.7,-77 45.21,-133.8 25,-150 75,-170 77.5,-240 2.5,-70 0,-227.5 -340,-417.5"
         style="fill:#ffffff;fill-opacity:1;fill-rule:nonzero;stroke:none"
         transform="matrix(0.13333333,0,0,-0.13333333,0,666.66667)" />
      <path
         id="path50"
         d="m 4148.5,2393.83 c -340,-190 -777.5,-275 -832.5,-270 -3.01,0.3 -6.21,0.7 -9.6,1.2 -49.01,7.61 -141.61,41.1 -209.81,84.31 -15,9.39 -28.7,19.29 -40.59,29.49 -13.51,11.6 -25.61,24.8 -35.71,41.1 -42.4,68 -50,188.51 20.1,458.9 5.1,19.6 10.3,38.8 15.61,57.41 36.89,129.19 78.29,233.59 113.39,310.49 44.9,98.1 79.51,151.4 81.5,154.51 0.11,0.09 0.11,0.09 0.11,0.09 -142.5,37.5 -75,222.5 9.39,281.5 84.4,59 198.8,26 233.11,0 34.29,-26 245,-19 308.7,-42.3 63.8,-23.4 108.8,-31.7 231.3,-79.2 122.5,-47.5 202.5,-110 240,-136.59 19.89,-14.11 50.29,-36.71 78.19,-77.21 0.1,-0.1 0.1,-0.1 0.2,-0.2 4.7,-6.8 9.3,-14.1 13.7,-22 0.1,-0.1 0.2,-0.2 0.2,-0.2 19.1,-33.49 35.7,-77 45.21,-133.8 25,-150 75,-170 77.5,-240 2.5,-70 0,-227.5 -340,-417.5 z"
         style="fill:none;stroke:#040606;stroke-width:14;stroke-linecap:round;stroke-linejoin:round;stroke-miterlimit:10;stroke-dasharray:none;stroke-opacity:1"
         transform="matrix(0.13333333,0,0,-0.13333333,0,666.66667)" />
      <path
         id="path51"
         d="m 3699.53,2836.09 c -50.72,-51.06 -66.02,-137.86 -25.96,-197.65 30.37,-45.31 85.41,-68.66 139.52,-75.63 66.6,-8.59 138.04,5.55 189.76,48.37 51.73,42.82 79.32,116.69 58.15,180.42 -44.12,132.73 -277.29,129.23 -361.47,44.49"
         style="fill:#ffffff;fill-opacity:1;fill-rule:nonzero;stroke:none"
         transform="matrix(0.13333333,0,0,-0.13333333,0,666.66667)" />
      <path
         id="path52"
         d="m 3699.53,2836.09 c -50.72,-51.06 -66.02,-137.86 -25.96,-197.65 30.37,-45.31 85.41,-68.66 139.52,-75.63 66.6,-8.59 138.04,5.55 189.76,48.37 51.73,42.82 79.32,116.69 58.15,180.42 -44.12,132.73 -277.29,129.23 -361.47,44.49 z"
         style="fill:none;stroke:#040606;stroke-width:14;stroke-linecap:round;stroke-linejoin:round;stroke-miterlimit:10;stroke-dasharray:none;stroke-opacity:1"
         transform="matrix(0.13333333,0,0,-0.13333333,0,666.66667)" />
      <path
         id="path53"
         d="m 3184.89,2845.93 c -36.1,-29.89 -81.9,-45.8 -128.89,-49.69 36.89,129.19 78.29,233.59 113.39,310.49 34.3,-16.99 61.3,-43.39 73.6,-80.4 21.2,-63.7 -6.4,-137.59 -58.1,-180.4"
         style="fill:#ffffff;fill-opacity:1;fill-rule:nonzero;stroke:none"
         transform="matrix(0.13333333,0,0,-0.13333333,0,666.66667)" />
      <path
         id="path54"
         d="m 3184.89,2845.93 c -36.1,-29.89 -81.9,-45.8 -128.89,-49.69 36.89,129.19 78.29,233.59 113.39,310.49 34.3,-16.99 61.3,-43.39 73.6,-80.4 21.2,-63.7 -6.4,-137.59 -58.1,-180.4 z"
         style="fill:none;stroke:#040606;stroke-width:14;stroke-linecap:round;stroke-linejoin:round;stroke-miterlimit:10;stroke-dasharray:none;stroke-opacity:1"
         transform="matrix(0.13333333,0,0,-0.13333333,0,666.66667)" />
      <path
         id="path55"
         d="m 3421.77,3274.71 c -50.73,-51.07 -66.03,-137.87 -25.96,-197.66 30.36,-45.32 85.41,-68.66 139.51,-75.63 66.6,-8.59 138.05,5.55 189.77,48.37 51.73,42.82 79.31,116.69 58.13,180.42 -44.11,132.73 -277.27,129.23 -361.45,44.5"
         style="fill:#ffffff;fill-opacity:1;fill-rule:nonzero;stroke:none"
         transform="matrix(0.13333333,0,0,-0.13333333,0,666.66667)" />
      <path
         id="path56"
         d="m 3421.77,3274.71 c -50.73,-51.07 -66.03,-137.87 -25.96,-197.66 30.36,-45.32 85.41,-68.66 139.51,-75.63 66.6,-8.59 138.05,5.55 189.77,48.37 51.73,42.82 79.31,116.69 58.13,180.42 -44.11,132.73 -277.27,129.23 -361.45,44.5 z"
         style="fill:none;stroke:#040606;stroke-width:14;stroke-linecap:round;stroke-linejoin:round;stroke-miterlimit:10;stroke-dasharray:none;stroke-opacity:1"
         transform="matrix(0.13333333,0,0,-0.13333333,0,666.66667)" />
      <path
         id="path57"
         d="m 3149.8,2407.76 c -43.58,-43.86 -56.72,-118.43 -22.3,-169.8 26.08,-38.93 73.38,-58.99 119.85,-64.97 57.22,-7.37 118.6,4.76 163.03,41.55 44.44,36.79 68.15,100.26 49.95,154.99 -37.9,114.03 -238.21,111.03 -310.53,38.23"
         style="fill:#ffffff;fill-opacity:1;fill-rule:nonzero;stroke:none"
         transform="matrix(0.13333333,0,0,-0.13333333,0,666.66667)" />
      <path
         id="path58"
         d="m 3149.8,2407.76 c -43.58,-43.86 -56.72,-118.43 -22.3,-169.8 26.08,-38.93 73.38,-58.99 119.85,-64.97 57.22,-7.37 118.6,4.76 163.03,41.55 44.44,36.79 68.15,100.26 49.95,154.99 -37.9,114.03 -238.21,111.03 -310.53,38.23 z"
         style="fill:none;stroke:#040606;stroke-width:14;stroke-linecap:round;stroke-linejoin:round;stroke-miterlimit:10;stroke-dasharray:none;stroke-opacity:1"
         transform="matrix(0.13333333,0,0,-0.13333333,0,666.66667)" />
      <path
         id="path59"
         d="m 4365.59,3185.33 c -4.19,4.41 -94.9,97.9 -209.59,35.91 -117.5,-63.51 -70,-204.91 -70,-204.91 -220,-20 -302.5,110 -302.5,110 -190,12.5 -282.5,101.7 -282.5,101.7 -77.5,-8.2 -170,3.3 -250,33.3 -142.5,37.5 -75,222.5 9.39,281.5 84.4,59 198.8,26 233.11,0 34.29,-26 245,-19 308.7,-42.3 63.8,-23.4 108.8,-31.7 231.3,-79.2 122.5,-47.5 202.5,-110 240,-136.59 19.89,-14.11 50.29,-36.71 78.19,-77.21 0.1,-0.1 0.1,-0.1 0.2,-0.2 4.7,-6.8 9.3,-14.1 13.7,-22"
         style="fill:#ffffff;fill-opacity:1;fill-rule:nonzero;stroke:none"
         transform="matrix(0.13333333,0,0,-0.13333333,0,666.66667)" />
      <path
         id="path60"
         d="m 4365.59,3185.33 c -4.19,4.41 -94.9,97.9 -209.59,35.91 -117.5,-63.51 -70,-204.91 -70,-204.91 -220,-20 -302.5,110 -302.5,110 -190,12.5 -282.5,101.7 -282.5,101.7 -77.5,-8.2 -170,3.3 -250,33.3 -142.5,37.5 -75,222.5 9.39,281.5 84.4,59 198.8,26 233.11,0 34.29,-26 245,-19 308.7,-42.3 63.8,-23.4 108.8,-31.7 231.3,-79.2 122.5,-47.5 202.5,-110 240,-136.59 19.89,-14.11 50.29,-36.71 78.19,-77.21 0.1,-0.1 0.1,-0.1 0.2,-0.2 4.7,-6.8 9.3,-14.1 13.7,-22 z"
         style="fill:none;stroke:#040606;stroke-width:14;stroke-linecap:round;stroke-linejoin:round;stroke-miterlimit:10;stroke-dasharray:none;stroke-opacity:1"
         transform="matrix(0.13333333,0,0,-0.13333333,0,666.66667)" />
      <path
         id="path61"
         d="m 4148.5,2393.83 c -340,-190 -777.5,-275 -832.5,-270 -55,5 -190,55 -260,115 -13.51,11.6 -25.61,24.8 -35.71,41.1 77,-71.1 345.5,-68.6 831.91,176.4 486.3,245 413.8,356.8 386.3,393.41 -27.5,36.59 -110,49.09 -152.5,166.59 -42.5,117.5 5,195 70,230 65,35 113.89,47.5 195.69,-38.8 0.1,-0.1 0.1,-0.1 0.2,-0.2 24.7,-35.9 47.4,-85.69 59.11,-156 25,-150 75,-170 77.5,-240 2.5,-70 0,-227.5 -340,-417.5"
         style="fill:#ffffff;fill-opacity:1;fill-rule:nonzero;stroke:none"
         transform="matrix(0.13333333,0,0,-0.13333333,0,666.66667)" />
      <path
         id="path62"
         d="m 4148.5,2393.83 c -340,-190 -777.5,-275 -832.5,-270 -55,5 -190,55 -260,115 -13.51,11.6 -25.61,24.8 -35.71,41.1 77,-71.1 345.5,-68.6 831.91,176.4 486.3,245 413.8,356.8 386.3,393.41 -27.5,36.59 -110,49.09 -152.5,166.59 -42.5,117.5 5,195 70,230 65,35 113.89,47.5 195.69,-38.8 0.1,-0.1 0.1,-0.1 0.2,-0.2 24.7,-35.9 47.4,-85.69 59.11,-156 25,-150 75,-170 77.5,-240 2.5,-70 0,-227.5 -340,-417.5 z"
         style="fill:none;stroke:#040606;stroke-width:14;stroke-linecap:round;stroke-linejoin:round;stroke-miterlimit:10;stroke-dasharray:none;stroke-opacity:1"
         transform="matrix(0.13333333,0,0,-0.13333333,0,666.66667)" />
      <path
         id="path63"
         d="m 4106.78,2816.27 c -5.23,-15.96 -6.07,-33.47 0.91,-48.91 6.96,-15.44 22.6,-28.34 41.33,-30.82 17.89,-2.37 36.26,4.96 48.71,16.47 12.46,11.51 19.62,26.71 23.85,42.13 22.17,80.7 -91.04,93.66 -114.8,21.13 z"
         style="fill:none;stroke:#040606;stroke-width:14;stroke-linecap:round;stroke-linejoin:round;stroke-miterlimit:10;stroke-dasharray:none;stroke-opacity:1"
         transform="matrix(0.13333333,0,0,-0.13333333,0,666.66667)" />
      <path
         id="path64"
         d="m 4140.88,2806.49 c -2.09,-6.37 -2.42,-13.37 0.36,-19.53 2.78,-6.17 9.03,-11.32 16.51,-12.31 7.14,-0.95 14.48,1.98 19.45,6.58 4.98,4.59 7.84,10.66 9.53,16.82 8.85,32.23 -36.36,37.4 -45.85,8.44 z"
         style="fill:none;stroke:#040606;stroke-width:14;stroke-linecap:round;stroke-linejoin:round;stroke-miterlimit:10;stroke-dasharray:none;stroke-opacity:1"
         transform="matrix(0.13333333,0,0,-0.13333333,0,666.66667)" />
      <path
         id="path65"
         d="m 3714.5,2998.61 c -8.28,-14.6 -12.57,-31.6 -8.79,-48.11 3.77,-16.52 16.56,-32.26 34.42,-38.4 17.07,-5.86 36.53,-2.31 51.01,6.5 14.48,8.82 24.51,22.31 31.72,36.59 37.69,74.71 -70.71,109.82 -108.36,43.42 z"
         style="fill:none;stroke:#040606;stroke-width:14;stroke-linecap:round;stroke-linejoin:round;stroke-miterlimit:10;stroke-dasharray:none;stroke-opacity:1"
         transform="matrix(0.13333333,0,0,-0.13333333,0,666.66667)" />
      <path
         id="path66"
         d="m 3746,2982.28 c -3.31,-5.83 -5.02,-12.62 -3.52,-19.22 1.5,-6.59 6.61,-12.88 13.75,-15.33 6.82,-2.34 14.58,-0.93 20.37,2.6 5.78,3.52 9.79,8.9 12.67,14.6 15.05,29.85 -28.24,43.86 -43.27,17.35 z"
         style="fill:none;stroke:#040606;stroke-width:14;stroke-linecap:round;stroke-linejoin:round;stroke-miterlimit:10;stroke-dasharray:none;stroke-opacity:1"
         transform="matrix(0.13333333,0,0,-0.13333333,0,666.66667)" />
      <path
         id="path67"
         d="m 3560.38,2499.23 c -11.82,-11.93 -20.4,-27.21 -21.07,-44.13 -0.69,-16.94 7.53,-35.47 23.17,-46.08 14.93,-10.12 34.64,-11.78 50.93,-7.07 16.28,4.73 29.5,15.11 40.18,27.02 55.94,62.24 -39.5,124.5 -93.21,70.26 z"
         style="fill:none;stroke:#040606;stroke-width:14;stroke-linecap:round;stroke-linejoin:round;stroke-miterlimit:10;stroke-dasharray:none;stroke-opacity:1"
         transform="matrix(0.13333333,0,0,-0.13333333,0,666.66667)" />
      <path
         id="path68"
         d="m 3586.49,2475.22 c -4.71,-4.76 -8.14,-10.86 -8.41,-17.62 -0.27,-6.76 3.01,-14.16 9.25,-18.4 5.97,-4.04 13.84,-4.71 20.35,-2.82 6.5,1.88 11.77,6.03 16.04,10.78 22.34,24.86 -15.77,49.72 -37.23,28.06 z"
         style="fill:none;stroke:#040606;stroke-width:14;stroke-linecap:round;stroke-linejoin:round;stroke-miterlimit:10;stroke-dasharray:none;stroke-opacity:1"
         transform="matrix(0.13333333,0,0,-0.13333333,0,666.66667)" />
      <path
         id="path69"
         d="m 3226.46,3194 c -8.29,-14.61 -12.58,-31.6 -8.8,-48.12 3.78,-16.5 16.55,-32.25 34.42,-38.39 17.07,-5.87 36.52,-2.31 51.01,6.5 14.48,8.82 24.51,22.3 31.71,36.58 37.7,74.72 -70.71,109.84 -108.34,43.43 z"
         style="fill:none;stroke:#040606;stroke-width:14;stroke-linecap:round;stroke-linejoin:round;stroke-miterlimit:10;stroke-dasharray:none;stroke-opacity:1"
         transform="matrix(0.13333333,0,0,-0.13333333,0,666.66667)" />
      <path
         id="path70"
         d="m 3257.94,3177.67 c -3.31,-5.84 -5.02,-12.63 -3.52,-19.22 1.52,-6.59 6.62,-12.88 13.75,-15.33 6.82,-2.34 14.59,-0.93 20.37,2.59 5.79,3.53 9.79,8.91 12.67,14.61 15.05,29.84 -28.24,43.86 -43.27,17.35 z"
         style="fill:none;stroke:#040606;stroke-width:14;stroke-linecap:round;stroke-linejoin:round;stroke-miterlimit:10;stroke-dasharray:none;stroke-opacity:1"
         transform="matrix(0.13333333,0,0,-0.13333333,0,666.66667)" />
      <path
         id="path71"
         d="m 3100.08,2615.13 c -8.28,-14.61 -12.58,-31.61 -8.8,-48.12 3.78,-16.52 16.55,-32.26 34.42,-38.4 17.07,-5.87 36.53,-2.32 51.01,6.51 14.48,8.82 24.52,22.3 31.72,36.57 37.69,74.72 -70.72,109.83 -108.35,43.44 z"
         style="fill:none;stroke:#040606;stroke-width:14;stroke-linecap:round;stroke-linejoin:round;stroke-miterlimit:10;stroke-dasharray:none;stroke-opacity:1"
         transform="matrix(0.13333333,0,0,-0.13333333,0,666.66667)" />
      <path
         id="path72"
         d="m 3131.56,2598.79 c -3.31,-5.84 -5.02,-12.62 -3.5,-19.22 1.5,-6.59 6.6,-12.88 13.74,-15.33 6.81,-2.35 14.59,-0.92 20.37,2.6 5.78,3.52 9.79,8.9 12.66,14.61 15.06,29.83 -28.24,43.86 -43.27,17.34 z"
         style="fill:none;stroke:#040606;stroke-width:14;stroke-linecap:round;stroke-linejoin:round;stroke-miterlimit:10;stroke-dasharray:none;stroke-opacity:1"
         transform="matrix(0.13333333,0,0,-0.13333333,0,666.66667)" />
      <path
         id="path73"
         d="m 3292.5,2880 c 0,0 -23.6,-42.05 9.41,-70.13 33.02,-28.07 69.86,0.19 69.86,0.19"
         style="fill:none;stroke:#040606;stroke-width:20;stroke-linecap:round;stroke-linejoin:round;stroke-miterlimit:10;stroke-dasharray:none;stroke-opacity:1"
         transform="matrix(0.13333333,0,0,-0.13333333,0,666.66667)" />
      <path
         id="path74"
         d="m 3556.83,2706.83 c 0,0 -23.61,-42.03 9.41,-70.12 33.02,-28.08 69.85,0.19 69.85,0.19"
         style="fill:none;stroke:#040606;stroke-width:20;stroke-linecap:round;stroke-linejoin:round;stroke-miterlimit:10;stroke-dasharray:none;stroke-opacity:1"
         transform="matrix(0.13333333,0,0,-0.13333333,0,666.66667)" />
      <path
         id="path75"
         d="m 3489.81,2726.69 c 0,0 -16.83,-31.7 -39.93,-50.81 -12.55,-10.51 -26.92,-17.21 -41.5,-13.09 -19.15,5.43 -19.2,29.17 -13.64,53.05 6.41,27.7 20.27,55.72 20.27,55.72 0,0 38.95,-7.98 74.8,-44.87 z"
         style="fill:none;stroke:#040606;stroke-width:14;stroke-linecap:round;stroke-linejoin:round;stroke-miterlimit:10;stroke-dasharray:none;stroke-opacity:1"
         transform="matrix(0.13333333,0,0,-0.13333333,0,666.66667)" />
      <path
         id="path76"
         d="m 3449.88,2675.88 c -12.55,-10.51 -26.92,-17.21 -41.5,-13.09 -19.15,5.43 -19.2,29.17 -13.64,53.05 19.34,-4.8 43.14,-15.56 55.14,-39.96 z"
         style="fill:none;stroke:#040606;stroke-width:14;stroke-linecap:round;stroke-linejoin:round;stroke-miterlimit:10;stroke-dasharray:none;stroke-opacity:1"
         transform="matrix(0.13333333,0,0,-0.13333333,0,666.66667)" />
      <path
         id="path77"
         d="m 3203.72,2824 c 16.08,26.63 81.73,-18.07 61.88,-41.87 -19.86,-23.79 -77.96,15.24 -61.88,41.87 z"
         style="fill:none;stroke:#040606;stroke-width:14;stroke-linecap:round;stroke-linejoin:round;stroke-miterlimit:10;stroke-dasharray:none;stroke-opacity:1"
         transform="matrix(0.13333333,0,0,-0.13333333,0,666.66667)" />
      <path
         id="path78"
         d="m 3586.04,2584.11 c 16.08,26.63 81.72,-18.07 61.87,-41.86 -19.85,-23.8 -77.96,15.24 -61.87,41.86 z"
         style="fill:none;stroke:#040606;stroke-width:14;stroke-linecap:round;stroke-linejoin:round;stroke-miterlimit:10;stroke-dasharray:none;stroke-opacity:1"
         transform="matrix(0.13333333,0,0,-0.13333333,0,666.66667)" />
      <path
         id="path79"
         d="m 1341.89,1847.57 c 0,0 90,-85 110,-105 0,0 -130,-27.5 -110,-187.5 20,-160 210,-160 287.5,-105 77.5,55 72.5,165 55,222.5 0,0 90,-75 212.5,10 122.5,85 70.13,242.5 -35,282.5 -96.5,36.72 -185,-27.5 -225,-82.5 0,0 -85,90 -117.5,132.5 0,0 -167.5,37.5 -177.5,-167.5"
         style="fill:#ffffff;fill-opacity:1;fill-rule:nonzero;stroke:none"
         transform="matrix(0.13333333,0,0,-0.13333333,0,666.66667)" />
      <path
         id="path80"
         d="m 1341.89,1847.57 c 0,0 90,-85 110,-105 0,0 -130,-27.5 -110,-187.5 20,-160 210,-160 287.5,-105 77.5,55 72.5,165 55,222.5 0,0 90,-75 212.5,10 122.5,85 70.13,242.5 -35,282.5 -96.5,36.72 -185,-27.5 -225,-82.5 0,0 -85,90 -117.5,132.5 0,0 -167.5,37.5 -177.5,-167.5 z"
         style="fill:none;stroke:#040606;stroke-width:14;stroke-linecap:round;stroke-linejoin:round;stroke-miterlimit:10;stroke-dasharray:none;stroke-opacity:1"
         transform="matrix(0.13333333,0,0,-0.13333333,0,666.66667)" />
      <path
         id="path81"
         d="m 1406.89,1955.07 c 24.09,18.74 85,-37.5 135,0 50,37.5 10,117.5 15,190 5,72.5 -7.5,432.5 -160,639.61 -151.32,205.52 -512.495,375.32 -842.495,115.39 -285.258,-224.68 -260,-740 42.5,-940 302.5,-200 527.495,-102.5 612.495,-110 85,-7.5 125.52,-59.53 166.51,-17.27 40.99,42.27 8.49,104.77 30.99,122.27"
         style="fill:#ffffff;fill-opacity:1;fill-rule:nonzero;stroke:none"
         transform="matrix(0.13333333,0,0,-0.13333333,0,666.66667)" />
      <path
         id="path82"
         d="m 1406.89,1955.07 c 24.09,18.74 85,-37.5 135,0 50,37.5 10,117.5 15,190 5,72.5 -7.5,432.5 -160,639.61 -151.32,205.52 -512.495,375.32 -842.495,115.39 -285.258,-224.68 -260,-740 42.5,-940 302.5,-200 527.495,-102.5 612.495,-110 85,-7.5 125.52,-59.53 166.51,-17.27 40.99,42.27 8.49,104.77 30.99,122.27 z"
         style="fill:none;stroke:#040606;stroke-width:14;stroke-linecap:round;stroke-linejoin:round;stroke-miterlimit:10;stroke-dasharray:none;stroke-opacity:1"
         transform="matrix(0.13333333,0,0,-0.13333333,0,666.66667)" />
      <path
         id="path83"
         d="m 829.395,2945.66 c 56.445,47.75 229.995,-59.49 194.995,-125.04 -34.995,-65.55 -279.995,53.14 -194.995,125.04 z"
         style="fill:none;stroke:#040606;stroke-width:14;stroke-linecap:round;stroke-linejoin:round;stroke-miterlimit:10;stroke-dasharray:none;stroke-opacity:1"
         transform="matrix(0.13333333,0,0,-0.13333333,0,666.66667)" />
      <path
         id="path84"
         d="m 1169.39,2844.59 c 40,35.48 125,-39.52 90,-92.02 -35,-52.5 -130,56.54 -90,92.02 z"
         style="fill:none;stroke:#040606;stroke-width:14;stroke-linecap:round;stroke-linejoin:round;stroke-miterlimit:10;stroke-dasharray:none;stroke-opacity:1"
         transform="matrix(0.13333333,0,0,-0.13333333,0,666.66667)" />
      <path
         id="path85"
         d="m 1339.8,2527.57 c 81.16,16.79 187.09,-192.5 99.59,-250 -87.5,-57.5 -184.18,232.5 -99.59,250 z"
         style="fill:none;stroke:#040606;stroke-width:14;stroke-linecap:round;stroke-linejoin:round;stroke-miterlimit:10;stroke-dasharray:none;stroke-opacity:1"
         transform="matrix(0.13333333,0,0,-0.13333333,0,666.66667)" />
      <path
         id="path86"
         d="m 1339.8,2687.57 c 32.07,21.78 70.11,-52.5 36.1,-72.5 -34.01,-20 -58.19,57.5 -36.1,72.5 z"
         style="fill:none;stroke:#040606;stroke-width:14;stroke-linecap:round;stroke-linejoin:round;stroke-miterlimit:10;stroke-dasharray:none;stroke-opacity:1"
         transform="matrix(0.13333333,0,0,-0.13333333,0,666.66667)" />
      <path
         id="path87"
         d="m 674.348,2880.99 c 8.535,37.81 87.058,9.58 75.894,-28.27 -11.156,-37.83 -81.773,2.22 -75.894,28.27 z"
         style="fill:none;stroke:#040606;stroke-width:14;stroke-linecap:round;stroke-linejoin:round;stroke-miterlimit:10;stroke-dasharray:none;stroke-opacity:1"
         transform="matrix(0.13333333,0,0,-0.13333333,0,666.66667)" />
      <path
         id="path88"
         d="m 677.727,2491.9 c 31.941,51.19 111.613,-52.16 81.55,-87.63 -30.062,-35.48 -108.101,45.08 -81.55,87.63"
         style="fill:#040606;fill-opacity:1;fill-rule:nonzero;stroke:none"
         transform="matrix(0.13333333,0,0,-0.13333333,0,666.66667)" />
      <path
         id="path89"
         d="m 996.902,2750.14 c 31.938,51.19 111.618,-52.16 81.558,-87.63 -30.07,-35.48 -108.108,45.08 -81.558,87.63"
         style="fill:#040606;fill-opacity:1;fill-rule:nonzero;stroke:none"
         transform="matrix(0.13333333,0,0,-0.13333333,0,666.66667)" />
      <path
         id="path90"
         d="m 836.895,2505.86 c 0,0 -12.5,-64.59 50,-55.19 62.5,9.4 33.402,89.4 33.402,89.4 0,0 69.098,-22.5 84.093,35 15,57.5 -34.995,72.5 -67.495,55"
         style="fill:none;stroke:#040606;stroke-width:14;stroke-linecap:round;stroke-linejoin:round;stroke-miterlimit:10;stroke-dasharray:none;stroke-opacity:1"
         transform="matrix(0.13333333,0,0,-0.13333333,0,666.66667)" />
      <path
         id="path91"
         d="m 692.668,2280.04 c -35.773,37.53 73.609,117.53 98.918,77.53 25.309,-40 -63.148,-115.06 -98.918,-77.53 z"
         style="fill:none;stroke:#040606;stroke-width:14;stroke-linecap:round;stroke-linejoin:round;stroke-miterlimit:10;stroke-dasharray:none;stroke-opacity:1"
         transform="matrix(0.13333333,0,0,-0.13333333,0,666.66667)" />
      <path
         id="path92"
         d="m 1111.6,2637.61 c -35.77,37.54 73.61,117.54 98.92,77.54 25.31,-40 -63.15,-115.07 -98.92,-77.54 z"
         style="fill:none;stroke:#040606;stroke-width:14;stroke-linecap:round;stroke-linejoin:round;stroke-miterlimit:10;stroke-dasharray:none;stroke-opacity:1"
         transform="matrix(0.13333333,0,0,-0.13333333,0,666.66667)" />
      <path
         id="path93"
         d="m 3469.31,1612.76 c 245.34,253.45 232.15,504.4 449.04,531.87 260.67,33.03 401.46,-288 209.95,-637.32 -191.51,-349.3 -527.34,-597.099 -824.82,-677.048 -297.47,-79.953 -448.6,158.508 -358.72,357.138 89.87,198.64 343.28,238.11 524.55,425.36"
         style="fill:#ffffff;fill-opacity:1;fill-rule:nonzero;stroke:none"
         transform="matrix(0.13333333,0,0,-0.13333333,0,666.66667)" />
      <path
         id="path94"
         d="m 3469.31,1612.76 c 245.34,253.45 232.15,504.4 449.04,531.87 260.67,33.03 401.46,-288 209.95,-637.32 -191.51,-349.3 -527.34,-597.099 -824.82,-677.048 -297.47,-79.953 -448.6,158.508 -358.72,357.138 89.87,198.64 343.28,238.11 524.55,425.36 z"
         style="fill:none;stroke:#040606;stroke-width:14;stroke-linecap:round;stroke-linejoin:round;stroke-miterlimit:10;stroke-dasharray:none;stroke-opacity:1"
         transform="matrix(0.13333333,0,0,-0.13333333,0,666.66667)" />
      <path
         id="path95"
         d="m 3301.36,873.641 c -106.67,-35.282 -239.9,125.191 -183.23,275.929 56.66,150.74 320,244.07 476.66,437.41 156.67,193.33 152.5,331.44 317.5,392.14 121.04,44.52 275.84,-51.96 289.17,-228.72 13.33,-176.76 -466.86,-733.42 -900.1,-876.759"
         style="fill:#ffffff;fill-opacity:1;fill-rule:nonzero;stroke:none"
         transform="matrix(0.13333333,0,0,-0.13333333,0,666.66667)" />
      <path
         id="path96"
         d="m 3301.36,873.641 c -106.67,-35.282 -239.9,125.191 -183.23,275.929 56.66,150.74 320,244.07 476.66,437.41 156.67,193.33 152.5,331.44 317.5,392.14 121.04,44.52 275.84,-51.96 289.17,-228.72 13.33,-176.76 -466.86,-733.42 -900.1,-876.759 z"
         style="fill:none;stroke:#040606;stroke-width:14;stroke-linecap:round;stroke-linejoin:round;stroke-miterlimit:10;stroke-dasharray:none;stroke-opacity:1"
         transform="matrix(0.13333333,0,0,-0.13333333,0,666.66667)" />
      <path
         id="path97"
         d="m 3778.79,1356.98 c 251.74,270.7 232.67,533.33 459.34,566.66 272.42,40.07 426.66,-293.33 233.33,-663.33 -193.33,-370.001 -540,-636.669 -850,-726.669 -310,-90 -473.33,156.668 -383.33,366.668 90,210.001 354.67,256.671 540.66,456.671"
         style="fill:#ffffff;fill-opacity:1;fill-rule:nonzero;stroke:none"
         transform="matrix(0.13333333,0,0,-0.13333333,0,666.66667)" />
      <path
         id="path98"
         d="m 3778.79,1356.98 c 251.74,270.7 232.67,533.33 459.34,566.66 272.42,40.07 426.66,-293.33 233.33,-663.33 -193.33,-370.001 -540,-636.669 -850,-726.669 -310,-90 -473.33,156.668 -383.33,366.668 90,210.001 354.67,256.671 540.66,456.671 z"
         style="fill:none;stroke:#040606;stroke-width:14;stroke-linecap:round;stroke-linejoin:round;stroke-miterlimit:10;stroke-dasharray:none;stroke-opacity:1"
         transform="matrix(0.13333333,0,0,-0.13333333,0,666.66667)" />
      <path
         id="path99"
         d="m 3112.21,1130.99 c 0,0 -42.42,59.32 25.08,121.82 67.5,62.5 132.5,7.5 192.5,0 60,-7.5 94.23,35.07 52.5,75 -41.74,39.93 -77.5,45.5 -47.5,101.51 30,55.99 110.32,66.85 158.91,55.17 48.59,-11.68 103.59,8.32 88.59,28.32 -15,20 -97.5,17.5 -82.5,87.5 15,70 135,87.5 200,77.5 65,-10 68.81,32.83 35,50 -33.81,17.17 -85,60 -35,125 50,65 300,70 310,27.5 10,-42.5 -165,-27.5 -202.5,-52.5 -37.5,-25 -35.66,-35 37.17,-72.5 72.83,-37.5 40.33,-125 -24.67,-147.5 -65,-22.5 -190.81,22.65 -207.91,0.91 -17.09,-21.74 110.41,-55.91 87.91,-138.41 -22.5,-82.5 -255,-20 -267.5,-67.5 -12.5,-47.5 95,-80 55,-165 -40,-85 -164.84,-65 -234.92,-42.5 -70.08,22.5 -120.25,8.85 -140.16,-64.32"
         style="fill:#ffffff;fill-opacity:1;fill-rule:nonzero;stroke:none"
         transform="matrix(0.13333333,0,0,-0.13333333,0,666.66667)" />
      <path
         id="path100"
         d="m 3112.21,1130.99 c 0,0 -42.42,59.32 25.08,121.82 67.5,62.5 132.5,7.5 192.5,0 60,-7.5 94.23,35.07 52.5,75 -41.74,39.93 -77.5,45.5 -47.5,101.51 30,55.99 110.32,66.85 158.91,55.17 48.59,-11.68 103.59,8.32 88.59,28.32 -15,20 -97.5,17.5 -82.5,87.5 15,70 135,87.5 200,77.5 65,-10 68.81,32.83 35,50 -33.81,17.17 -85,60 -35,125 50,65 300,70 310,27.5 10,-42.5 -165,-27.5 -202.5,-52.5 -37.5,-25 -35.66,-35 37.17,-72.5 72.83,-37.5 40.33,-125 -24.67,-147.5 -65,-22.5 -190.81,22.65 -207.91,0.91 -17.09,-21.74 110.41,-55.91 87.91,-138.41 -22.5,-82.5 -255,-20 -267.5,-67.5 -12.5,-47.5 95,-80 55,-165 -40,-85 -164.84,-65 -234.92,-42.5 -70.08,22.5 -120.25,8.85 -140.16,-64.32 z"
         style="fill:none;stroke:#040606;stroke-width:14;stroke-linecap:round;stroke-linejoin:round;stroke-miterlimit:10;stroke-dasharray:none;stroke-opacity:1"
         transform="matrix(0.13333333,0,0,-0.13333333,0,666.66667)" />
      <path
         id="path101"
         d="m 3829.79,825.309 c 0,0 15,132.5 167.5,97.5"
         style="fill:none;stroke:#040606;stroke-width:20;stroke-linecap:round;stroke-linejoin:round;stroke-miterlimit:10;stroke-dasharray:none;stroke-opacity:1"
         transform="matrix(0.13333333,0,0,-0.13333333,0,666.66667)" />
      <path
         id="path102"
         d="m 4237.29,1220.76 c 0,0 -32.5,122.05 80,169.55"
         style="fill:none;stroke:#040606;stroke-width:20;stroke-linecap:round;stroke-linejoin:round;stroke-miterlimit:10;stroke-dasharray:none;stroke-opacity:1"
         transform="matrix(0.13333333,0,0,-0.13333333,0,666.66667)" />
      <path
         id="path103"
         d="m 4037.29,1007.81 c 0,0 0,-35.001 47.5,-30.001 47.5,5 20,72.501 20,72.501 0,0 45,-17.5 72.5,22.5 27.5,40 -7.5,61.35 -32.5,58.18"
         style="fill:none;stroke:#040606;stroke-width:14;stroke-linecap:round;stroke-linejoin:round;stroke-miterlimit:10;stroke-dasharray:none;stroke-opacity:1"
         transform="matrix(0.13333333,0,0,-0.13333333,0,666.66667)" />
      <path
         id="path104"
         d="m 3864.79,762.809 c 20.9,-28.059 -52.5,-90 -72.5,-55 -17.89,31.312 51.11,83.703 72.5,55 z"
         style="fill:none;stroke:#040606;stroke-width:14;stroke-linecap:round;stroke-linejoin:round;stroke-miterlimit:10;stroke-dasharray:none;stroke-opacity:1"
         transform="matrix(0.13333333,0,0,-0.13333333,0,666.66667)" />
      <path
         id="path105"
         d="m 4418.75,1410.81 c 23.56,-25.88 -43.42,-94.72 -66.76,-61.85 -20.87,29.4 42.66,88.32 66.76,61.85 z"
         style="fill:none;stroke:#040606;stroke-width:14;stroke-linecap:round;stroke-linejoin:round;stroke-miterlimit:10;stroke-dasharray:none;stroke-opacity:1"
         transform="matrix(0.13333333,0,0,-0.13333333,0,666.66667)" />
      <path
         id="path106"
         d="m 2329.91,1262.8 c 0,0 -120.74,-560.011 -82.21,-591.999 38.54,-31.981 105.62,-21.52 135.96,-8.711 30.33,12.808 90.84,580.38 90.84,580.38 l -144.59,20.33"
         style="fill:#ffffff;fill-opacity:1;fill-rule:nonzero;stroke:none"
         transform="matrix(0.13333333,0,0,-0.13333333,0,666.66667)" />
      <path
         id="path107"
         d="m 2329.91,1262.8 c 0,0 -120.74,-560.011 -82.21,-591.999 38.54,-31.981 105.62,-21.52 135.96,-8.711 30.33,12.808 90.84,580.38 90.84,580.38 z"
         style="fill:none;stroke:#040606;stroke-width:14;stroke-linecap:round;stroke-linejoin:round;stroke-miterlimit:10;stroke-dasharray:none;stroke-opacity:1"
         transform="matrix(0.13333333,0,0,-0.13333333,0,666.66667)" />
      <path
         id="path108"
         d="m 2588.86,2657.11 c 6.31,-0.89 12.66,-1.84 19.06,-2.85 225.02,-35.64 388.46,-234.48 379.75,-462.14 -6.47,-168.98 -30.96,-392.87 -98.56,-648.9 -56.68,-214.67 -262.88,-355.95 -483.6,-331.94 -5.32,0.58 -10.67,1.18 -16.03,1.81 -238.85,27.93 -413.44,238.01 -398.71,478.03 11.19,182.33 37.8,410.58 97.76,635.29 58.94,220.9 273.92,362.51 500.33,330.7"
         style="fill:#ffffff;fill-opacity:1;fill-rule:nonzero;stroke:none"
         transform="matrix(0.13333333,0,0,-0.13333333,0,666.66667)" />
      <path
         id="path109"
         d="m 2588.86,2657.11 c 6.31,-0.89 12.66,-1.84 19.06,-2.85 225.02,-35.64 388.46,-234.48 379.75,-462.14 -6.47,-168.98 -30.96,-392.87 -98.56,-648.9 -56.68,-214.67 -262.88,-355.95 -483.6,-331.94 -5.32,0.58 -10.67,1.18 -16.03,1.81 -238.85,27.93 -413.44,238.01 -398.71,478.03 11.19,182.33 37.8,410.58 97.76,635.29 58.94,220.9 273.92,362.51 500.33,330.7 z"
         style="fill:none;stroke:#040606;stroke-width:14;stroke-linecap:round;stroke-linejoin:round;stroke-miterlimit:10;stroke-dasharray:none;stroke-opacity:1"
         transform="matrix(0.13333333,0,0,-0.13333333,0,666.66667)" />
      <path
         id="path110"
         d="m 2219.09,2231.7 c 0,0 115.98,78.69 187.78,-59.39"
         style="fill:none;stroke:#040606;stroke-width:22.0925;stroke-linecap:round;stroke-linejoin:round;stroke-miterlimit:10;stroke-dasharray:none;stroke-opacity:1"
         transform="matrix(0.13333333,0,0,-0.13333333,0,666.66667)" />
      <path
         id="path111"
         d="m 2824.77,2162.58 c 0,0 -99.93,98.29 -195.41,-24.6"
         style="fill:none;stroke:#040606;stroke-width:22.0925;stroke-linecap:round;stroke-linejoin:round;stroke-miterlimit:10;stroke-dasharray:none;stroke-opacity:1"
         transform="matrix(0.13333333,0,0,-0.13333333,0,666.66667)" />
      <path
         id="path112"
         d="m 2474.5,2180.6 c 0,0 -40.01,-5.15 -34.49,-42.62 5.52,-37.47 49.71,-20.52 66.28,0 0,0 16.57,-51.09 52.47,-33.24 35.9,17.86 0,64.81 0,64.81"
         style="fill:none;stroke:#040606;stroke-width:15.4648;stroke-linecap:round;stroke-linejoin:round;stroke-miterlimit:10;stroke-dasharray:none;stroke-opacity:1"
         transform="matrix(0.13333333,0,0,-0.13333333,0,666.66667)" />
      <path
         id="path113"
         d="m 2122.43,2180.6 c 8.28,46.94 124.27,27.61 107.7,-19.34 -16.57,-46.94 -115.98,-27.61 -107.7,19.34 z"
         style="fill:none;stroke:#040606;stroke-width:15.4648;stroke-linecap:round;stroke-linejoin:round;stroke-miterlimit:10;stroke-dasharray:none;stroke-opacity:1"
         transform="matrix(0.13333333,0,0,-0.13333333,0,666.66667)" />
      <path
         id="path114"
         d="m 2823.55,2110.62 c 8.3,46.95 124.28,27.61 107.71,-19.33 -16.57,-46.94 -115.99,-27.62 -107.71,19.33 z"
         style="fill:none;stroke:#040606;stroke-width:15.4648;stroke-linecap:round;stroke-linejoin:round;stroke-miterlimit:10;stroke-dasharray:none;stroke-opacity:1"
         transform="matrix(0.13333333,0,0,-0.13333333,0,666.66667)" />
      <path
         id="path115"
         d="m 1865.93,887.32 c 0,0 -320.6,922.3 -314.06,944.9 6.56,22.6 175.02,72.78 188.29,62.69 13.27,-10.09 330.77,-966.211 330.77,-966.211 l -205,-41.379"
         style="fill:#ffffff;fill-opacity:1;fill-rule:nonzero;stroke:none"
         transform="matrix(0.13333333,0,0,-0.13333333,0,666.66667)" />
      <path
         id="path116"
         d="m 1865.93,887.32 c 0,0 -320.6,922.3 -314.06,944.9 6.56,22.6 175.02,72.78 188.29,62.69 13.27,-10.09 330.77,-966.211 330.77,-966.211 z"
         style="fill:none;stroke:#040606;stroke-width:14;stroke-linecap:round;stroke-linejoin:round;stroke-miterlimit:10;stroke-dasharray:none;stroke-opacity:1"
         transform="matrix(0.13333333,0,0,-0.13333333,0,666.66667)" />
      <path
         id="path117"
         d="m 1653.43,701.68 c 0,0 -457.5,1065.64 -447.5,1088.14 10,22.5 155,77.5 167.5,70 12.5,-7.5 467.5,-1045.422 467.5,-1045.422 L 1653.43,701.68"
         style="fill:#ffffff;fill-opacity:1;fill-rule:nonzero;stroke:#040606;stroke-width:14;stroke-linecap:round;stroke-linejoin:round;stroke-miterlimit:10;stroke-dasharray:none;stroke-opacity:1"
         transform="matrix(0.13333333,0,0,-0.13333333,0,666.66667)" />
      <path
         id="path118"
         d="m 1428.78,611.129 c 0,0 -433.01,963.321 -432.928,986.011 0.078,22.68 134.958,87.68 156.268,85.18 21.31,-2.5 465.13,-984.949 465.13,-984.949 l -188.47,-86.242"
         style="fill:#ffffff;fill-opacity:1;fill-rule:nonzero;stroke:none"
         transform="matrix(0.13333333,0,0,-0.13333333,0,666.66667)" />
      <path
         id="path119"
         d="m 1428.78,611.129 c 0,0 -433.01,963.321 -432.928,986.011 0.078,22.68 134.958,87.68 156.268,85.18 21.31,-2.5 465.13,-984.949 465.13,-984.949 z"
         style="fill:none;stroke:#040606;stroke-width:14;stroke-linecap:round;stroke-linejoin:round;stroke-miterlimit:10;stroke-dasharray:none;stroke-opacity:1"
         transform="matrix(0.13333333,0,0,-0.13333333,0,666.66667)" />
      <path
         id="path120"
         d="m 1247.89,611.129 c 0,0 -480.765,867.161 -482.847,886.321 -2.078,19.16 136.629,104.74 156.559,99.45 19.925,-5.27 524.238,-954.752 524.238,-954.752 l -197.95,-31.019"
         style="fill:#ffffff;fill-opacity:1;fill-rule:nonzero;stroke:none"
         transform="matrix(0.13333333,0,0,-0.13333333,0,666.66667)" />
      <path
         id="path121"
         d="m 1247.89,611.129 c 0,0 -480.765,867.161 -482.847,886.321 -2.078,19.16 136.629,104.74 156.559,99.45 19.925,-5.27 524.238,-954.752 524.238,-954.752 z"
         style="fill:none;stroke:#040606;stroke-width:14;stroke-linecap:round;stroke-linejoin:round;stroke-miterlimit:10;stroke-dasharray:none;stroke-opacity:1"
         transform="matrix(0.13333333,0,0,-0.13333333,0,666.66667)" />
      <path
         id="path122"
         d="m 1010.93,747.32 c 0,0 -270,523.51 -262.5,546.75 7.5,23.25 119.73,78.25 137.363,70.75 17.637,-7.5 357.637,-696.101 357.637,-696.101 l -232.5,78.601"
         style="fill:#ffffff;fill-opacity:1;fill-rule:nonzero;stroke:none"
         transform="matrix(0.13333333,0,0,-0.13333333,0,666.66667)" />
      <path
         id="path123"
         d="m 1010.93,747.32 c 0,0 -270,523.51 -262.5,546.75 7.5,23.25 119.73,78.25 137.363,70.75 17.637,-7.5 357.637,-696.101 357.637,-696.101 z"
         style="fill:none;stroke:#040606;stroke-width:14;stroke-linecap:round;stroke-linejoin:round;stroke-miterlimit:10;stroke-dasharray:none;stroke-opacity:1"
         transform="matrix(0.13333333,0,0,-0.13333333,0,666.66667)" />
      <path
         id="path124"
         d="m 1333.43,668.719 c 0,0 -325,651.941 -325,671.521 0,19.58 145,97.39 162.5,77.23 17.5,-20.15 363.78,-732.65 363.78,-732.65 l -201.28,-16.101"
         style="fill:#ffffff;fill-opacity:1;fill-rule:nonzero;stroke:none"
         transform="matrix(0.13333333,0,0,-0.13333333,0,666.66667)" />
      <path
         id="path125"
         d="m 1333.43,668.719 c 0,0 -325,651.941 -325,671.521 0,19.58 145,97.39 162.5,77.23 17.5,-20.15 363.78,-732.65 363.78,-732.65 z"
         style="fill:none;stroke:#040606;stroke-width:14;stroke-linecap:round;stroke-linejoin:round;stroke-miterlimit:10;stroke-dasharray:none;stroke-opacity:1"
         transform="matrix(0.13333333,0,0,-0.13333333,0,666.66667)" />
      <path
         id="path126"
         d="m 1617.25,734.25 c 0,0 -388.82,772.22 -391.32,785.14 -2.5,12.93 136.67,84.78 159.58,75.1 22.92,-9.67 392.92,-769.181 392.92,-769.181 0,0 -69.86,-59.68 -161.18,-91.059"
         style="fill:#ffffff;fill-opacity:1;fill-rule:nonzero;stroke:none"
         transform="matrix(0.13333333,0,0,-0.13333333,0,666.66667)" />
      <path
         id="path127"
         d="m 1617.25,734.25 c 0,0 -388.82,772.22 -391.32,785.14 -2.5,12.93 136.67,84.78 159.58,75.1 22.92,-9.67 392.92,-769.181 392.92,-769.181 0,0 -69.86,-59.68 -161.18,-91.059 z"
         style="fill:none;stroke:#040606;stroke-width:14;stroke-linecap:round;stroke-linejoin:round;stroke-miterlimit:10;stroke-dasharray:none;stroke-opacity:1"
         transform="matrix(0.13333333,0,0,-0.13333333,0,666.66667)" />
      <path
         id="path128"
         d="m 1835.93,844.82 c 0,0 -302.91,812.02 -301.22,822.5 1.68,10.48 166.51,75 177.61,65 11.11,-10 308.61,-803.621 308.61,-803.621 l -185,-83.879"
         style="fill:#ffffff;fill-opacity:1;fill-rule:nonzero;stroke:none"
         transform="matrix(0.13333333,0,0,-0.13333333,0,666.66667)" />
      <path
         id="path129"
         d="m 1835.93,844.82 c 0,0 -302.91,812.02 -301.22,822.5 1.68,10.48 166.51,75 177.61,65 11.11,-10 308.61,-803.621 308.61,-803.621 z"
         style="fill:none;stroke:#040606;stroke-width:14;stroke-linecap:round;stroke-linejoin:round;stroke-miterlimit:10;stroke-dasharray:none;stroke-opacity:1"
         transform="matrix(0.13333333,0,0,-0.13333333,0,666.66667)" />
      <path
         id="path130"
         d="m 975.383,766.27 c 24.383,22.718 73.417,61.769 144.487,87.101 29.72,10.598 62.67,2.481 85.53,-19.289 53.53,-50.98 174.97,-133.031 355.53,-62.961 188.82,73.277 228.1,233.839 236.02,308.029 2.9,27.23 18.62,51.32 42.56,64.63 41.77,23.24 112.73,55.05 198.91,63.04 19.09,1.76 36.74,-10.41 42.5,-28.7 24.67,-78.27 88.72,-299.89 119.91,-580.858 7.63,-68.77 -25.24,-135.891 -84.69,-171.321 -107.97,-64.371 -313.42,-171.132 -642.65,-283.82 -65,-22.25 -137.11,-5.082 -184.64,44.52 -97,101.218 -254.14,293.718 -324.92,538.57 -4.258,14.711 0.242,30.621 11.453,41.059"
         style="fill:#ffffff;fill-opacity:1;fill-rule:nonzero;stroke:none"
         transform="matrix(0.13333333,0,0,-0.13333333,0,666.66667)" />
      <path
         id="path131"
         d="m 975.383,766.27 c 24.383,22.718 73.417,61.769 144.487,87.101 29.72,10.598 62.67,2.481 85.53,-19.289 53.53,-50.98 174.97,-133.031 355.53,-62.961 188.82,73.277 228.1,233.839 236.02,308.029 2.9,27.23 18.62,51.32 42.56,64.63 41.77,23.24 112.73,55.05 198.91,63.04 19.09,1.76 36.74,-10.41 42.5,-28.7 24.67,-78.27 88.72,-299.89 119.91,-580.858 7.63,-68.77 -25.24,-135.891 -84.69,-171.321 -107.97,-64.371 -313.42,-171.132 -642.65,-283.82 -65,-22.25 -137.11,-5.082 -184.64,44.52 -97,101.218 -254.14,293.718 -324.92,538.57 -4.258,14.711 0.242,30.621 11.453,41.059 z"
         style="fill:none;stroke:#040606;stroke-width:14;stroke-linecap:round;stroke-linejoin:round;stroke-miterlimit:10;stroke-dasharray:none;stroke-opacity:1"
         transform="matrix(0.13333333,0,0,-0.13333333,0,666.66667)" />
      <path
         id="path132"
         d="m 1425.93,566.48 c 48.33,31.668 98.33,-93.332 65,-123.332 -33.34,-30 -113.34,91.672 -65,123.332"
         style="fill:#040606;fill-opacity:1;fill-rule:nonzero;stroke:none"
         transform="matrix(0.13333333,0,0,-0.13333333,0,666.66667)" />
      <path
         id="path133"
         d="m 1865.93,763.148 c 48.33,31.672 98.33,-93.328 65,-123.328 -33.34,-30 -113.34,91.66 -65,123.328"
         style="fill:#040606;fill-opacity:1;fill-rule:nonzero;stroke:none"
         transform="matrix(0.13333333,0,0,-0.13333333,0,666.66667)" />
      <path
         id="path134"
         d="m 1712.63,524.82 c -27.61,-16.199 -51.7,1.2 -69.2,23.301 -18.3,23.199 -29.2,51.699 -29.2,51.699 0,0 28.4,64.602 106.7,49.801 0,0 14.7,-27.902 18.4,-58.402 3,-24.899 -1.3,-51.5 -26.7,-66.399 z"
         style="fill:none;stroke:#040606;stroke-width:14;stroke-linecap:round;stroke-linejoin:round;stroke-miterlimit:10;stroke-dasharray:none;stroke-opacity:1"
         transform="matrix(0.13333333,0,0,-0.13333333,0,666.66667)" />
      <path
         id="path135"
         d="m 1712.63,524.82 c -27.61,-16.199 -51.7,1.2 -69.2,23.301 16.99,21.098 46.9,44.301 95.9,43.098 3,-24.899 -1.3,-51.5 -26.7,-66.399 z"
         style="fill:none;stroke:#040606;stroke-width:14;stroke-linecap:round;stroke-linejoin:round;stroke-miterlimit:10;stroke-dasharray:none;stroke-opacity:1"
         transform="matrix(0.13333333,0,0,-0.13333333,0,666.66667)" />
      <path
         id="path136"
         d="m 1466.97,407.23 c 26.2,-34.46 -56.51,-85.179 -78.37,-54.769 -19.35,26.918 57.7,81.937 78.37,54.769 z"
         style="fill:none;stroke:#040606;stroke-width:14;stroke-linecap:round;stroke-linejoin:round;stroke-miterlimit:10;stroke-dasharray:none;stroke-opacity:1"
         transform="matrix(0.13333333,0,0,-0.13333333,0,666.66667)" />
      <path
         id="path137"
         d="m 2040.35,659.629 c 22.74,-36.828 -64.49,-79.309 -83.3,-46.918 -16.65,28.648 65.36,75.969 83.3,46.918 z"
         style="fill:none;stroke:#040606;stroke-width:14;stroke-linecap:round;stroke-linejoin:round;stroke-miterlimit:10;stroke-dasharray:none;stroke-opacity:1"
         transform="matrix(0.13333333,0,0,-0.13333333,0,666.66667)" />
      <path
         id="path138"
         d="M 2059.17,2973.11 1843.33,2772.4 c 0,0 294.36,-24.06 293.58,-26.03 -0.78,-1.97 110.55,-264.85 110.55,-264.85 l 120.18,276.35 c 0,0 270.56,39.72 264.87,34.42 -5.69,-5.31 -213.27,196.88 -213.27,196.88 l 49.25,263.22 -241.03,-149.57 -245.53,144.54 77.24,-274.25"
         style="fill:#ffffff;fill-opacity:1;fill-rule:nonzero;stroke:none"
         transform="matrix(0.13333333,0,0,-0.13333333,0,666.66667)" />
      <path
         id="path139"
         d="M 2059.17,2973.11 1843.33,2772.4 c 0,0 294.36,-24.06 293.58,-26.03 -0.78,-1.97 110.55,-264.85 110.55,-264.85 l 120.18,276.35 c 0,0 270.56,39.72 264.87,34.42 -5.69,-5.31 -213.27,196.88 -213.27,196.88 l 49.25,263.22 -241.03,-149.57 -245.53,144.54 z"
         style="fill:none;stroke:#040606;stroke-width:14;stroke-linecap:round;stroke-linejoin:round;stroke-miterlimit:10;stroke-dasharray:none;stroke-opacity:1"
         transform="matrix(0.13333333,0,0,-0.13333333,0,666.66667)" />
      <path
         id="path140"
         d="m 2609.65,868.23 -289.02,38.68 c 0,0 166.7,-239.98 164.71,-240.621 -2,-0.648 -132.81,-250.98 -132.81,-250.98 l 286.67,81.972 c 0,0 200.46,-181.691 192.83,-180.691 -7.64,1.019 16.28,286.699 16.28,286.699 l 232.03,127.891 -265.8,90.07 -43.97,278.43 -160.92,-231.45"
         style="fill:#ffffff;fill-opacity:1;fill-rule:nonzero;stroke:none"
         transform="matrix(0.13333333,0,0,-0.13333333,0,666.66667)" />
      <path
         id="path141"
         d="m 2609.65,868.23 -289.02,38.68 c 0,0 166.7,-239.98 164.71,-240.621 -2,-0.648 -132.81,-250.98 -132.81,-250.98 l 286.67,81.972 c 0,0 200.46,-181.691 192.83,-180.691 -7.64,1.019 16.28,286.699 16.28,286.699 l 232.03,127.891 -265.8,90.07 -43.97,278.43 z"
         style="fill:none;stroke:#040606;stroke-width:14;stroke-linecap:round;stroke-linejoin:round;stroke-miterlimit:10;stroke-dasharray:none;stroke-opacity:1"
         transform="matrix(0.13333333,0,0,-0.13333333,0,666.66667)" />
      <path
         id="path142"
         d="m 4252.6,867.582 -307.02,-90.043 c 0,0 274.09,-166.309 272.38,-167.84 -1.71,-1.539 -21.29,-310.82 -21.29,-310.82 l 250.89,209.941 c 0,0 281.96,-92.82 273.87,-95.218 -8.11,-2.383 -111.46,294.718 -111.46,294.718 l 175.64,231.641 -306.65,-28.172 -168.18,259.571 -58.18,-303.778"
         style="fill:#ffffff;fill-opacity:1;fill-rule:nonzero;stroke:none"
         transform="matrix(0.13333333,0,0,-0.13333333,0,666.66667)" />
      <path
         id="path143"
         d="m 4252.6,867.582 -307.02,-90.043 c 0,0 274.09,-166.309 272.38,-167.84 -1.71,-1.539 -21.29,-310.82 -21.29,-310.82 l 250.89,209.941 c 0,0 281.96,-92.82 273.87,-95.218 -8.11,-2.383 -111.46,294.718 -111.46,294.718 l 175.64,231.641 -306.65,-28.172 -168.18,259.571 z"
         style="fill:none;stroke:#040606;stroke-width:14;stroke-linecap:round;stroke-linejoin:round;stroke-miterlimit:10;stroke-dasharray:none;stroke-opacity:1"
         transform="matrix(0.13333333,0,0,-0.13333333,0,666.66667)" />
      <path
         id="path144"
         d="m 720.836,707.762 -221.348,29.617 c 0,0 127.668,-183.789 126.141,-184.27 -1.524,-0.5 -101.703,-192.218 -101.703,-192.218 l 219.543,62.769 c 0,0 153.523,-139.148 147.679,-138.379 -5.843,0.778 12.469,219.571 12.469,219.571 L 1081.32,602.801 877.758,671.781 844.082,885.02 720.836,707.762"
         style="fill:#ffffff;fill-opacity:1;fill-rule:nonzero;stroke:#040606;stroke-width:14;stroke-linecap:round;stroke-linejoin:round;stroke-miterlimit:10;stroke-dasharray:none;stroke-opacity:1"
         transform="matrix(0.13333333,0,0,-0.13333333,0,666.66667)" />
      <path
         id="path145"
         d="m 3929.52,3699.17 -199.89,99.59 c 0,0 61.41,-215.19 59.8,-215.17 -1.6,0.03 -158.38,-149.01 -158.38,-149.01 l 228.05,-11.57 c 0,0 100.29,-181.31 95.02,-178.68 -5.28,2.62 82.77,203.75 82.77,203.75 l 199.84,35.24 -170.34,131.07 37.06,212.68 -173.93,-127.9"
         style="fill:#ffffff;fill-opacity:1;fill-rule:nonzero;stroke:none"
         transform="matrix(0.13333333,0,0,-0.13333333,0,666.66667)" />
      <path
         id="path146"
         d="m 3929.52,3699.17 -199.89,99.59 c 0,0 61.41,-215.19 59.8,-215.17 -1.6,0.03 -158.38,-149.01 -158.38,-149.01 l 228.05,-11.57 c 0,0 100.29,-181.31 95.02,-178.68 -5.28,2.62 82.77,203.75 82.77,203.75 l 199.84,35.24 -170.34,131.07 37.06,212.68 z"
         style="fill:none;stroke:#040606;stroke-width:14;stroke-linecap:round;stroke-linejoin:round;stroke-miterlimit:10;stroke-dasharray:none;stroke-opacity:1"
         transform="matrix(0.13333333,0,0,-0.13333333,0,666.66667)" />
      <path
         id="path147"
         d="m 4003.64,4390.43 -92.62,46.15 c 0,0 28.45,-99.71 27.71,-99.7 -0.74,0.01 -73.39,-69.05 -73.39,-69.05 l 105.68,-5.37 c 0,0 46.47,-84.01 44.02,-82.8 -2.44,1.22 38.36,94.42 38.36,94.42 l 92.6,16.33 -78.94,60.74 17.18,98.55 -80.6,-59.27"
         style="fill:#ffffff;fill-opacity:1;fill-rule:nonzero;stroke:none"
         transform="matrix(0.13333333,0,0,-0.13333333,0,666.66667)" />
      <path
         id="path148"
         d="m 4003.64,4390.43 -92.62,46.15 c 0,0 28.45,-99.71 27.71,-99.7 -0.74,0.01 -73.39,-69.05 -73.39,-69.05 l 105.68,-5.37 c 0,0 46.47,-84.01 44.02,-82.8 -2.44,1.22 38.36,94.42 38.36,94.42 l 92.6,16.33 -78.94,60.74 17.18,98.55 z"
         style="fill:none;stroke:#040606;stroke-width:14;stroke-linecap:round;stroke-linejoin:round;stroke-miterlimit:10;stroke-dasharray:none;stroke-opacity:1"
         transform="matrix(0.13333333,0,0,-0.13333333,0,666.66667)" />
      <path
         id="path149"
         d="m 2818.73,3173.14 -100.11,-26.23 c 0,0 87.05,-56.33 86.49,-56.82 -0.57,-0.48 -9.8,-100.29 -9.8,-100.29 l 83.08,65.53 c 0,0 90.29,-32.66 87.65,-33.36 -2.64,-0.69 -33.27,96.33 -33.27,96.33 l 58.96,73.24 -99.41,-6.23 -51.93,85.5 -21.66,-97.67"
         style="fill:#ffffff;fill-opacity:1;fill-rule:nonzero;stroke:none"
         transform="matrix(0.13333333,0,0,-0.13333333,0,666.66667)" />
      <path
         id="path150"
         d="m 2818.73,3173.14 -100.11,-26.23 c 0,0 87.05,-56.33 86.49,-56.82 -0.57,-0.48 -9.8,-100.29 -9.8,-100.29 l 83.08,65.53 c 0,0 90.29,-32.66 87.65,-33.36 -2.64,-0.69 -33.27,96.33 -33.27,96.33 l 58.96,73.24 -99.41,-6.23 -51.93,85.5 z"
         style="fill:none;stroke:#040606;stroke-width:14;stroke-linecap:round;stroke-linejoin:round;stroke-miterlimit:10;stroke-dasharray:none;stroke-opacity:1"
         transform="matrix(0.13333333,0,0,-0.13333333,0,666.66667)" />
      <path
         id="path151"
         d="m 2356.11,4372.41 -100.1,-26.23 c 0,0 87.06,-56.34 86.49,-56.82 -0.57,-0.48 -9.8,-100.29 -9.8,-100.29 l 83.08,65.52 c 0,0 90.29,-32.66 87.65,-33.36 -2.64,-0.69 -33.27,96.33 -33.27,96.33 l 58.96,73.24 -99.4,-6.23 -51.94,85.5 -21.67,-97.66"
         style="fill:#ffffff;fill-opacity:1;fill-rule:nonzero;stroke:none"
         transform="matrix(0.13333333,0,0,-0.13333333,0,666.66667)" />
      <path
         id="path152"
         d="m 2356.11,4372.41 -100.1,-26.23 c 0,0 87.06,-56.34 86.49,-56.82 -0.57,-0.48 -9.8,-100.29 -9.8,-100.29 l 83.08,65.52 c 0,0 90.29,-32.66 87.65,-33.36 -2.64,-0.69 -33.27,96.33 -33.27,96.33 l 58.96,73.24 -99.4,-6.23 -51.94,85.5 z"
         style="fill:none;stroke:#040606;stroke-width:14;stroke-linecap:round;stroke-linejoin:round;stroke-miterlimit:10;stroke-dasharray:none;stroke-opacity:1"
         transform="matrix(0.13333333,0,0,-0.13333333,0,666.66667)" />
      <path
         id="path153"
         d="m 869.285,3315.22 -93.492,-44.36 c 0,0 96,-39.19 95.535,-39.77 -0.469,-0.58 8.992,-100.36 8.992,-100.36 l 69.469,79.8 c 0,0 94.781,-15.32 92.311,-16.49 -2.46,-1.18 -50.573,88.47 -50.573,88.47 l 44.333,82.91 -96.512,-24.58 -66.91,74.37 -3.153,-99.99"
         style="fill:#ffffff;fill-opacity:1;fill-rule:nonzero;stroke:none"
         transform="matrix(0.13333333,0,0,-0.13333333,0,666.66667)" />
      <path
         id="path154"
         d="m 869.285,3315.22 -93.492,-44.36 c 0,0 96,-39.19 95.535,-39.77 -0.469,-0.58 8.992,-100.36 8.992,-100.36 l 69.469,79.8 c 0,0 94.781,-15.32 92.311,-16.49 -2.46,-1.18 -50.573,88.47 -50.573,88.47 l 44.333,82.91 -96.512,-24.58 -66.91,74.37 z"
         style="fill:none;stroke:#040606;stroke-width:14;stroke-linecap:round;stroke-linejoin:round;stroke-miterlimit:10;stroke-dasharray:none;stroke-opacity:1"
         transform="matrix(0.13333333,0,0,-0.13333333,0,666.66667)" />
      <path
         id="path155"
         d="m 4134.39,2426.79 -123.41,-22.94 c 0,0 100.37,-75.81 99.65,-76.34 -0.74,-0.54 -20.67,-120.48 -20.67,-120.48 l 106.27,71.97 c 0,0 106.37,-47.44 103.12,-48.04 -3.27,-0.62 -31.79,119.46 -31.79,119.46 l 77.76,83.44 -120.81,1.19 -55.33,108 -34.79,-116.26"
         style="fill:#ffffff;fill-opacity:1;fill-rule:nonzero;stroke:none"
         transform="matrix(0.13333333,0,0,-0.13333333,0,666.66667)" />
      <path
         id="path156"
         d="m 4134.39,2426.79 -123.41,-22.94 c 0,0 100.37,-75.81 99.65,-76.34 -0.74,-0.54 -20.67,-120.48 -20.67,-120.48 l 106.27,71.97 c 0,0 106.37,-47.44 103.12,-48.04 -3.27,-0.62 -31.79,119.46 -31.79,119.46 l 77.76,83.44 -120.81,1.19 -55.33,108 z"
         style="fill:none;stroke:#040606;stroke-width:14;stroke-linecap:round;stroke-linejoin:round;stroke-miterlimit:10;stroke-dasharray:none;stroke-opacity:1"
         transform="matrix(0.13333333,0,0,-0.13333333,0,666.66667)" />
      <path
         id="path157"
         d="m 3133.57,1737.83 -76.38,10.45 c 0,0 43.88,-63.57 43.36,-63.75 -0.53,-0.16 -35.31,-66.25 -35.31,-66.25 l 75.85,21.46 c 0,0 52.87,-48.2 50.85,-47.92 -2.02,0.27 4.52,75.78 4.52,75.78 l 61.45,33.63 -70.2,24.02 -11.41,73.65 -42.73,-61.07"
         style="fill:#ffffff;fill-opacity:1;fill-rule:nonzero;stroke:none"
         transform="matrix(0.13333333,0,0,-0.13333333,0,666.66667)" />
      <path
         id="path158"
         d="m 3133.57,1737.83 -76.38,10.45 c 0,0 43.88,-63.57 43.36,-63.75 -0.53,-0.16 -35.31,-66.25 -35.31,-66.25 l 75.85,21.46 c 0,0 52.87,-48.2 50.85,-47.92 -2.02,0.27 4.52,75.78 4.52,75.78 l 61.45,33.63 -70.2,24.02 -11.41,73.65 z"
         style="fill:none;stroke:#040606;stroke-width:14;stroke-linecap:round;stroke-linejoin:round;stroke-miterlimit:10;stroke-dasharray:none;stroke-opacity:1"
         transform="matrix(0.13333333,0,0,-0.13333333,0,666.66667)" />
      <path
         id="path159"
         d="m 1798.04,2525.85 -122.46,-29.86 c 0,0 104.85,-70.42 104.15,-71 -0.7,-0.57 -14.02,-121.93 -14.02,-121.93 l 102.55,78.06 c 0,0 109.29,-41.64 106.06,-42.43 -3.24,-0.8 -38.52,118.01 -38.52,118.01 l 73.33,87.97 -121.2,-5.52 -61.48,105.21 -28.41,-118.51"
         style="fill:#ffffff;fill-opacity:1;fill-rule:nonzero;stroke:none"
         transform="matrix(0.13333333,0,0,-0.13333333,0,666.66667)" />
      <path
         id="path160"
         d="m 1798.04,2525.85 -122.46,-29.86 c 0,0 104.85,-70.42 104.15,-71 -0.7,-0.57 -14.02,-121.93 -14.02,-121.93 l 102.55,78.06 c 0,0 109.29,-41.64 106.06,-42.43 -3.24,-0.8 -38.52,118.01 -38.52,118.01 l 73.33,87.97 -121.2,-5.52 -61.48,105.21 z"
         style="fill:none;stroke:#040606;stroke-width:14;stroke-linecap:round;stroke-linejoin:round;stroke-miterlimit:10;stroke-dasharray:none;stroke-opacity:1"
         transform="matrix(0.13333333,0,0,-0.13333333,0,666.66667)" />
      <path
         id="path161"
         d="m 1276.4,4552.01 -53.47,8.01 c 0,0 30.2,-44.98 29.83,-45.09 -0.37,-0.11 -25.35,-46.14 -25.35,-46.14 l 53.39,14.36 c 0,0 36.63,-34.27 35.22,-34.06 -1.42,0.21 3.85,53.1 3.85,53.1 l 43.39,23.04 -49.01,17.47 -7.34,51.74 -30.51,-42.43"
         style="fill:#ffffff;fill-opacity:1;fill-rule:nonzero;stroke:none"
         transform="matrix(0.13333333,0,0,-0.13333333,0,666.66667)" />
      <path
         id="path162"
         d="m 1276.4,4552.01 -53.47,8.01 c 0,0 30.2,-44.98 29.83,-45.09 -0.37,-0.11 -25.35,-46.14 -25.35,-46.14 l 53.39,14.36 c 0,0 36.63,-34.27 35.22,-34.06 -1.42,0.21 3.85,53.1 3.85,53.1 l 43.39,23.04 -49.01,17.47 -7.34,51.74 z"
         style="fill:none;stroke:#040606;stroke-width:14;stroke-linecap:round;stroke-linejoin:round;stroke-miterlimit:10;stroke-dasharray:none;stroke-opacity:1"
         transform="matrix(0.13333333,0,0,-0.13333333,0,666.66667)" />
      <path
         id="path163"
         d="m 746.793,1704.61 -49.859,-20.9 c 0,0 49.16,-22.76 48.902,-23.06 -0.254,-0.29 2.285,-52.59 2.285,-52.59 l 38.172,39.98 c 0,0 49.098,-10.28 47.785,-10.83 -1.312,-0.55 -24.269,47.39 -24.269,47.39 l 25.132,42.21 -50.964,-10.51 -33.133,40.42 -4.051,-52.11"
         style="fill:#ffffff;fill-opacity:1;fill-rule:nonzero;stroke:none"
         transform="matrix(0.13333333,0,0,-0.13333333,0,666.66667)" />
      <path
         id="path164"
         d="m 746.793,1704.61 -49.859,-20.9 c 0,0 49.16,-22.76 48.902,-23.06 -0.254,-0.29 2.285,-52.59 2.285,-52.59 l 38.172,39.98 c 0,0 49.098,-10.28 47.785,-10.83 -1.312,-0.55 -24.269,47.39 -24.269,47.39 l 25.132,42.21 -50.964,-10.51 -33.133,40.42 z"
         style="fill:none;stroke:#040606;stroke-width:14;stroke-linecap:round;stroke-linejoin:round;stroke-miterlimit:10;stroke-dasharray:none;stroke-opacity:1"
         transform="matrix(0.13333333,0,0,-0.13333333,0,666.66667)" />
      <path
         id="path165"
         d="m 4521.88,3534.69 -53.38,8.61 c 0,0 29.7,-45.31 29.33,-45.42 -0.38,-0.11 -25.87,-45.85 -25.87,-45.85 l 53.54,13.76 c 0,0 36.25,-34.68 34.84,-34.46 -1.4,0.23 4.45,53.06 4.45,53.06 l 43.65,22.55 -48.82,18.02 -6.76,51.82 -30.98,-42.09"
         style="fill:#ffffff;fill-opacity:1;fill-rule:nonzero;stroke:none"
         transform="matrix(0.13333333,0,0,-0.13333333,0,666.66667)" />
      <path
         id="path166"
         d="m 4521.88,3534.69 -53.38,8.61 c 0,0 29.7,-45.31 29.33,-45.42 -0.38,-0.11 -25.87,-45.85 -25.87,-45.85 l 53.54,13.76 c 0,0 36.25,-34.68 34.84,-34.46 -1.4,0.23 4.45,53.06 4.45,53.06 l 43.65,22.55 -48.82,18.02 -6.76,51.82 z"
         style="fill:none;stroke:#040606;stroke-width:14;stroke-linecap:round;stroke-linejoin:round;stroke-miterlimit:10;stroke-dasharray:none;stroke-opacity:1"
         transform="matrix(0.13333333,0,0,-0.13333333,0,666.66667)" />
      <path
         id="path167"
         d="m 2198.01,368.32 -51.24,-17.25 c 0,0 47.39,-26.25 47.11,-26.519 -0.28,-0.27 -1.52,-52.629 -1.52,-52.629 l 40.96,37.117 c 0,0 48.23,-13.789 46.88,-14.238 -1.35,-0.461 -20.79,49.008 -20.79,49.008 l 28.12,40.293 -51.59,-6.801 -30.12,42.711 -7.81,-51.692"
         style="fill:#ffffff;fill-opacity:1;fill-rule:nonzero;stroke:none"
         transform="matrix(0.13333333,0,0,-0.13333333,0,666.66667)" />
      <path
         id="path168"
         d="m 2198.01,368.32 -51.24,-17.25 c 0,0 47.39,-26.25 47.11,-26.519 -0.28,-0.27 -1.52,-52.629 -1.52,-52.629 l 40.96,37.117 c 0,0 48.23,-13.789 46.88,-14.238 -1.35,-0.461 -20.79,49.008 -20.79,49.008 l 28.12,40.293 -51.59,-6.801 -30.12,42.711 z"
         style="fill:none;stroke:#040606;stroke-width:14;stroke-linecap:round;stroke-linejoin:round;stroke-miterlimit:10;stroke-dasharray:none;stroke-opacity:1"
         transform="matrix(0.13333333,0,0,-0.13333333,0,666.66667)" />
      <path
         id="path169"
         d="m 3114.11,448.75 -73.3,-23.879 c 0,0 67.2,-38.101 66.8,-38.48 -0.4,-0.379 -2.91,-75.02 -2.91,-75.02 l 58.93,52.359 c 0,0 68.58,-20.351 66.64,-20.98 -1.93,-0.629 -28.94,70.191 -28.94,70.191 l 40.64,57.039 -73.65,-8.968 -42.36,61.308 -11.85,-73.57"
         style="fill:#ffffff;fill-opacity:1;fill-rule:nonzero;stroke:none"
         transform="matrix(0.13333333,0,0,-0.13333333,0,666.66667)" />
      <path
         id="path170"
         d="m 3114.11,448.75 -73.3,-23.879 c 0,0 67.2,-38.101 66.8,-38.48 -0.4,-0.379 -2.91,-75.02 -2.91,-75.02 l 58.93,52.359 c 0,0 68.58,-20.351 66.64,-20.98 -1.93,-0.629 -28.94,70.191 -28.94,70.191 l 40.64,57.039 -73.65,-8.968 -42.36,61.308 z"
         style="fill:none;stroke:#040606;stroke-width:14;stroke-linecap:round;stroke-linejoin:round;stroke-miterlimit:10;stroke-dasharray:none;stroke-opacity:1"
         transform="matrix(0.13333333,0,0,-0.13333333,0,666.66667)" />
      <path
         id="path171"
         d="m 414.531,1847.9 -111.34,-0.64 c 0,0 75.719,-81.94 75,-82.29 -0.718,-0.35 -36.961,-101.92 -36.961,-101.92 l 104.075,46.13 c 0,0 85.402,-58.12 82.465,-58.13 -2.934,-0.02 -8.985,109.27 -8.985,109.27 l 80.985,60.63 -105.274,20.01 -31.336,102.97 -48.629,-96.03"
         style="fill:#ffffff;fill-opacity:1;fill-rule:nonzero;stroke:none"
         transform="matrix(0.13333333,0,0,-0.13333333,0,666.66667)" />
      <path
         id="path172"
         d="m 414.531,1847.9 -111.34,-0.64 c 0,0 75.719,-81.94 75,-82.29 -0.718,-0.35 -36.961,-101.92 -36.961,-101.92 l 104.075,46.13 c 0,0 85.402,-58.12 82.465,-58.13 -2.934,-0.02 -8.985,109.27 -8.985,109.27 l 80.985,60.63 -105.274,20.01 -31.336,102.97 z"
         style="fill:none;stroke:#040606;stroke-width:14;stroke-linecap:round;stroke-linejoin:round;stroke-miterlimit:10;stroke-dasharray:none;stroke-opacity:1"
         transform="matrix(0.13333333,0,0,-0.13333333,0,666.66667)" />
      <path
         id="path173"
         d="m 4661.27,1249.46 -76.39,10.45 c 0,0 43.89,-63.57 43.36,-63.74 -0.53,-0.17 -35.3,-66.26 -35.3,-66.26 l 75.86,21.46 c 0,0 52.85,-48.2 50.84,-47.92 -2.02,0.27 4.52,75.78 4.52,75.78 l 61.45,33.64 -70.21,24.02 -11.41,73.64 -42.72,-61.07"
         style="fill:#ffffff;fill-opacity:1;fill-rule:nonzero;stroke:none"
         transform="matrix(0.13333333,0,0,-0.13333333,0,666.66667)" />
      <path
         id="path174"
         d="m 4661.27,1249.46 -76.39,10.45 c 0,0 43.89,-63.57 43.36,-63.74 -0.53,-0.17 -35.3,-66.26 -35.3,-66.26 l 75.86,21.46 c 0,0 52.85,-48.2 50.84,-47.92 -2.02,0.27 4.52,75.78 4.52,75.78 l 61.45,33.64 -70.21,24.02 -11.41,73.64 z"
         style="fill:none;stroke:#040606;stroke-width:14;stroke-linecap:round;stroke-linejoin:round;stroke-miterlimit:10;stroke-dasharray:none;stroke-opacity:1"
         transform="matrix(0.13333333,0,0,-0.13333333,0,666.66667)" />
      <path
         id="path175"
         d="m 842.008,4418.57 -274.047,13.97 c 0,0 174.871,-212.2 173.051,-212.95 -1.817,-0.77 -105.16,-245.63 -105.16,-245.63 l 262.511,99 c 0,0 202.027,-154.92 194.797,-154.57 -7.24,0.36 -6.87,270.14 -6.87,270.14 l 207.74,137.86 -256.24,63.94 -62.735,257.73 -133.047,-229.49"
         style="fill:#ffffff;fill-opacity:1;fill-rule:nonzero;stroke:none"
         transform="matrix(0.13333333,0,0,-0.13333333,0,666.66667)" />
      <path
         id="path176"
         d="m 842.008,4418.57 -274.047,13.97 c 0,0 174.871,-212.2 173.051,-212.95 -1.817,-0.77 -105.16,-245.63 -105.16,-245.63 l 262.511,99 c 0,0 202.027,-154.92 194.797,-154.57 -7.24,0.36 -6.87,270.14 -6.87,270.14 l 207.74,137.86 -256.24,63.94 -62.735,257.73 z"
         style="fill:none;stroke:#040606;stroke-width:14;stroke-linecap:round;stroke-linejoin:round;stroke-miterlimit:10;stroke-dasharray:none;stroke-opacity:1"
         transform="matrix(0.13333333,0,0,-0.13333333,0,666.66667)" />
      <path
         id="path177"
         d="m 2050.68,4458.33 c 0,0 -172.95,23.84 -203.02,106.24 -30.07,82.4 51.22,132.4 142.24,55.73 0,0 -16.13,103.34 60.78,110 76.91,6.67 123.09,-117.28 0,-271.97"
         style="fill:#ffffff;fill-opacity:1;fill-rule:nonzero;stroke:none"
         transform="matrix(0.13333333,0,0,-0.13333333,0,666.66667)" />
      <path
         id="path178"
         d="m 2050.68,4458.33 c 0,0 -172.95,23.84 -203.02,106.24 -30.07,82.4 51.22,132.4 142.24,55.73 0,0 -16.13,103.34 60.78,110 76.91,6.67 123.09,-117.28 0,-271.97 z"
         style="fill:none;stroke:#040606;stroke-width:14;stroke-linecap:round;stroke-linejoin:round;stroke-miterlimit:10;stroke-dasharray:none;stroke-opacity:1"
         transform="matrix(0.13333333,0,0,-0.13333333,0,666.66667)" />
      <path
         id="path179"
         d="m 464.57,3154.8 c 0,0 -113.715,15.68 -133.484,69.85 -19.773,54.18 33.676,87.05 93.519,36.65 0,0 -10.601,67.94 39.965,72.32 50.567,4.38 80.934,-77.11 0,-178.82"
         style="fill:#ffffff;fill-opacity:1;fill-rule:nonzero;stroke:none"
         transform="matrix(0.13333333,0,0,-0.13333333,0,666.66667)" />
      <path
         id="path180"
         d="m 464.57,3154.8 c 0,0 -113.715,15.68 -133.484,69.85 -19.773,54.18 33.676,87.05 93.519,36.65 0,0 -10.601,67.94 39.965,72.32 50.567,4.38 80.934,-77.11 0,-178.82 z"
         style="fill:none;stroke:#040606;stroke-width:14;stroke-linecap:round;stroke-linejoin:round;stroke-miterlimit:10;stroke-dasharray:none;stroke-opacity:1"
         transform="matrix(0.13333333,0,0,-0.13333333,0,666.66667)" />
      <path
         id="path181"
         d="m 4609.36,3092.05 c 0,0 -95.81,63.23 -90.25,120.63 5.56,57.4 67.96,63.99 100.18,-7.32 0,0 19.76,65.86 67.27,47.98 47.5,-17.88 39.71,-104.49 -77.2,-161.29"
         style="fill:#ffffff;fill-opacity:1;fill-rule:nonzero;stroke:none"
         transform="matrix(0.13333333,0,0,-0.13333333,0,666.66667)" />
      <path
         id="path182"
         d="m 4609.36,3092.05 c 0,0 -95.81,63.23 -90.25,120.63 5.56,57.4 67.96,63.99 100.18,-7.32 0,0 19.76,65.86 67.27,47.98 47.5,-17.88 39.71,-104.49 -77.2,-161.29 z"
         style="fill:none;stroke:#040606;stroke-width:14;stroke-linecap:round;stroke-linejoin:round;stroke-miterlimit:10;stroke-dasharray:none;stroke-opacity:1"
         transform="matrix(0.13333333,0,0,-0.13333333,0,666.66667)" />
      <path
         id="path183"
         d="m 1629.32,2734.79 c 0,0 -95.8,63.23 -90.25,120.63 5.56,57.4 67.96,63.98 100.18,-7.32 0,0 19.76,65.86 67.27,47.98 47.5,-17.88 39.71,-104.49 -77.2,-161.29"
         style="fill:#ffffff;fill-opacity:1;fill-rule:nonzero;stroke:none"
         transform="matrix(0.13333333,0,0,-0.13333333,0,666.66667)" />
      <path
         id="path184"
         d="m 1629.32,2734.79 c 0,0 -95.8,63.23 -90.25,120.63 5.56,57.4 67.96,63.98 100.18,-7.32 0,0 19.76,65.86 67.27,47.98 47.5,-17.88 39.71,-104.49 -77.2,-161.29 z"
         style="fill:none;stroke:#040606;stroke-width:14;stroke-linecap:round;stroke-linejoin:round;stroke-miterlimit:10;stroke-dasharray:none;stroke-opacity:1"
         transform="matrix(0.13333333,0,0,-0.13333333,0,666.66667)" />
      <path
         id="path185"
         d="m 2877.57,2734.26 c 0,0 -114.56,-7.19 -144.69,41.99 -30.12,49.17 15.74,91.99 84.4,54.46 0,0 -23.87,64.49 24.82,78.81 48.69,14.33 94.62,-59.52 35.47,-175.26"
         style="fill:#ffffff;fill-opacity:1;fill-rule:nonzero;stroke:none"
         transform="matrix(0.13333333,0,0,-0.13333333,0,666.66667)" />
      <path
         id="path186"
         d="m 2877.57,2734.26 c 0,0 -114.56,-7.19 -144.69,41.99 -30.12,49.17 15.74,91.99 84.4,54.46 0,0 -23.87,64.49 24.82,78.81 48.69,14.33 94.62,-59.52 35.47,-175.26 z"
         style="fill:none;stroke:#040606;stroke-width:14;stroke-linecap:round;stroke-linejoin:round;stroke-miterlimit:10;stroke-dasharray:none;stroke-opacity:1"
         transform="matrix(0.13333333,0,0,-0.13333333,0,666.66667)" />
      <path
         id="path187"
         d="m 1848.94,2010.55 c 0,0 -69.79,46.67 -65.48,88.63 4.32,41.96 49.99,46.49 73.24,-5.8 0,0 14.75,48.09 49.41,34.79 34.67,-13.28 28.59,-76.6 -57.17,-117.62"
         style="fill:#ffffff;fill-opacity:1;fill-rule:nonzero;stroke:none"
         transform="matrix(0.13333333,0,0,-0.13333333,0,666.66667)" />
      <path
         id="path188"
         d="m 1848.94,2010.55 c 0,0 -69.79,46.67 -65.48,88.63 4.32,41.96 49.99,46.49 73.24,-5.8 0,0 14.75,48.09 49.41,34.79 34.67,-13.28 28.59,-76.6 -57.17,-117.62 z"
         style="fill:none;stroke:#040606;stroke-width:14;stroke-linecap:round;stroke-linejoin:round;stroke-miterlimit:10;stroke-dasharray:none;stroke-opacity:1"
         transform="matrix(0.13333333,0,0,-0.13333333,0,666.66667)" />
      <path
         id="path189"
         d="m 2492.69,3264.22 c 0,0 -47.89,68.97 -28.52,106.44 19.36,37.47 63.53,24.99 66.04,-32.18 0,0 31.3,39.36 58.72,14.32 27.4,-25.05 -1.42,-81.75 -96.24,-88.58"
         style="fill:#ffffff;fill-opacity:1;fill-rule:nonzero;stroke:none"
         transform="matrix(0.13333333,0,0,-0.13333333,0,666.66667)" />
      <path
         id="path190"
         d="m 2492.69,3264.22 c 0,0 -47.89,68.97 -28.52,106.44 19.36,37.47 63.53,24.99 66.04,-32.18 0,0 31.3,39.36 58.72,14.32 27.4,-25.05 -1.42,-81.75 -96.24,-88.58 z"
         style="fill:none;stroke:#040606;stroke-width:14;stroke-linecap:round;stroke-linejoin:round;stroke-miterlimit:10;stroke-dasharray:none;stroke-opacity:1"
         transform="matrix(0.13333333,0,0,-0.13333333,0,666.66667)" />
      <path
         id="path191"
         d="m 4006.95,3882.37 c 0,0 -79.72,26.31 -86.78,67.89 -7.06,41.59 35.73,58.17 72.12,14 0,0 1.35,50.28 38.31,46.75 36.95,-3.53 48.02,-66.17 -23.65,-128.64"
         style="fill:#ffffff;fill-opacity:1;fill-rule:nonzero;stroke:none"
         transform="matrix(0.13333333,0,0,-0.13333333,0,666.66667)" />
      <path
         id="path192"
         d="m 4006.95,3882.37 c 0,0 -79.72,26.31 -86.78,67.89 -7.06,41.59 35.73,58.17 72.12,14 0,0 1.35,50.28 38.31,46.75 36.95,-3.53 48.02,-66.17 -23.65,-128.64 z"
         style="fill:none;stroke:#040606;stroke-width:14;stroke-linecap:round;stroke-linejoin:round;stroke-miterlimit:10;stroke-dasharray:none;stroke-opacity:1"
         transform="matrix(0.13333333,0,0,-0.13333333,0,666.66667)" />
      <path
         id="path193"
         d="m 3930.25,352.52 c 0,0 -83.93,78.289 -68.9,133.968 15.03,55.684 77.65,51.782 97.56,-23.886 0,0 30.45,61.648 74.31,36.117 43.87,-25.539 21.77,-109.649 -102.97,-146.199"
         style="fill:#ffffff;fill-opacity:1;fill-rule:nonzero;stroke:none"
         transform="matrix(0.13333333,0,0,-0.13333333,0,666.66667)" />
      <path
         id="path194"
         d="m 3930.25,352.52 c 0,0 -83.93,78.289 -68.9,133.968 15.03,55.684 77.65,51.782 97.56,-23.886 0,0 30.45,61.648 74.31,36.117 43.87,-25.539 21.77,-109.649 -102.97,-146.199 z"
         style="fill:none;stroke:#040606;stroke-width:14;stroke-linecap:round;stroke-linejoin:round;stroke-miterlimit:10;stroke-dasharray:none;stroke-opacity:1"
         transform="matrix(0.13333333,0,0,-0.13333333,0,666.66667)" />
      <path
         id="path195"
         d="m 3335.15,1761.6 c 0,0 -128.83,117.83 -106.8,202.74 22.03,84.89 117.33,79.9 148.73,-34.9 0,0 45.4,94.22 112.49,56.04 67.1,-38.18 34.74,-166.43 -154.42,-223.88"
         style="fill:#ffffff;fill-opacity:1;fill-rule:nonzero;stroke:none"
         transform="matrix(0.13333333,0,0,-0.13333333,0,666.66667)" />
      <path
         id="path196"
         d="m 3335.15,1761.6 c 0,0 -128.83,117.83 -106.8,202.74 22.03,84.89 117.33,79.9 148.73,-34.9 0,0 45.4,94.22 112.49,56.04 67.1,-38.18 34.74,-166.43 -154.42,-223.88 z"
         style="fill:none;stroke:#040606;stroke-width:14;stroke-linecap:round;stroke-linejoin:round;stroke-miterlimit:10;stroke-dasharray:none;stroke-opacity:1"
         transform="matrix(0.13333333,0,0,-0.13333333,0,666.66667)" />
      <path
         id="path197"
         d="m 533.395,913.07 c 0,0 -172.141,29.141 -199.665,112.42 -27.523,83.29 55.258,130.77 143.883,51.34 0,0 -12.945,103.79 64.129,108.08 77.074,4.31 119.434,-121 -8.347,-271.84"
         style="fill:#ffffff;fill-opacity:1;fill-rule:nonzero;stroke:none"
         transform="matrix(0.13333333,0,0,-0.13333333,0,666.66667)" />
      <path
         id="path198"
         d="m 533.395,913.07 c 0,0 -172.141,29.141 -199.665,112.42 -27.523,83.29 55.258,130.77 143.883,51.34 0,0 -12.945,103.79 64.129,108.08 77.074,4.31 119.434,-121 -8.347,-271.84 z"
         style="fill:none;stroke:#040606;stroke-width:14;stroke-linecap:round;stroke-linejoin:round;stroke-miterlimit:10;stroke-dasharray:none;stroke-opacity:1"
         transform="matrix(0.13333333,0,0,-0.13333333,0,666.66667)" />
      <path
         id="path199"
         d="m 738.145,3440.67 c 0,0 -262.2,36.15 -307.786,161.06 -45.586,124.92 77.649,200.72 215.641,84.49 0,0 -24.453,156.66 92.145,166.76 116.589,10.11 186.605,-177.79 0,-412.31"
         style="fill:#ffffff;fill-opacity:1;fill-rule:nonzero;stroke:none"
         transform="matrix(0.13333333,0,0,-0.13333333,0,666.66667)" />
      <path
         id="path200"
         d="m 738.145,3440.67 c 0,0 -262.2,36.15 -307.786,161.06 -45.586,124.92 77.649,200.72 215.641,84.49 0,0 -24.453,156.66 92.145,166.76 116.589,10.11 186.605,-177.79 0,-412.31 z"
         style="fill:none;stroke:#040606;stroke-width:14;stroke-linecap:round;stroke-linejoin:round;stroke-miterlimit:10;stroke-dasharray:none;stroke-opacity:1"
         transform="matrix(0.13333333,0,0,-0.13333333,0,666.66667)" />
      <path
         id="path201"
         d="m 4705.18,1957.88 c 0,0 -263.28,-27.24 -337.26,83.26 -73.97,110.49 27.7,213.42 189.37,133.34 0,0 -61,146.35 49.85,183.89 110.85,37.54 223.52,-128.33 98.04,-400.49"
         style="fill:#ffffff;fill-opacity:1;fill-rule:nonzero;stroke:none"
         transform="matrix(0.13333333,0,0,-0.13333333,0,666.66667)" />
      <path
         id="path202"
         d="m 4705.18,1957.88 c 0,0 -263.28,-27.24 -337.26,83.26 -73.97,110.49 27.7,213.42 189.37,133.34 0,0 -61,146.35 49.85,183.89 110.85,37.54 223.52,-128.33 98.04,-400.49 z"
         style="fill:none;stroke:#040606;stroke-width:14;stroke-linecap:round;stroke-linejoin:round;stroke-miterlimit:10;stroke-dasharray:none;stroke-opacity:1"
         transform="matrix(0.13333333,0,0,-0.13333333,0,666.66667)" />
      <path
         id="path203"
         d="m 4315.5,3836.26 c 0,0 -215.55,238.08 -160.51,389.76 55.04,151.68 228.71,126.03 266.35,-89.63 0,0 99.44,164.7 215.71,83.16 116.27,-81.53 34.82,-310.81 -321.55,-383.29"
         style="fill:#ffffff;fill-opacity:1;fill-rule:nonzero;stroke:none"
         transform="matrix(0.13333333,0,0,-0.13333333,0,666.66667)" />
      <path
         id="path204"
         d="m 4315.5,3836.26 c 0,0 -215.55,238.08 -160.51,389.76 55.04,151.68 228.71,126.03 266.35,-89.63 0,0 99.44,164.7 215.71,83.16 116.27,-81.53 34.82,-310.81 -321.55,-383.29 z"
         style="fill:none;stroke:#040606;stroke-width:14;stroke-linecap:round;stroke-linejoin:round;stroke-miterlimit:10;stroke-dasharray:none;stroke-opacity:1"
         transform="matrix(0.13333333,0,0,-0.13333333,0,666.66667)" />
    </g>
  </g>
</svg>
