<?xml version="1.0" encoding="UTF-8" standalone="no"?>
<!-- Created with Inkscape (http://www.inkscape.org/) -->

<svg
   version="1.1"
   id="svg1"
   width="666.66669"
   height="666.66669"
   viewBox="0 0 666.66669 666.66669"
   sodipodi:docname="02.eps"
   xmlns:inkscape="http://www.inkscape.org/namespaces/inkscape"
   xmlns:sodipodi="http://sodipodi.sourceforge.net/DTD/sodipodi-0.dtd"
   xmlns="http://www.w3.org/2000/svg"
   xmlns:svg="http://www.w3.org/2000/svg">
  <defs
     id="defs1" />
  <sodipodi:namedview
     id="namedview1"
     pagecolor="#ffffff"
     bordercolor="#000000"
     borderopacity="0.25"
     inkscape:showpageshadow="2"
     inkscape:pageopacity="0.0"
     inkscape:pagecheckerboard="0"
     inkscape:deskcolor="#d1d1d1">
    <inkscape:page
       x="0"
       y="0"
       inkscape:label="1"
       id="page1"
       width="666.66669"
       height="666.66669"
       margin="0"
       bleed="0" />
  </sodipodi:namedview>
  <g
     id="g1"
     inkscape:groupmode="layer"
     inkscape:label="1">
    <g
       id="group-R5">
      <path
         id="path2"
         d="M 5000,0 H 0 V 5000 H 5000 V 0"
         style="fill:#ffffff;fill-opacity:1;fill-rule:nonzero;stroke:none"
         transform="matrix(0.13333333,0,0,-0.13333333,0,666.66667)" />
      <path
         id="path3"
         d="m 4182.75,4202.21 c 30.93,105.37 -14.74,228.47 -106.92,288.16 -92.17,59.69 -213.99,58.12 -297.5,-13.2 34.79,72.82 8.87,169.18 -57.76,214.72 -66.62,45.53 -178.29,46.96 -233.49,-11.9 -58.6,82.04 -170.15,122.14 -267.57,96.17 -97.42,-25.96 -163.93,-118.7 -173.93,-219.03 -96.32,29.65 -207.66,3.8 -281.06,-65.24 -73.4,-69.05 -105.99,-178.61 -82.27,-276.56 l 1500.5,-13.12"
         style="fill:#ffffff;fill-opacity:1;fill-rule:nonzero;stroke:none"
         transform="matrix(0.13333333,0,0,-0.13333333,0,666.66667)" />
      <path
         id="path4"
         d="m 4182.75,4202.21 c 30.93,105.37 -14.74,228.47 -106.92,288.16 -92.17,59.69 -213.99,58.12 -297.5,-13.2 34.79,72.82 8.87,169.18 -57.76,214.72 -66.62,45.53 -178.29,46.96 -233.49,-11.9 -58.6,82.04 -170.15,122.14 -267.57,96.17 -97.42,-25.96 -163.93,-118.7 -173.93,-219.03 -96.32,29.65 -207.66,3.8 -281.06,-65.24 -73.4,-69.05 -105.99,-178.61 -82.27,-276.56 z"
         style="fill:none;stroke:#2f2e2f;stroke-width:20;stroke-linecap:round;stroke-linejoin:round;stroke-miterlimit:10;stroke-dasharray:none;stroke-opacity:1"
         transform="matrix(0.13333333,0,0,-0.13333333,0,666.66667)" />
      <path
         id="path5"
         d="m 784.973,4367.03 c 0,-105.43 -85.469,-190.9 -190.907,-190.9 -105.429,0 -190.902,85.47 -190.902,190.9 0,105.43 85.473,190.9 190.902,190.9 105.438,0 190.907,-85.47 190.907,-190.9"
         style="fill:#ffffff;fill-opacity:1;fill-rule:nonzero;stroke:none"
         transform="matrix(0.13333333,0,0,-0.13333333,0,666.66667)" />
      <path
         id="path6"
         d="m 784.973,4367.03 c 0,-105.43 -85.469,-190.9 -190.907,-190.9 -105.429,0 -190.902,85.47 -190.902,190.9 0,105.43 85.473,190.9 190.902,190.9 105.438,0 190.907,-85.47 190.907,-190.9 z"
         style="fill:none;stroke:#2f2e2f;stroke-width:20;stroke-linecap:round;stroke-linejoin:round;stroke-miterlimit:10;stroke-dasharray:none;stroke-opacity:1"
         transform="matrix(0.13333333,0,0,-0.13333333,0,666.66667)" />
      <path
         id="path7"
         d="m 621.051,4657.43 h -53.965 v 175.7 c 0,14.9 12.078,26.98 26.98,26.98 v 0 c 14.903,0 26.985,-12.08 26.985,-26.98 v -175.7"
         style="fill:#ffffff;fill-opacity:1;fill-rule:nonzero;stroke:none"
         transform="matrix(0.13333333,0,0,-0.13333333,0,666.66667)" />
      <path
         id="path8"
         d="m 621.051,4657.43 h -53.965 v 175.7 c 0,14.9 12.078,26.98 26.98,26.98 v 0 c 14.903,0 26.985,-12.08 26.985,-26.98 z"
         style="fill:none;stroke:#2f2e2f;stroke-width:20;stroke-linecap:round;stroke-linejoin:round;stroke-miterlimit:10;stroke-dasharray:none;stroke-opacity:1"
         transform="matrix(0.13333333,0,0,-0.13333333,0,666.66667)" />
      <path
         id="path9"
         d="m 621.051,4060.12 h -53.965 v -175.7 c 0,-14.89 12.078,-26.97 26.98,-26.97 v 0 c 14.903,0 26.985,12.08 26.985,26.97 v 175.7"
         style="fill:#ffffff;fill-opacity:1;fill-rule:nonzero;stroke:none"
         transform="matrix(0.13333333,0,0,-0.13333333,0,666.66667)" />
      <path
         id="path10"
         d="m 621.051,4060.12 h -53.965 v -175.7 c 0,-14.89 12.078,-26.97 26.98,-26.97 v 0 c 14.903,0 26.985,12.08 26.985,26.97 z"
         style="fill:none;stroke:#2f2e2f;stroke-width:20;stroke-linecap:round;stroke-linejoin:round;stroke-miterlimit:10;stroke-dasharray:none;stroke-opacity:1"
         transform="matrix(0.13333333,0,0,-0.13333333,0,666.66667)" />
      <path
         id="path11"
         d="m 818.652,4557.48 -39.254,37.04 120.575,127.79 c 10.226,10.84 27.3,11.34 38.14,1.11 v 0 c 10.84,-10.23 11.336,-27.3 1.11,-38.14 l -120.571,-127.8"
         style="fill:#ffffff;fill-opacity:1;fill-rule:nonzero;stroke:none"
         transform="matrix(0.13333333,0,0,-0.13333333,0,666.66667)" />
      <path
         id="path12"
         d="m 818.652,4557.48 -39.254,37.04 120.575,127.79 c 10.226,10.84 27.3,11.34 38.14,1.11 v 0 c 10.84,-10.23 11.336,-27.3 1.11,-38.14 z"
         style="fill:none;stroke:#2f2e2f;stroke-width:20;stroke-linecap:round;stroke-linejoin:round;stroke-miterlimit:10;stroke-dasharray:none;stroke-opacity:1"
         transform="matrix(0.13333333,0,0,-0.13333333,0,666.66667)" />
      <path
         id="path13"
         d="m 408.734,4123.03 -39.246,37.04 -120.574,-127.8 c -10.226,-10.83 -9.73,-27.91 1.109,-38.14 v 0 c 10.836,-10.22 27.911,-9.73 38.141,1.11 l 120.57,127.79"
         style="fill:#ffffff;fill-opacity:1;fill-rule:nonzero;stroke:none"
         transform="matrix(0.13333333,0,0,-0.13333333,0,666.66667)" />
      <path
         id="path14"
         d="m 408.734,4123.03 -39.246,37.04 -120.574,-127.8 c -10.226,-10.83 -9.73,-27.91 1.109,-38.14 v 0 c 10.836,-10.22 27.911,-9.73 38.141,1.11 z"
         style="fill:none;stroke:#2f2e2f;stroke-width:20;stroke-linecap:round;stroke-linejoin:round;stroke-miterlimit:10;stroke-dasharray:none;stroke-opacity:1"
         transform="matrix(0.13333333,0,0,-0.13333333,0,666.66667)" />
      <path
         id="path15"
         d="m 892.727,4331.8 v 53.96 h 175.693 c 14.9,0 26.98,-12.08 26.98,-26.99 v 0 c 0,-14.89 -12.08,-26.97 -26.98,-26.97 H 892.727"
         style="fill:#ffffff;fill-opacity:1;fill-rule:nonzero;stroke:none"
         transform="matrix(0.13333333,0,0,-0.13333333,0,666.66667)" />
      <path
         id="path16"
         d="m 892.727,4331.8 v 53.96 h 175.693 c 14.9,0 26.98,-12.08 26.98,-26.99 v 0 c 0,-14.89 -12.08,-26.97 -26.98,-26.97 z"
         style="fill:none;stroke:#2f2e2f;stroke-width:20;stroke-linecap:round;stroke-linejoin:round;stroke-miterlimit:10;stroke-dasharray:none;stroke-opacity:1"
         transform="matrix(0.13333333,0,0,-0.13333333,0,666.66667)" />
      <path
         id="path17"
         d="m 295.414,4331.8 v 53.96 H 119.719 c -14.899,0 -26.9807,-12.08 -26.9807,-26.99 v 0 c 0,-14.89 12.0817,-26.97 26.9807,-26.97 h 175.695"
         style="fill:#ffffff;fill-opacity:1;fill-rule:nonzero;stroke:none"
         transform="matrix(0.13333333,0,0,-0.13333333,0,666.66667)" />
      <path
         id="path18"
         d="m 295.414,4331.8 v 53.96 H 119.719 c -14.899,0 -26.9807,-12.08 -26.9807,-26.99 v 0 c 0,-14.89 12.0817,-26.97 26.9807,-26.97 z"
         style="fill:none;stroke:#2f2e2f;stroke-width:20;stroke-linecap:round;stroke-linejoin:round;stroke-miterlimit:10;stroke-dasharray:none;stroke-opacity:1"
         transform="matrix(0.13333333,0,0,-0.13333333,0,666.66667)" />
      <path
         id="path19"
         d="m 786.172,4128.52 38.152,38.16 124.239,-124.24 c 10.539,-10.54 10.539,-27.62 0,-38.16 v 0 c -10.536,-10.53 -27.622,-10.53 -38.157,0 l -124.234,124.24"
         style="fill:#ffffff;fill-opacity:1;fill-rule:nonzero;stroke:none"
         transform="matrix(0.13333333,0,0,-0.13333333,0,666.66667)" />
      <path
         id="path20"
         d="m 786.172,4128.52 38.152,38.16 124.239,-124.24 c 10.539,-10.54 10.539,-27.62 0,-38.16 v 0 c -10.536,-10.53 -27.622,-10.53 -38.157,0 z"
         style="fill:none;stroke:#2f2e2f;stroke-width:20;stroke-linecap:round;stroke-linejoin:round;stroke-miterlimit:10;stroke-dasharray:none;stroke-opacity:1"
         transform="matrix(0.13333333,0,0,-0.13333333,0,666.66667)" />
      <path
         id="path21"
         d="m 363.809,4550.88 38.16,38.16 -124.239,124.23 c -10.539,10.54 -27.617,10.54 -38.156,0 v 0 c -10.535,-10.54 -10.535,-27.62 0,-38.16 l 124.235,-124.23"
         style="fill:#ffffff;fill-opacity:1;fill-rule:nonzero;stroke:none"
         transform="matrix(0.13333333,0,0,-0.13333333,0,666.66667)" />
      <path
         id="path22"
         d="m 363.809,4550.88 38.16,38.16 -124.239,124.23 c -10.539,10.54 -27.617,10.54 -38.156,0 v 0 c -10.535,-10.54 -10.535,-27.62 0,-38.16 z"
         style="fill:none;stroke:#2f2e2f;stroke-width:20;stroke-linecap:round;stroke-linejoin:round;stroke-miterlimit:10;stroke-dasharray:none;stroke-opacity:1"
         transform="matrix(0.13333333,0,0,-0.13333333,0,666.66667)" />
      <path
         id="path23"
         d="m 4590.67,3979.61 c -5.52,0 -10,4.48 -10,10 0,156.64 -77.77,292.01 -184.92,321.87 -6.48,1.81 -10.75,7.73 -10.38,14.4 0.36,6.67 5.26,12.08 11.92,13.16 106.25,17.34 183.38,143 183.38,298.8 0,5.52 4.48,10 10,10 5.53,0 10,-4.48 10,-10 0,-155.8 77.13,-281.46 183.4,-298.8 6.65,-1.08 11.55,-6.49 11.92,-13.16 0.37,-6.67 -3.9,-12.59 -10.38,-14.4 -107.16,-29.86 -184.94,-165.23 -184.94,-321.87 0,-5.52 -4.47,-10 -10,-10"
         style="fill:#ffffff;fill-opacity:1;fill-rule:nonzero;stroke:none"
         transform="matrix(0.13333333,0,0,-0.13333333,0,666.66667)" />
      <path
         id="path24"
         d="m 4590.67,4657.84 c -11.04,0 -20,-8.96 -20,-20 0,-150.88 -73.59,-272.39 -175,-288.92 -11.31,-1.85 -19.65,-11.1 -20.29,-22.5 -0.62,-11.38 6.65,-21.49 17.69,-24.57 102.92,-28.68 177.6,-160 177.6,-312.24 0,-11.05 8.96,-20 20,-20 11.06,0 20,8.95 20,20 0,152.24 74.7,283.56 177.62,312.24 11.04,3.08 18.31,13.19 17.69,24.58 -0.64,11.39 -8.99,20.64 -20.31,22.49 -101.39,16.53 -175,138.04 -175,288.92 0,11.04 -8.94,20 -20,20 z m 0,-20 c 0,-163.84 81.61,-290.69 191.79,-308.66 4.47,-0.73 4.82,-6.84 0.46,-8.06 -110.41,-30.78 -192.25,-167.44 -192.25,-331.51 0,164.07 -81.82,300.73 -192.23,331.51 -4.37,1.22 -4.02,7.33 0.46,8.06 110.17,17.97 191.77,144.82 191.77,308.66"
         style="fill:#2f2e2f;fill-opacity:1;fill-rule:nonzero;stroke:none"
         transform="matrix(0.13333333,0,0,-0.13333333,0,666.66667)" />
      <path
         id="path25"
         d="m 3730.64,129.891 c -5.52,0 -10,4.48 -10,10 0,113.449 -77.48,211.64 -184.23,233.488 -6.78,1.383 -11.34,6.812 -11.09,13.203 0.27,6.477 5.34,11.59 12.36,12.43 106.01,12.699 182.96,103.777 182.96,216.59 0,5.519 4.48,10 10,10 5.53,0 10,-4.481 10,-10 0,-112.813 76.96,-203.891 182.98,-216.59 7.01,-0.84 12.09,-5.953 12.36,-12.43 0.25,-6.391 -4.31,-11.82 -11.1,-13.203 -106.75,-21.848 -184.24,-120.039 -184.24,-233.488 0,-5.52 -4.47,-10 -10,-10"
         style="fill:#ffffff;fill-opacity:1;fill-rule:nonzero;stroke:none"
         transform="matrix(0.13333333,0,0,-0.13333333,0,666.66667)" />
      <path
         id="path26"
         d="m 3730.64,635.602 c -11.04,0 -20,-8.961 -20,-20 0,-107.672 -73.24,-194.571 -174.15,-206.653 -11.79,-1.418 -20.69,-10.648 -21.16,-21.949 -0.46,-11.219 7.56,-21.07 19.07,-23.43 102.12,-20.879 176.24,-114.961 176.24,-223.679 0,-11.039 8.96,-20 20,-20 11.06,0 20,8.961 20,20 0,108.718 74.14,202.8 176.25,223.679 11.52,2.36 19.54,12.211 19.07,23.43 -0.46,11.301 -9.36,20.531 -21.16,21.949 -100.9,12.082 -174.16,98.981 -174.16,206.653 0,11.039 -8.94,20 -20,20 z m 0,-20 c 0,-120.243 81.62,-213.321 191.79,-226.52 4.47,-0.543 4.83,-5.023 0.46,-5.91 -110.41,-22.582 -192.25,-122.871 -192.25,-243.281 0,120.41 -81.82,220.699 -192.23,243.281 -4.37,0.887 -4.02,5.367 0.46,5.91 110.17,13.199 191.77,106.277 191.77,226.52"
         style="fill:#2f2e2f;fill-opacity:1;fill-rule:nonzero;stroke:none"
         transform="matrix(0.13333333,0,0,-0.13333333,0,666.66667)" />
      <path
         id="path27"
         d="m 1353.95,129.891 c -5.52,0 -10,4.48 -10,10 0,113.449 -77.49,211.64 -184.24,233.488 -6.78,1.383 -11.34,6.812 -11.08,13.203 0.27,6.477 5.34,11.59 12.35,12.43 106.02,12.699 182.97,103.777 182.97,216.59 0,5.519 4.48,10 10,10 5.52,0 10,-4.481 10,-10 0,-112.813 76.95,-203.891 182.97,-216.59 7.01,-0.84 12.09,-5.953 12.35,-12.43 0.26,-6.391 -4.29,-11.82 -11.08,-13.203 -106.75,-21.848 -184.24,-120.039 -184.24,-233.488 0,-5.52 -4.48,-10 -10,-10"
         style="fill:#ffffff;fill-opacity:1;fill-rule:nonzero;stroke:none"
         transform="matrix(0.13333333,0,0,-0.13333333,0,666.66667)" />
      <path
         id="path28"
         d="m 1353.95,635.602 c -11.04,0 -20,-8.961 -20,-20 0,-107.672 -73.24,-194.571 -174.16,-206.653 -11.79,-1.418 -20.68,-10.648 -21.15,-21.949 -0.46,-11.219 7.56,-21.07 19.07,-23.43 102.12,-20.879 176.24,-114.961 176.24,-223.679 0,-11.039 8.96,-20 20,-20 11.05,0 20,8.961 20,20 0,108.718 74.13,202.8 176.25,223.679 11.51,2.36 19.53,12.211 19.06,23.43 -0.46,11.301 -9.36,20.531 -21.15,21.949 -100.91,12.082 -174.16,98.981 -174.16,206.653 0,11.039 -8.95,20 -20,20 z m 0,-20 c 0,-120.243 81.6,-213.321 191.78,-226.52 4.47,-0.543 4.83,-5.023 0.46,-5.91 -110.41,-22.582 -192.24,-122.871 -192.24,-243.281 0,120.41 -81.83,220.699 -192.24,243.281 -4.36,0.887 -4.01,5.367 0.46,5.91 110.18,13.199 191.78,106.277 191.78,226.52"
         style="fill:#2f2e2f;fill-opacity:1;fill-rule:nonzero;stroke:none"
         transform="matrix(0.13333333,0,0,-0.13333333,0,666.66667)" />
      <path
         id="path29"
         d="m 633.434,3444.77 c -34.567,41.85 -89.645,65.72 -140.039,55.63 -49.872,-9.99 -91.504,-55.57 -94.735,-109.1 -34.222,41.29 -94.734,53.48 -140.879,32.08 -46.625,-21.62 -76.968,-73.41 -80.144,-127.6 -3.168,-54.19 18.957,-109.32 54.781,-149.99 35.719,-40.56 83.719,-67.23 133.324,-83.96 48.539,-16.37 99.004,-23.85 149.207,-31.08 0,0 1.024,-0.22 1.649,-0.24 0.39,0.31 1.183,1.16 1.183,1.16 36.242,35.49 72.539,71.34 102.043,113.22 30.149,42.79 53.129,92.67 57.996,146.49 4.883,53.98 -9.824,111.53 -44.386,153.39"
         style="fill:#ffffff;fill-opacity:1;fill-rule:nonzero;stroke:none"
         transform="matrix(0.13333333,0,0,-0.13333333,0,666.66667)" />
      <path
         id="path30"
         d="m 633.434,3444.77 c -34.567,41.85 -89.645,65.72 -140.039,55.63 -49.872,-9.99 -91.504,-55.57 -94.735,-109.1 -34.222,41.29 -94.734,53.48 -140.879,32.08 -46.625,-21.62 -76.968,-73.41 -80.144,-127.6 -3.168,-54.19 18.957,-109.32 54.781,-149.99 35.719,-40.56 83.719,-67.23 133.324,-83.96 48.539,-16.37 99.004,-23.85 149.207,-31.08 0,0 1.024,-0.22 1.649,-0.24 0.39,0.31 1.183,1.16 1.183,1.16 36.242,35.49 72.539,71.34 102.043,113.22 30.149,42.79 53.129,92.67 57.996,146.49 4.883,53.98 -9.824,111.53 -44.386,153.39 z"
         style="fill:none;stroke:#2f2e2f;stroke-width:20;stroke-linecap:round;stroke-linejoin:round;stroke-miterlimit:10;stroke-dasharray:none;stroke-opacity:1"
         transform="matrix(0.13333333,0,0,-0.13333333,0,666.66667)" />
      <path
         id="path31"
         d="m 4451.17,3444.77 c 34.56,41.85 89.64,65.72 140.04,55.63 49.86,-9.99 91.5,-55.57 94.73,-109.1 34.23,41.29 94.73,53.48 140.88,32.08 46.63,-21.62 76.97,-73.41 80.14,-127.6 3.18,-54.19 -18.95,-109.32 -54.77,-149.99 -35.73,-40.56 -83.72,-67.23 -133.33,-83.96 -48.55,-16.37 -99.01,-23.85 -149.21,-31.08 0,0 -1.02,-0.22 -1.64,-0.24 -0.39,0.31 -1.19,1.16 -1.19,1.16 -36.24,35.49 -72.54,71.34 -102.04,113.22 -30.15,42.79 -53.13,92.67 -58,146.49 -4.89,53.98 9.82,111.53 44.39,153.39"
         style="fill:#ffffff;fill-opacity:1;fill-rule:nonzero;stroke:none"
         transform="matrix(0.13333333,0,0,-0.13333333,0,666.66667)" />
      <path
         id="path32"
         d="m 4451.17,3444.77 c 34.56,41.85 89.64,65.72 140.04,55.63 49.86,-9.99 91.5,-55.57 94.73,-109.1 34.23,41.29 94.73,53.48 140.88,32.08 46.63,-21.62 76.97,-73.41 80.14,-127.6 3.18,-54.19 -18.95,-109.32 -54.77,-149.99 -35.73,-40.56 -83.72,-67.23 -133.33,-83.96 -48.55,-16.37 -99.01,-23.85 -149.21,-31.08 0,0 -1.02,-0.22 -1.64,-0.24 -0.39,0.31 -1.19,1.16 -1.19,1.16 -36.24,35.49 -72.54,71.34 -102.04,113.22 -30.15,42.79 -53.13,92.67 -58,146.49 -4.89,53.98 9.82,111.53 44.39,153.39 z"
         style="fill:none;stroke:#2f2e2f;stroke-width:20;stroke-linecap:round;stroke-linejoin:round;stroke-miterlimit:10;stroke-dasharray:none;stroke-opacity:1"
         transform="matrix(0.13333333,0,0,-0.13333333,0,666.66667)" />
      <path
         id="path33"
         d="m 710.113,1939.28 c -51.797,-79.77 -164.383,-106.12 -253.859,-73.88 -89.477,32.23 -155.477,112.66 -189.477,201.47 -34,88.82 -39.722,185.85 -38.507,280.95 0.671,52.25 5.125,109.09 40.23,147.78 36.152,39.84 99.066,48.99 148.75,28.36 49.68,-20.63 85.938,-66.84 102.891,-117.9 16.961,-51.04 16.32,-106.54 7.5,-159.6 -4.852,-29.22 -12.145,-58.3 -11.993,-87.92 0.153,-29.61 8.907,-60.79 31.051,-80.46 23.793,-21.14 59.324,-25.18 90.031,-16.8 30.704,8.37 57.336,27.52 81.243,48.52 -0.293,-48.81 -7.563,-121.7 -7.86,-170.52"
         style="fill:#ffffff;fill-opacity:1;fill-rule:nonzero;stroke:none"
         transform="matrix(0.13333333,0,0,-0.13333333,0,666.66667)" />
      <path
         id="path34"
         d="m 710.113,1939.28 c -51.797,-79.77 -164.383,-106.12 -253.859,-73.88 -89.477,32.23 -155.477,112.66 -189.477,201.47 -34,88.82 -39.722,185.85 -38.507,280.95 0.671,52.25 5.125,109.09 40.23,147.78 36.152,39.84 99.066,48.99 148.75,28.36 49.68,-20.63 85.938,-66.84 102.891,-117.9 16.961,-51.04 16.32,-106.54 7.5,-159.6 -4.852,-29.22 -12.145,-58.3 -11.993,-87.92 0.153,-29.61 8.907,-60.79 31.051,-80.46 23.793,-21.14 59.324,-25.18 90.031,-16.8 30.704,8.37 57.336,27.52 81.243,48.52 -0.293,-48.81 -7.563,-121.7 -7.86,-170.52 z"
         style="fill:none;stroke:#2f2e2f;stroke-width:20;stroke-linecap:round;stroke-linejoin:round;stroke-miterlimit:10;stroke-dasharray:none;stroke-opacity:1"
         transform="matrix(0.13333333,0,0,-0.13333333,0,666.66667)" />
      <path
         id="path35"
         d="m 337.488,2410.83 c -4.812,0 -9.054,3.48 -9.855,8.38 -3.387,20.65 -7.676,39.34 -13.117,57.14 -1.61,5.28 1.363,10.87 6.64,12.49 5.266,1.61 10.871,-1.36 12.492,-6.64 5.704,-18.66 10.192,-38.21 13.719,-59.76 0.895,-5.45 -2.801,-10.58 -8.25,-11.48 -0.547,-0.09 -1.094,-0.13 -1.629,-0.13"
         style="fill:#2f2e2f;fill-opacity:1;fill-rule:nonzero;stroke:none"
         transform="matrix(0.13333333,0,0,-0.13333333,0,666.66667)" />
      <path
         id="path36"
         d="m 353.727,2173.91 c -5.082,0 -9.434,3.85 -9.942,9.02 -1.765,17.87 -3.047,36.84 -4.051,59.69 -0.554,12.67 -1,25.39 -1.437,38.11 l -0.77,21.42 c -0.203,5.53 4.106,10.16 9.621,10.37 5.411,0.45 10.161,-4.09 10.372,-9.61 l 0.761,-21.48 c 0.446,-12.67 0.879,-25.32 1.438,-37.93 0.984,-22.48 2.246,-41.11 3.969,-58.62 0.542,-5.49 -3.477,-10.39 -8.969,-10.92 -0.332,-0.03 -0.664,-0.05 -0.992,-0.05 z m 85.011,-216.71 c -2.55,0 -5.109,0.97 -7.062,2.92 -14.547,14.52 -27.145,30.68 -37.442,48.05 -10.156,17.13 -18.929,36.09 -26.07,56.33 -1.84,5.22 0.895,10.93 6.106,12.77 5.195,1.79 10.921,-0.91 12.75,-6.11 6.71,-19.02 14.921,-36.78 24.421,-52.79 9.438,-15.93 21,-30.76 34.364,-44.09 3.906,-3.91 3.918,-10.24 0.015,-14.14 -1.953,-1.97 -4.515,-2.94 -7.082,-2.94"
         style="fill:#2f2e2f;fill-opacity:1;fill-rule:nonzero;stroke:none"
         transform="matrix(0.13333333,0,0,-0.13333333,0,666.66667)" />
      <path
         id="path37"
         d="m 571.918,1896.85 c -10.809,0 -21.742,1.09 -32.723,3.3 -5.418,1.08 -8.922,6.35 -7.84,11.76 1.086,5.42 6.333,8.99 11.774,7.85 18.934,-3.8 37.656,-3.88 55.66,-0.25 5.434,1.12 10.684,-2.41 11.781,-7.82 1.09,-5.42 -2.41,-10.69 -7.828,-11.79 -10.109,-2.04 -20.414,-3.05 -30.824,-3.05"
         style="fill:#2f2e2f;fill-opacity:1;fill-rule:nonzero;stroke:none"
         transform="matrix(0.13333333,0,0,-0.13333333,0,666.66667)" />
      <path
         id="path38"
         d="m 1220.58,1585.31 c 55.39,230.59 75.31,469.67 58.84,706.24 -9.39,134.87 -35.64,279.29 -132.78,373.31 -74.59,72.2 -186.464,103.6 -287.734,80.76 -106.621,-24.05 -195.383,-104.22 -245.808,-201.19 -50.43,-96.97 -65.7,-209.16 -61.102,-318.36 4.602,-109.2 28.109,-216.62 51.535,-323.37 22.231,-101.32 44.457,-202.65 66.688,-303.97 180.203,-1.81 370.161,-11.62 550.361,-13.42"
         style="fill:#ffffff;fill-opacity:1;fill-rule:nonzero;stroke:none"
         transform="matrix(0.13333333,0,0,-0.13333333,0,666.66667)" />
      <path
         id="path39"
         d="m 1220.58,1585.31 c 55.39,230.59 75.31,469.67 58.84,706.24 -9.39,134.87 -35.64,279.29 -132.78,373.31 -74.59,72.2 -186.464,103.6 -287.734,80.76 -106.621,-24.05 -195.383,-104.22 -245.808,-201.19 -50.43,-96.97 -65.7,-209.16 -61.102,-318.36 4.602,-109.2 28.109,-216.62 51.535,-323.37 22.231,-101.32 44.457,-202.65 66.688,-303.97 180.203,-1.81 370.161,-11.62 550.361,-13.42 z"
         style="fill:none;stroke:#2f2e2f;stroke-width:20;stroke-linecap:round;stroke-linejoin:round;stroke-miterlimit:10;stroke-dasharray:none;stroke-opacity:1"
         transform="matrix(0.13333333,0,0,-0.13333333,0,666.66667)" />
      <path
         id="path40"
         d="m 1046.07,2675.43 c -2.92,0 -5.83,1.28 -7.79,3.74 -12.4,15.41 -25.99,29.44 -40.397,41.69 -4.207,3.58 -4.719,9.89 -1.141,14.1 3.578,4.21 9.888,4.72 14.098,1.14 15.37,-13.07 29.84,-28.01 43.02,-44.4 3.46,-4.3 2.78,-10.6 -1.53,-14.06 -1.84,-1.48 -4.05,-2.21 -6.26,-2.21"
         style="fill:#2f2e2f;fill-opacity:1;fill-rule:nonzero;stroke:none"
         transform="matrix(0.13333333,0,0,-0.13333333,0,666.66667)" />
      <path
         id="path41"
         d="m 1133.92,2471.01 c -4.71,0 -8.9,3.33 -9.81,8.12 -3.44,18.01 -7.54,35.48 -12.2,51.9 -5.27,18.61 -11.54,36.7 -18.63,53.78 -2.13,5.11 0.29,10.96 5.39,13.08 5.11,2.11 10.95,-0.31 13.07,-5.4 7.4,-17.8 13.92,-36.65 19.41,-56 4.82,-16.99 9.06,-35.03 12.6,-53.61 1.04,-5.43 -2.51,-10.66 -7.94,-11.7 -0.64,-0.12 -1.27,-0.17 -1.89,-0.17 z m 18.58,-223.69 c -5.39,0 -9.84,4.31 -9.99,9.74 -0.42,16.06 -0.94,32.1 -1.56,48.15 -0.96,24.81 -2.02,45.03 -3.32,63.66 -0.39,5.51 3.77,10.28 9.28,10.66 5.41,0.34 10.29,-3.77 10.67,-9.28 1.31,-18.82 2.38,-39.24 3.35,-64.25 0.63,-16.15 1.15,-32.28 1.57,-48.41 0.16,-5.52 -4.2,-10.12 -9.72,-10.27 -0.09,0 -0.19,0 -0.28,0 z m -0.81,-224.65 c -0.11,0 -0.22,0 -0.33,0.01 -5.53,0.17 -9.85,4.8 -9.67,10.32 1.24,37.14 1.94,74.82 2.08,112.02 0.02,5.51 4.49,9.96 10,9.96 0.01,0 0.02,0 0.03,0 5.53,-0.02 9.99,-4.51 9.97,-10.04 -0.14,-37.38 -0.84,-75.27 -2.09,-112.61 -0.18,-5.41 -4.61,-9.66 -9.99,-9.66 z m -14.15,-224.23 c -0.3,0 -0.62,0.01 -0.94,0.04 -5.49,0.51 -9.54,5.39 -9.03,10.89 3.45,36.99 6.38,74.57 8.72,111.69 0.36,5.52 5.08,9.62 10.61,9.36 5.52,-0.35 9.7,-5.1 9.35,-10.61 -2.34,-37.33 -5.3,-75.11 -8.76,-112.3 -0.49,-5.19 -4.84,-9.07 -9.95,-9.07"
         style="fill:#2f2e2f;fill-opacity:1;fill-rule:nonzero;stroke:none"
         transform="matrix(0.13333333,0,0,-0.13333333,0,666.66667)" />
      <path
         id="path42"
         d="m 1117.66,1627.2 c -0.46,0 -0.93,0.03 -1.4,0.09 -5.47,0.77 -9.29,5.82 -8.52,11.28 2.75,19.77 5.35,39.54 7.79,59.34 0.67,5.49 5.71,9.47 11.14,8.7 5.48,-0.67 9.38,-5.66 8.71,-11.14 -2.46,-19.9 -5.06,-39.79 -7.84,-59.65 -0.69,-5.01 -4.97,-8.62 -9.88,-8.62"
         style="fill:#2f2e2f;fill-opacity:1;fill-rule:nonzero;stroke:none"
         transform="matrix(0.13333333,0,0,-0.13333333,0,666.66667)" />
      <path
         id="path43"
         d="m 775.609,2647.14 c -1.949,0 -3.91,0.57 -5.632,1.75 -4.563,3.11 -5.735,9.33 -2.614,13.89 11.668,17.1 24.438,33.31 37.934,48.2 3.703,4.08 10.023,4.41 14.129,0.69 4.09,-3.72 4.398,-10.04 0.687,-14.13 -12.886,-14.21 -25.078,-29.7 -36.242,-46.04 -1.937,-2.83 -5.07,-4.36 -8.262,-4.36"
         style="fill:#2f2e2f;fill-opacity:1;fill-rule:nonzero;stroke:none"
         transform="matrix(0.13333333,0,0,-0.13333333,0,666.66667)" />
      <path
         id="path44"
         d="m 693.152,2447.62 c -0.695,0 -1.398,0.07 -2.105,0.22 -5.399,1.15 -8.84,6.48 -7.684,11.88 7.926,36.99 18.723,72.47 32.09,105.43 2.074,5.12 7.906,7.58 13.031,5.51 5.114,-2.08 7.586,-7.91 5.504,-13.03 -12.933,-31.88 -23.386,-66.24 -31.066,-102.1 -1.008,-4.7 -5.156,-7.91 -9.77,-7.91 z m -17.57,-216.03 c -5.426,0 -9.883,4.35 -9.996,9.8 -0.195,9.55 -0.305,19.09 -0.305,28.63 0,28.59 0.934,55.05 2.856,80.86 0.41,5.51 5.105,9.71 10.711,9.23 5.511,-0.41 9.636,-5.21 9.226,-10.72 -1.879,-25.31 -2.793,-51.27 -2.793,-79.37 0,-9.4 0.11,-18.81 0.305,-28.22 0.113,-5.52 -4.27,-10.09 -9.793,-10.21 -0.07,0 -0.141,0 -0.211,0 z m 15.934,-216.57 c -5.016,0 -9.348,3.77 -9.922,8.88 -4.071,35.92 -7.547,72.42 -10.317,108.47 -0.425,5.51 3.696,10.33 9.207,10.75 5.438,0.42 10.301,-3.7 10.731,-9.2 2.762,-35.82 6.207,-72.08 10.25,-107.78 0.621,-5.49 -3.324,-10.44 -8.809,-11.05 -0.383,-0.05 -0.765,-0.07 -1.14,-0.07 z m 32.218,-214.77 c -4.726,0 -8.925,3.35 -9.824,8.17 -6.648,35.57 -12.742,71.73 -18.094,107.45 -0.828,5.46 2.938,10.56 8.399,11.38 5.414,0.76 10.558,-2.94 11.371,-8.41 5.328,-35.49 11.379,-71.41 17.984,-106.75 1.016,-5.43 -2.562,-10.65 -7.996,-11.67 -0.617,-0.11 -1.234,-0.17 -1.84,-0.17"
         style="fill:#2f2e2f;fill-opacity:1;fill-rule:nonzero;stroke:none"
         transform="matrix(0.13333333,0,0,-0.13333333,0,666.66667)" />
      <path
         id="path45"
         d="m 759.379,1635.37 c -4.492,0 -8.578,3.05 -9.699,7.62 -4.793,19.48 -9.387,39.02 -13.778,58.61 -1.211,5.39 2.172,10.73 7.567,11.94 5.363,1.25 10.73,-2.16 11.941,-7.56 4.371,-19.46 8.93,-38.86 13.692,-58.23 1.32,-5.36 -1.961,-10.77 -7.325,-12.09 -0.8,-0.2 -1.605,-0.29 -2.398,-0.29"
         style="fill:#2f2e2f;fill-opacity:1;fill-rule:nonzero;stroke:none"
         transform="matrix(0.13333333,0,0,-0.13333333,0,666.66667)" />
      <path
         id="path46"
         d="m 800.094,2056.22 c -2.766,-15.04 -17.196,-24.99 -32.235,-22.23 -15.039,2.77 -24.988,17.2 -22.222,32.24 2.761,15.04 17.195,24.99 32.234,22.23 15.039,-2.77 24.984,-17.2 22.223,-32.24"
         style="fill:#2f2e2f;fill-opacity:1;fill-rule:nonzero;stroke:none"
         transform="matrix(0.13333333,0,0,-0.13333333,0,666.66667)" />
      <path
         id="path47"
         d="m 1090.61,2080.5 c -2.76,-15.04 -17.2,-24.99 -32.24,-22.23 -15.04,2.77 -24.99,17.2 -22.22,32.24 2.77,15.04 17.19,24.99 32.23,22.22 15.04,-2.76 24.99,-17.19 22.23,-32.23"
         style="fill:#2f2e2f;fill-opacity:1;fill-rule:nonzero;stroke:none"
         transform="matrix(0.13333333,0,0,-0.13333333,0,666.66667)" />
      <path
         id="path48"
         d="m 815.715,2003.87 c 29.359,-27.46 70.004,-42.45 110.16,-40.65 40.148,1.82 79.285,20.41 106.045,50.39"
         style="fill:none;stroke:#2f2e2f;stroke-width:20;stroke-linecap:round;stroke-linejoin:round;stroke-miterlimit:10;stroke-dasharray:none;stroke-opacity:1"
         transform="matrix(0.13333333,0,0,-0.13333333,0,666.66667)" />
      <path
         id="path49"
         d="m 667.063,2656.77 c -42.266,66.88 -49.391,154.67 -18.458,227.49 80.536,-7.21 150.336,-55.38 186.629,-127.64 -26.011,-59.47 -103.265,-99.06 -168.171,-99.85"
         style="fill:#ffffff;fill-opacity:1;fill-rule:nonzero;stroke:none"
         transform="matrix(0.13333333,0,0,-0.13333333,0,666.66667)" />
      <path
         id="path50"
         d="m 667.063,2656.77 c -42.266,66.88 -49.391,154.67 -18.458,227.49 80.536,-7.21 150.336,-55.38 186.629,-127.64 -26.011,-59.47 -103.265,-99.06 -168.171,-99.85 z"
         style="fill:none;stroke:#2f2e2f;stroke-width:20;stroke-linecap:round;stroke-linejoin:round;stroke-miterlimit:10;stroke-dasharray:none;stroke-opacity:1"
         transform="matrix(0.13333333,0,0,-0.13333333,0,666.66667)" />
      <path
         id="path51"
         d="m 864.109,2887.73 c 34.668,-68.04 25.246,-156.15 -23.023,-215.33 -48.273,-59.17 -132.703,-86.09 -206.32,-65.79 -73.614,20.29 -132.317,86.69 -143.438,162.23 83.567,33.86 180.59,4.48 242.422,-61.14 -1.145,41.61 9.797,82.97 33.824,116.96 24.028,34 56.93,50.27 96.535,63.07"
         style="fill:#ffffff;fill-opacity:1;fill-rule:nonzero;stroke:none"
         transform="matrix(0.13333333,0,0,-0.13333333,0,666.66667)" />
      <path
         id="path52"
         d="m 864.109,2887.73 c 34.668,-68.04 25.246,-156.15 -23.023,-215.33 -48.273,-59.17 -132.703,-86.09 -206.32,-65.79 -73.614,20.29 -132.317,86.69 -143.438,162.23 83.567,33.86 180.59,4.48 242.422,-61.14 -1.145,41.61 9.797,82.97 33.824,116.96 24.028,34 56.93,50.27 96.535,63.07 z"
         style="fill:none;stroke:#2f2e2f;stroke-width:20;stroke-linecap:round;stroke-linejoin:round;stroke-miterlimit:10;stroke-dasharray:none;stroke-opacity:1"
         transform="matrix(0.13333333,0,0,-0.13333333,0,666.66667)" />
      <path
         id="path53"
         d="m 1392.52,1693.45 c -6.54,24.11 -33.68,29.99 -56.77,26.07 H 821.063 306.379 c -23.09,3.92 -50.231,-1.96 -56.77,-26.07 -27.925,-102.97 22.454,-230.6 107.536,-286.7 -25.434,-60.56 -28.512,-131.56 -8.418,-194.4 20.089,-62.83 67.429,-107.21 122.136,-138.2 -4.941,-97.662 31.2,-196.861 96.52,-264.978 65.328,-68.133 162.965,-99.961 253.68,-91.75 90.718,-8.211 188.357,23.617 253.687,91.75 65.32,68.117 101.46,167.316 96.52,264.978 54.7,30.99 102.04,75.37 122.13,138.2 20.1,62.84 17.02,133.84 -8.41,194.4 85.08,56.1 135.45,183.73 107.53,286.7"
         style="fill:#ffffff;fill-opacity:1;fill-rule:nonzero;stroke:none"
         transform="matrix(0.13333333,0,0,-0.13333333,0,666.66667)" />
      <path
         id="path54"
         d="m 1392.52,1693.45 c -6.54,24.11 -33.68,29.99 -56.77,26.07 H 821.063 306.379 c -23.09,3.92 -50.231,-1.96 -56.77,-26.07 -27.925,-102.97 22.454,-230.6 107.536,-286.7 -25.434,-60.56 -28.512,-131.56 -8.418,-194.4 20.089,-62.83 67.429,-107.21 122.136,-138.2 -4.941,-97.662 31.2,-196.861 96.52,-264.978 65.328,-68.133 162.965,-99.961 253.68,-91.75 90.718,-8.211 188.357,23.617 253.687,91.75 65.32,68.117 101.46,167.316 96.52,264.978 54.7,30.99 102.04,75.37 122.13,138.2 20.1,62.84 17.02,133.84 -8.41,194.4 85.08,56.1 135.45,183.73 107.53,286.7 z"
         style="fill:none;stroke:#2f2e2f;stroke-width:20;stroke-linecap:round;stroke-linejoin:round;stroke-miterlimit:10;stroke-dasharray:none;stroke-opacity:1"
         transform="matrix(0.13333333,0,0,-0.13333333,0,666.66667)" />
      <path
         id="path55"
         d="M 399.359,1416.95 H 1230.76"
         style="fill:#ffffff;fill-opacity:1;fill-rule:nonzero;stroke:#2f2e2f;stroke-width:10;stroke-linecap:round;stroke-linejoin:round;stroke-miterlimit:10;stroke-dasharray:none;stroke-opacity:1"
         transform="matrix(0.13333333,0,0,-0.13333333,0,666.66667)" />
      <path
         id="path56"
         d="m 503.59,1082.54 h 610.82"
         style="fill:#ffffff;fill-opacity:1;fill-rule:nonzero;stroke:#2f2e2f;stroke-width:10;stroke-linecap:round;stroke-linejoin:round;stroke-miterlimit:10;stroke-dasharray:none;stroke-opacity:1"
         transform="matrix(0.13333333,0,0,-0.13333333,0,666.66667)" />
      <path
         id="path57"
         d="m 4187.05,2979.17 c 325.16,-226.36 469.51,-627.99 458.65,-1265.87 l -955.64,-5.94 c 21.6,603.3 138.31,1088.19 496.99,1271.81"
         style="fill:#ffffff;fill-opacity:1;fill-rule:nonzero;stroke:none"
         transform="matrix(0.13333333,0,0,-0.13333333,0,666.66667)" />
      <path
         id="path58"
         d="m 4187.05,2979.17 c 325.16,-226.36 469.51,-627.99 458.65,-1265.87 l -955.64,-5.94 c 21.6,603.3 138.31,1088.19 496.99,1271.81 z"
         style="fill:none;stroke:#2f2e2f;stroke-width:20;stroke-linecap:round;stroke-linejoin:round;stroke-miterlimit:10;stroke-dasharray:none;stroke-opacity:1"
         transform="matrix(0.13333333,0,0,-0.13333333,0,666.66667)" />
      <path
         id="path59"
         d="m 3993.6,2337.49 c -6.51,205.19 56.68,411.97 176.79,578.46 124.29,-170.89 203.94,-384.69 214.68,-595.72"
         style="fill:#ffffff;fill-opacity:1;fill-rule:nonzero;stroke:#2f2e2f;stroke-width:10;stroke-linecap:round;stroke-linejoin:round;stroke-miterlimit:10;stroke-dasharray:none;stroke-opacity:1"
         transform="matrix(0.13333333,0,0,-0.13333333,0,666.66667)" />
      <path
         id="path60"
         d="m 4028.83,2095.14 c -3.87,-17.56 -21.22,-28.66 -38.77,-24.79 -17.56,3.87 -28.65,21.22 -24.79,38.77 3.87,17.56 21.22,28.65 38.77,24.79 17.55,-3.87 28.66,-21.22 24.79,-38.77"
         style="fill:#2f2e2f;fill-opacity:1;fill-rule:nonzero;stroke:none"
         transform="matrix(0.13333333,0,0,-0.13333333,0,666.66667)" />
      <path
         id="path61"
         d="m 4371.06,2111.72 c -3.86,-17.55 -21.23,-28.64 -38.78,-24.79 -17.54,3.87 -28.64,21.22 -24.77,38.78 3.86,17.55 21.22,28.65 38.77,24.78 17.55,-3.86 28.64,-21.22 24.78,-38.77"
         style="fill:#2f2e2f;fill-opacity:1;fill-rule:nonzero;stroke:none"
         transform="matrix(0.13333333,0,0,-0.13333333,0,666.66667)" />
      <path
         id="path62"
         d="m 4045.03,2032.99 c 33.35,-33.45 80.48,-52.74 127.71,-52.26 47.25,0.48 93.98,20.72 126.64,54.84"
         style="fill:none;stroke:#2f2e2f;stroke-width:20;stroke-linecap:round;stroke-linejoin:round;stroke-miterlimit:10;stroke-dasharray:none;stroke-opacity:1"
         transform="matrix(0.13333333,0,0,-0.13333333,0,666.66667)" />
      <path
         id="path63"
         d="m 3781.7,1576.29 c -96.44,111.11 -160.27,250.18 -181.66,395.74 -21.38,145.57 -0.24,297.12 60.17,431.28 145.41,-43.58 240.03,-180.85 285.68,-325.62 45.65,-144.77 43.16,-299.71 40.25,-451.48 -57.29,-17.27 -147.16,-32.65 -204.44,-49.92"
         style="fill:#ffffff;fill-opacity:1;fill-rule:nonzero;stroke:none"
         transform="matrix(0.13333333,0,0,-0.13333333,0,666.66667)" />
      <path
         id="path64"
         d="m 3781.7,1576.29 c -96.44,111.11 -160.27,250.18 -181.66,395.74 -21.38,145.57 -0.24,297.12 60.17,431.28 145.41,-43.58 240.03,-180.85 285.68,-325.62 45.65,-144.77 43.16,-299.71 40.25,-451.48 -57.29,-17.27 -147.16,-32.65 -204.44,-49.92 z"
         style="fill:none;stroke:#2f2e2f;stroke-width:20;stroke-linecap:round;stroke-linejoin:round;stroke-miterlimit:10;stroke-dasharray:none;stroke-opacity:1"
         transform="matrix(0.13333333,0,0,-0.13333333,0,666.66667)" />
      <path
         id="path65"
         d="m 3702.1,2221.08 175.57,-621.23"
         style="fill:#ffffff;fill-opacity:1;fill-rule:nonzero;stroke:#2f2e2f;stroke-width:20;stroke-linecap:round;stroke-linejoin:round;stroke-miterlimit:10;stroke-dasharray:none;stroke-opacity:1"
         transform="matrix(0.13333333,0,0,-0.13333333,0,666.66667)" />
      <path
         id="path66"
         d="m 4550.76,1576.29 c 96.44,111.11 160.27,250.18 181.65,395.74 21.39,145.57 0.25,297.12 -60.16,431.28 -145.41,-43.58 -240.03,-180.85 -285.69,-325.62 -45.64,-144.77 -43.16,-299.71 -40.24,-451.48 57.29,-17.27 147.16,-32.65 204.44,-49.92"
         style="fill:#ffffff;fill-opacity:1;fill-rule:nonzero;stroke:none"
         transform="matrix(0.13333333,0,0,-0.13333333,0,666.66667)" />
      <path
         id="path67"
         d="m 4550.76,1576.29 c 96.44,111.11 160.27,250.18 181.65,395.74 21.39,145.57 0.25,297.12 -60.16,431.28 -145.41,-43.58 -240.03,-180.85 -285.69,-325.62 -45.64,-144.77 -43.16,-299.71 -40.24,-451.48 57.29,-17.27 147.16,-32.65 204.44,-49.92 z"
         style="fill:none;stroke:#2f2e2f;stroke-width:20;stroke-linecap:round;stroke-linejoin:round;stroke-miterlimit:10;stroke-dasharray:none;stroke-opacity:1"
         transform="matrix(0.13333333,0,0,-0.13333333,0,666.66667)" />
      <path
         id="path68"
         d="M 4630.35,2221.08 4454.79,1599.85"
         style="fill:#ffffff;fill-opacity:1;fill-rule:nonzero;stroke:#2f2e2f;stroke-width:20;stroke-linecap:round;stroke-linejoin:round;stroke-miterlimit:10;stroke-dasharray:none;stroke-opacity:1"
         transform="matrix(0.13333333,0,0,-0.13333333,0,666.66667)" />
      <path
         id="path69"
         d="m 4166.23,1713.3 v -0.62 h -559.18 l 180.93,-862.348 c 13.2,-62.91 65.57,-109.953 129.51,-116.633 93.54,-9.758 187.29,-18.008 281.41,-17.527 73.26,0.359 145.92,8.469 218.53,17.258 62.81,7.609 113.8,54.39 126.79,116.32 l 181.19,863.55 h -559.18"
         style="fill:#ffffff;fill-opacity:1;fill-rule:nonzero;stroke:none"
         transform="matrix(0.13333333,0,0,-0.13333333,0,666.66667)" />
      <path
         id="path70"
         d="m 4166.23,1713.3 v -0.62 h -559.18 l 180.93,-862.348 c 13.2,-62.91 65.57,-109.953 129.51,-116.633 93.54,-9.758 187.29,-18.008 281.41,-17.527 73.26,0.359 145.92,8.469 218.53,17.258 62.81,7.609 113.8,54.39 126.79,116.32 l 181.19,863.55 z"
         style="fill:none;stroke:#2f2e2f;stroke-width:20;stroke-linecap:round;stroke-linejoin:round;stroke-miterlimit:10;stroke-dasharray:none;stroke-opacity:1"
         transform="matrix(0.13333333,0,0,-0.13333333,0,666.66667)" />
      <path
         id="path71"
         d="m 4315.4,1542.34 c 0,-135.59 -109.9,-245.49 -245.4,-245.49 -135.6,0 -245.4,109.9 -245.4,245.49 0,66.11 26.2,126.2 68.9,170.31 h 272.7 v 0.7 h 79.7 c 43,-44.2 69.5,-104.5 69.5,-171.01"
         style="fill:#ffffff;fill-opacity:1;fill-rule:nonzero;stroke:none"
         transform="matrix(0.13333333,0,0,-0.13333333,0,666.66667)" />
      <path
         id="path72"
         d="m 4315.4,1542.34 c 0,-135.59 -109.9,-245.49 -245.4,-245.49 -135.6,0 -245.4,109.9 -245.4,245.49 0,66.11 26.2,126.2 68.9,170.31 h 272.7 v 0.7 h 79.7 c 43,-44.2 69.5,-104.5 69.5,-171.01 z"
         style="fill:none;stroke:#2f2e2f;stroke-width:10;stroke-linecap:round;stroke-linejoin:round;stroke-miterlimit:10;stroke-dasharray:none;stroke-opacity:1"
         transform="matrix(0.13333333,0,0,-0.13333333,0,666.66667)" />
      <path
         id="path73"
         d="m 4658.6,1395.05 -114.4,-545.3 c -7.6,-36.211 -28.2,-67.199 -56.5,-88.199 -157.2,25.097 -277.3,161.398 -277.3,325.599 0,182.2 147.71,329.79 329.8,329.79 41.8,0 81.7,-7.79 118.4,-21.89"
         style="fill:#ffffff;fill-opacity:1;fill-rule:nonzero;stroke:none"
         transform="matrix(0.13333333,0,0,-0.13333333,0,666.66667)" />
      <path
         id="path74"
         d="m 4658.6,1395.05 -114.4,-545.3 c -7.6,-36.211 -28.2,-67.199 -56.5,-88.199 -157.2,25.097 -277.3,161.398 -277.3,325.599 0,182.2 147.71,329.79 329.8,329.79 41.8,0 81.7,-7.79 118.4,-21.89 z"
         style="fill:none;stroke:#2f2e2f;stroke-width:10;stroke-linecap:round;stroke-linejoin:round;stroke-miterlimit:10;stroke-dasharray:none;stroke-opacity:1"
         transform="matrix(0.13333333,0,0,-0.13333333,0,666.66667)" />
      <path
         id="path75"
         d="m 4102.1,940.641 c 0,-96.692 -61.1,-179.09 -146.8,-210.801 -12.6,1.308 -25.2,2.609 -37.8,3.91 -63.9,6.602 -116.3,53.699 -129.5,116.602 l -54.89,261.898 c 39.09,32.99 89.49,52.8 144.59,52.8 123.9,0 224.4,-100.5 224.4,-224.409"
         style="fill:#ffffff;fill-opacity:1;fill-rule:nonzero;stroke:none"
         transform="matrix(0.13333333,0,0,-0.13333333,0,666.66667)" />
      <path
         id="path76"
         d="m 4102.1,940.641 c 0,-96.692 -61.1,-179.09 -146.8,-210.801 -12.6,1.308 -25.2,2.609 -37.8,3.91 -63.9,6.602 -116.3,53.699 -129.5,116.602 l -54.89,261.898 c 39.09,32.99 89.49,52.8 144.59,52.8 123.9,0 224.4,-100.5 224.4,-224.409 z"
         style="fill:none;stroke:#2f2e2f;stroke-width:10;stroke-linecap:round;stroke-linejoin:round;stroke-miterlimit:10;stroke-dasharray:none;stroke-opacity:1"
         transform="matrix(0.13333333,0,0,-0.13333333,0,666.66667)" />
      <path
         id="path77"
         d="m 2168.88,2426.96 c -58.36,156.17 -184,279.8 -331.31,326.02 -147.31,46.22 -313.15,14.05 -437.31,-84.83 72.23,-139.32 196.22,-251.72 336.57,-294.14 140.35,-42.4 305.51,-26.3 432.05,52.95"
         style="fill:#ffffff;fill-opacity:1;fill-rule:nonzero;stroke:none"
         transform="matrix(0.13333333,0,0,-0.13333333,0,666.66667)" />
      <path
         id="path78"
         d="m 2168.88,2426.96 c -58.36,156.17 -184,279.8 -331.31,326.02 -147.31,46.22 -313.15,14.05 -437.31,-84.83 72.23,-139.32 196.22,-251.72 336.57,-294.14 140.35,-42.4 305.51,-26.3 432.05,52.95 z"
         style="fill:none;stroke:#2f2e2f;stroke-width:20;stroke-linecap:round;stroke-linejoin:round;stroke-miterlimit:10;stroke-dasharray:none;stroke-opacity:1"
         transform="matrix(0.13333333,0,0,-0.13333333,0,666.66667)" />
      <path
         id="path79"
         d="m 1595.28,2645.81 c 187.16,-9.64 378.11,-78.69 573.6,-218.85"
         style="fill:none;stroke:#2f2e2f;stroke-width:20;stroke-linecap:round;stroke-linejoin:round;stroke-miterlimit:10;stroke-dasharray:none;stroke-opacity:1"
         transform="matrix(0.13333333,0,0,-0.13333333,0,666.66667)" />
      <path
         id="path80"
         d="m 2188.58,2288.59 c -89.53,108.71 -121.34,262.38 -82.34,397.71 39.01,135.32 147.73,248.49 281.39,292.87 55.32,-118.1 62.75,-264.11 29.87,-390.3 -32.87,-126.19 -123.01,-224.18 -228.92,-300.28"
         style="fill:#ffffff;fill-opacity:1;fill-rule:nonzero;stroke:none"
         transform="matrix(0.13333333,0,0,-0.13333333,0,666.66667)" />
      <path
         id="path81"
         d="m 2188.58,2288.59 c -89.53,108.71 -121.34,262.38 -82.34,397.71 39.01,135.32 147.73,248.49 281.39,292.87 55.32,-118.1 62.75,-264.11 29.87,-390.3 -32.87,-126.19 -123.01,-224.18 -228.92,-300.28 z"
         style="fill:none;stroke:#2f2e2f;stroke-width:20;stroke-linecap:round;stroke-linejoin:round;stroke-miterlimit:10;stroke-dasharray:none;stroke-opacity:1"
         transform="matrix(0.13333333,0,0,-0.13333333,0,666.66667)" />
      <path
         id="path82"
         d="m 2299.55,2773.73 c -66.34,-146.25 -103.33,-307.97 -110.97,-485.14"
         style="fill:none;stroke:#2f2e2f;stroke-width:20;stroke-linecap:round;stroke-linejoin:round;stroke-miterlimit:10;stroke-dasharray:none;stroke-opacity:1"
         transform="matrix(0.13333333,0,0,-0.13333333,0,666.66667)" />
      <path
         id="path83"
         d="m 2217.25,2140.3 c -18.51,0 -35.79,11.51 -42.35,29.83 l -11.46,31.96 c -2.06,5.76 -2.88,11.66 -2.59,17.41 -146.26,503.46 -415.8,966.95 -781.46,1343.01 -17.33,17.81 -16.93,46.3 0.89,63.63 17.82,17.33 46.3,16.94 63.63,-0.89 387.36,-398.37 669.79,-892.17 816.75,-1428.03 6.4,-23.32 -6.79,-47.53 -29.85,-54.82 -4.5,-1.42 -9.07,-2.1 -13.56,-2.1"
         style="fill:#ffffff;fill-opacity:1;fill-rule:nonzero;stroke:none"
         transform="matrix(0.13333333,0,0,-0.13333333,0,666.66667)" />
      <path
         id="path84"
         d="m 2217.25,2140.3 c -18.51,0 -35.79,11.51 -42.35,29.83 l -11.46,31.96 c -2.06,5.76 -2.88,11.66 -2.59,17.41 -146.26,503.46 -415.8,966.95 -781.46,1343.01 -17.33,17.81 -16.93,46.3 0.89,63.63 17.82,17.33 46.3,16.94 63.63,-0.89 387.36,-398.37 669.79,-892.17 816.75,-1428.03 6.4,-23.32 -6.79,-47.53 -29.85,-54.82 -4.5,-1.42 -9.07,-2.1 -13.56,-2.1 z"
         style="fill:none;stroke:#2f2e2f;stroke-width:20;stroke-linecap:butt;stroke-linejoin:miter;stroke-miterlimit:10;stroke-dasharray:none;stroke-opacity:1"
         transform="matrix(0.13333333,0,0,-0.13333333,0,666.66667)" />
      <path
         id="path85"
         d="m 1978.94,4004.72 c -71.03,141.71 -243.5,199.01 -385.22,127.98 -37.42,-18.76 -68.89,-44.63 -93.73,-75.1 -5,23.08 -12.94,45.92 -24.02,68.01 -71.03,141.71 -243.49,199.01 -385.21,127.98 -141.713,-71.03 -199.018,-243.5 -127.983,-385.21 11.071,-22.09 24.61,-42.13 40.113,-59.95 -39.277,-1.67 -78.843,-11.39 -116.257,-30.14 -141.723,-71.03 -199.02,-243.5 -127.988,-385.21 56.57,-112.87 177.484,-172.11 295.955,-155.7 -7.03,-54.67 1.58,-111.96 28.14,-164.94 71.03,-141.71 243.5,-199.02 385.21,-127.98 95.52,47.87 152.61,141.85 157.98,241.41 82.98,-55.28 192.43,-65.78 287.96,-17.9 141.71,71.03 199.01,243.49 127.98,385.21 -26.56,52.99 -67.3,94.16 -115.31,121.25 84.05,85.1 108.95,217.42 52.38,330.29"
         style="fill:#ffffff;fill-opacity:1;fill-rule:nonzero;stroke:none"
         transform="matrix(0.13333333,0,0,-0.13333333,0,666.66667)" />
      <path
         id="path86"
         d="m 1978.94,4004.72 c -71.03,141.71 -243.5,199.01 -385.22,127.98 -37.42,-18.76 -68.89,-44.63 -93.73,-75.1 -5,23.08 -12.94,45.92 -24.02,68.01 -71.03,141.71 -243.49,199.01 -385.21,127.98 -141.713,-71.03 -199.018,-243.5 -127.983,-385.21 11.071,-22.09 24.61,-42.13 40.113,-59.95 -39.277,-1.67 -78.843,-11.39 -116.257,-30.14 -141.723,-71.03 -199.02,-243.5 -127.988,-385.21 56.57,-112.87 177.484,-172.11 295.955,-155.7 -7.03,-54.67 1.58,-111.96 28.14,-164.94 71.03,-141.71 243.5,-199.02 385.21,-127.98 95.52,47.87 152.61,141.85 157.98,241.41 82.98,-55.28 192.43,-65.78 287.96,-17.9 141.71,71.03 199.01,243.49 127.98,385.21 -26.56,52.99 -67.3,94.16 -115.31,121.25 84.05,85.1 108.95,217.42 52.38,330.29 z"
         style="fill:none;stroke:#2f2e2f;stroke-width:20;stroke-linecap:round;stroke-linejoin:round;stroke-miterlimit:10;stroke-dasharray:none;stroke-opacity:1"
         transform="matrix(0.13333333,0,0,-0.13333333,0,666.66667)" />
      <path
         id="path87"
         d="m 1367.24,3805.87 -85.03,-42.62 -138.76,276.85 c -11.78,23.48 -2.28,52.06 21.2,63.83 v 0 c 23.48,11.76 52.06,2.27 63.83,-21.21 l 138.76,-276.85"
         style="fill:#ffffff;fill-opacity:1;fill-rule:nonzero;stroke:none"
         transform="matrix(0.13333333,0,0,-0.13333333,0,666.66667)" />
      <path
         id="path88"
         d="m 1367.24,3805.87 -85.03,-42.62 -138.76,276.85 c -11.78,23.48 -2.28,52.06 21.2,63.83 v 0 c 23.48,11.76 52.06,2.27 63.83,-21.21 z"
         style="fill:none;stroke:#2f2e2f;stroke-width:20;stroke-linecap:round;stroke-linejoin:round;stroke-miterlimit:10;stroke-dasharray:none;stroke-opacity:1"
         transform="matrix(0.13333333,0,0,-0.13333333,0,666.66667)" />
      <path
         id="path89"
         d="m 1596.01,3683.54 -69.73,64.7 210.65,227 c 17.87,19.25 47.96,20.38 67.22,2.51 v 0 c 19.25,-17.87 20.37,-47.96 2.51,-67.21 l -210.65,-227"
         style="fill:#ffffff;fill-opacity:1;fill-rule:nonzero;stroke:none"
         transform="matrix(0.13333333,0,0,-0.13333333,0,666.66667)" />
      <path
         id="path90"
         d="m 1596.01,3683.54 -69.73,64.7 210.65,227 c 17.87,19.25 47.96,20.38 67.22,2.51 v 0 c 19.25,-17.87 20.37,-47.96 2.51,-67.21 z"
         style="fill:none;stroke:#2f2e2f;stroke-width:20;stroke-linecap:round;stroke-linejoin:round;stroke-miterlimit:10;stroke-dasharray:none;stroke-opacity:1"
         transform="matrix(0.13333333,0,0,-0.13333333,0,666.66667)" />
      <path
         id="path91"
         d="m 1555.78,3482.03 41.83,85.42 278.13,-136.18 c 23.59,-11.54 33.35,-40.03 21.8,-63.62 v 0 c -11.55,-23.59 -40.04,-33.35 -63.62,-21.8 l -278.14,136.18"
         style="fill:#ffffff;fill-opacity:1;fill-rule:nonzero;stroke:none"
         transform="matrix(0.13333333,0,0,-0.13333333,0,666.66667)" />
      <path
         id="path92"
         d="m 1555.78,3482.03 41.83,85.42 278.13,-136.18 c 23.59,-11.54 33.35,-40.03 21.8,-63.62 v 0 c -11.55,-23.59 -40.04,-33.35 -63.62,-21.8 z"
         style="fill:none;stroke:#2f2e2f;stroke-width:20;stroke-linecap:round;stroke-linejoin:round;stroke-miterlimit:10;stroke-dasharray:none;stroke-opacity:1"
         transform="matrix(0.13333333,0,0,-0.13333333,0,666.66667)" />
      <path
         id="path93"
         d="m 1355.03,3446.15 91.25,-26.83 -87.35,-297.11 c -7.41,-25.2 -33.85,-39.62 -59.04,-32.21 v 0 c -25.2,7.41 -39.63,33.84 -32.21,59.04 l 87.35,297.11"
         style="fill:#ffffff;fill-opacity:1;fill-rule:nonzero;stroke:none"
         transform="matrix(0.13333333,0,0,-0.13333333,0,666.66667)" />
      <path
         id="path94"
         d="m 1355.03,3446.15 91.25,-26.83 -87.35,-297.11 c -7.41,-25.2 -33.85,-39.62 -59.04,-32.21 v 0 c -25.2,7.41 -39.63,33.84 -32.21,59.04 z"
         style="fill:none;stroke:#2f2e2f;stroke-width:20;stroke-linecap:round;stroke-linejoin:round;stroke-miterlimit:10;stroke-dasharray:none;stroke-opacity:1"
         transform="matrix(0.13333333,0,0,-0.13333333,0,666.66667)" />
      <path
         id="path95"
         d="m 1240.54,3585.91 11.98,-94.36 -307.215,-39 c -26.059,-3.3 -49.86,15.14 -53.172,41.2 v 0 c -3.305,26.05 15.137,49.86 41.191,53.16 l 307.216,39"
         style="fill:#ffffff;fill-opacity:1;fill-rule:nonzero;stroke:none"
         transform="matrix(0.13333333,0,0,-0.13333333,0,666.66667)" />
      <path
         id="path96"
         d="m 1240.54,3585.91 11.98,-94.36 -307.215,-39 c -26.059,-3.3 -49.86,15.14 -53.172,41.2 v 0 c -3.305,26.05 15.137,49.86 41.191,53.16 z"
         style="fill:none;stroke:#2f2e2f;stroke-width:20;stroke-linecap:round;stroke-linejoin:round;stroke-miterlimit:10;stroke-dasharray:none;stroke-opacity:1"
         transform="matrix(0.13333333,0,0,-0.13333333,0,666.66667)" />
      <path
         id="path97"
         d="m 1723.83,3756.06 c 84.89,-169.36 16.41,-375.47 -152.95,-460.36 -169.36,-84.89 -375.47,-16.41 -460.36,152.95 -84.89,169.36 -16.41,375.47 152.95,460.36 169.36,84.89 375.48,16.41 460.36,-152.95"
         style="fill:#ffffff;fill-opacity:1;fill-rule:nonzero;stroke:none"
         transform="matrix(0.13333333,0,0,-0.13333333,0,666.66667)" />
      <path
         id="path98"
         d="m 1723.83,3756.06 c 84.89,-169.36 16.41,-375.47 -152.95,-460.36 -169.36,-84.89 -375.47,-16.41 -460.36,152.95 -84.89,169.36 -16.41,375.47 152.95,460.36 169.36,84.89 375.48,16.41 460.36,-152.95 z"
         style="fill:none;stroke:#2f2e2f;stroke-width:20;stroke-linecap:round;stroke-linejoin:round;stroke-miterlimit:10;stroke-dasharray:none;stroke-opacity:1"
         transform="matrix(0.13333333,0,0,-0.13333333,0,666.66667)" />
      <path
         id="path99"
         d="m 1296.98,3513.85 c 3.83,-17.56 -7.31,-34.89 -24.87,-38.72 -17.56,-3.82 -34.89,7.31 -38.72,24.87 -3.82,17.56 7.31,34.9 24.87,38.72 17.56,3.82 34.89,-7.31 38.72,-24.87"
         style="fill:#2f2e2f;fill-opacity:1;fill-rule:nonzero;stroke:none"
         transform="matrix(0.13333333,0,0,-0.13333333,0,666.66667)" />
      <path
         id="path100"
         d="m 1600.96,3671.95 c 3.83,-17.56 -7.31,-34.9 -24.87,-38.72 -17.55,-3.83 -34.89,7.31 -38.72,24.87 -3.82,17.55 7.31,34.89 24.87,38.72 17.56,3.82 34.89,-7.31 38.72,-24.87"
         style="fill:#2f2e2f;fill-opacity:1;fill-rule:nonzero;stroke:none"
         transform="matrix(0.13333333,0,0,-0.13333333,0,666.66667)" />
      <path
         id="path101"
         d="m 1337.67,3464.17 c 44.28,-16.46 95.16,-14.28 137.87,5.9 42.71,20.18 76.71,58.09 92.13,102.74"
         style="fill:none;stroke:#2f2e2f;stroke-width:20;stroke-linecap:round;stroke-linejoin:round;stroke-miterlimit:10;stroke-dasharray:none;stroke-opacity:1"
         transform="matrix(0.13333333,0,0,-0.13333333,0,666.66667)" />
      <path
         id="path102"
         d="m 2823.53,2271.86 c 52.9,170.02 185.49,313.38 350.87,379.37 165.39,65.98 360.26,53.26 515.66,-33.66 -87.42,-152.92 -217.98,-292.87 -381.76,-357.73 -163.79,-64.86 -316.35,-39.6 -484.77,12.02"
         style="fill:#ffffff;fill-opacity:1;fill-rule:nonzero;stroke:none"
         transform="matrix(0.13333333,0,0,-0.13333333,0,666.66667)" />
      <path
         id="path103"
         d="m 2823.53,2271.86 c 52.9,170.02 185.49,313.38 350.87,379.37 165.39,65.98 360.26,53.26 515.66,-33.66 -87.42,-152.92 -217.98,-292.87 -381.76,-357.73 -163.79,-64.86 -316.35,-39.6 -484.77,12.02 z"
         style="fill:none;stroke:#2f2e2f;stroke-width:20;stroke-linecap:round;stroke-linejoin:round;stroke-miterlimit:10;stroke-dasharray:none;stroke-opacity:1"
         transform="matrix(0.13333333,0,0,-0.13333333,0,666.66667)" />
      <path
         id="path104"
         d="m 3438.95,2531.16 c -221.16,-21.6 -423.87,-117.86 -615.42,-259.3"
         style="fill:none;stroke:#2f2e2f;stroke-width:20;stroke-linecap:round;stroke-linejoin:round;stroke-miterlimit:10;stroke-dasharray:none;stroke-opacity:1"
         transform="matrix(0.13333333,0,0,-0.13333333,0,666.66667)" />
      <path
         id="path105"
         d="m 3002.17,2592.92 c -109.52,54.77 -192.76,159.55 -221.33,278.61 -28.57,119.07 -1.94,250.21 70.8,348.7 116.99,-50.46 207.86,-162.96 238.07,-286.74 30.2,-123.79 -6.95,-241.88 -87.54,-340.57"
         style="fill:#ffffff;fill-opacity:1;fill-rule:nonzero;stroke:none"
         transform="matrix(0.13333333,0,0,-0.13333333,0,666.66667)" />
      <path
         id="path106"
         d="m 3002.17,2592.92 c -109.52,54.77 -192.76,159.55 -221.33,278.61 -28.57,119.07 -1.94,250.21 70.8,348.7 116.99,-50.46 207.86,-162.96 238.07,-286.74 30.2,-123.79 -6.95,-241.88 -87.54,-340.57 z"
         style="fill:none;stroke:#2f2e2f;stroke-width:20;stroke-linecap:round;stroke-linejoin:round;stroke-miterlimit:10;stroke-dasharray:none;stroke-opacity:1"
         transform="matrix(0.13333333,0,0,-0.13333333,0,666.66667)" />
      <path
         id="path107"
         d="m 2905.81,3076.95 c 86.72,-152.48 99.93,-300.12 96.36,-484.03"
         style="fill:none;stroke:#2f2e2f;stroke-width:20;stroke-linecap:round;stroke-linejoin:round;stroke-miterlimit:10;stroke-dasharray:none;stroke-opacity:1"
         transform="matrix(0.13333333,0,0,-0.13333333,0,666.66667)" />
      <path
         id="path108"
         d="m 2814.06,2108.48 c -2.63,0 -5.3,0.23 -7.99,0.71 -24.46,4.38 -40.74,27.77 -36.35,52.24 97.49,543.76 405.5,1047.53 845.07,1382.13 19.78,15.06 48.01,11.23 63.07,-8.55 15.05,-19.78 11.22,-48.01 -8.55,-63.06 -421.85,-321.11 -717.45,-804.57 -811,-1326.4 -3.91,-21.78 -22.87,-37.07 -44.25,-37.07"
         style="fill:#ffffff;fill-opacity:1;fill-rule:nonzero;stroke:none"
         transform="matrix(0.13333333,0,0,-0.13333333,0,666.66667)" />
      <path
         id="path109"
         d="m 2814.06,2108.48 c -2.63,0 -5.3,0.23 -7.99,0.71 -24.46,4.38 -40.74,27.77 -36.35,52.24 97.49,543.76 405.5,1047.53 845.07,1382.13 19.78,15.06 48.01,11.23 63.07,-8.55 15.05,-19.78 11.22,-48.01 -8.55,-63.06 -421.85,-321.11 -717.45,-804.57 -811,-1326.4 -3.91,-21.78 -22.87,-37.07 -44.25,-37.07 z"
         style="fill:none;stroke:#2f2e2f;stroke-width:20;stroke-linecap:butt;stroke-linejoin:miter;stroke-miterlimit:10;stroke-dasharray:none;stroke-opacity:1"
         transform="matrix(0.13333333,0,0,-0.13333333,0,666.66667)" />
      <path
         id="path110"
         d="m 4340.42,3487.35 c 52.11,149.72 -27.01,313.32 -176.73,365.43 -39.53,13.76 -80.02,18.28 -119.18,14.86 13.07,19.68 23.9,41.3 32.02,64.63 52.11,149.71 -27.01,313.32 -176.73,365.43 -149.7,52.1 -313.31,-27.02 -365.42,-176.73 -8.12,-23.33 -13.05,-47.01 -15.02,-70.54 -28.58,27 -63.12,48.59 -102.65,62.35 -149.72,52.11 -313.32,-27.02 -365.43,-176.73 -41.5,-119.23 0.3,-247.22 94.65,-320.74 -44.1,-33.06 -79.18,-79.16 -98.66,-135.14 -52.11,-149.71 27.01,-313.31 176.71,-365.42 100.92,-35.13 208.09,-10.56 283.23,54.99 18.2,-98.04 86.96,-183.84 187.88,-218.96 149.7,-52.11 313.31,27.01 365.42,176.72 19.48,55.98 20.6,113.89 6.57,167.2 119.6,-0.95 231.84,73.42 273.34,192.65"
         style="fill:#ffffff;fill-opacity:1;fill-rule:nonzero;stroke:none"
         transform="matrix(0.13333333,0,0,-0.13333333,0,666.66667)" />
      <path
         id="path111"
         d="m 4340.42,3487.35 c 52.11,149.72 -27.01,313.32 -176.73,365.43 -39.53,13.76 -80.02,18.28 -119.18,14.86 13.07,19.68 23.9,41.3 32.02,64.63 52.11,149.71 -27.01,313.32 -176.73,365.43 -149.7,52.1 -313.31,-27.02 -365.42,-176.73 -8.12,-23.33 -13.05,-47.01 -15.02,-70.54 -28.58,27 -63.12,48.59 -102.65,62.35 -149.72,52.11 -313.32,-27.02 -365.43,-176.73 -41.5,-119.23 0.3,-247.22 94.65,-320.74 -44.1,-33.06 -79.18,-79.16 -98.66,-135.14 -52.11,-149.71 27.01,-313.31 176.71,-365.42 100.92,-35.13 208.09,-10.56 283.23,54.99 18.2,-98.04 86.96,-183.84 187.88,-218.96 149.7,-52.11 313.31,27.01 365.42,176.72 19.48,55.98 20.6,113.89 6.57,167.2 119.6,-0.95 231.84,73.42 273.34,192.65 z"
         style="fill:none;stroke:#2f2e2f;stroke-width:20;stroke-linecap:round;stroke-linejoin:round;stroke-miterlimit:10;stroke-dasharray:none;stroke-opacity:1"
         transform="matrix(0.13333333,0,0,-0.13333333,0,666.66667)" />
      <path
         id="path112"
         d="m 3771.47,3787.37 -89.82,31.27 101.8,292.47 c 8.63,24.81 35.74,37.92 60.54,29.28 v 0 c 24.81,-8.63 37.91,-35.74 29.28,-60.54 l -101.8,-292.48"
         style="fill:#ffffff;fill-opacity:1;fill-rule:nonzero;stroke:none"
         transform="matrix(0.13333333,0,0,-0.13333333,0,666.66667)" />
      <path
         id="path113"
         d="m 3771.47,3787.37 -89.82,31.27 101.8,292.47 c 8.63,24.81 35.74,37.92 60.54,29.28 v 0 c 24.81,-8.63 37.91,-35.74 29.28,-60.54 z"
         style="fill:none;stroke:#2f2e2f;stroke-width:20;stroke-linecap:round;stroke-linejoin:round;stroke-miterlimit:10;stroke-dasharray:none;stroke-opacity:1"
         transform="matrix(0.13333333,0,0,-0.13333333,0,666.66667)" />
      <path
         id="path114"
         d="m 3843.21,3538.07 -2.2,95.09 309.6,7.18 c 26.25,0.61 48.03,-20.19 48.65,-46.44 v 0 c 0.6,-26.26 -20.19,-48.04 -46.45,-48.65 l -309.6,-7.18"
         style="fill:#ffffff;fill-opacity:1;fill-rule:nonzero;stroke:none"
         transform="matrix(0.13333333,0,0,-0.13333333,0,666.66667)" />
      <path
         id="path115"
         d="m 3843.21,3538.07 -2.2,95.09 309.6,7.18 c 26.25,0.61 48.03,-20.19 48.65,-46.44 v 0 c 0.6,-26.26 -20.19,-48.04 -46.45,-48.65 z"
         style="fill:none;stroke:#2f2e2f;stroke-width:20;stroke-linecap:round;stroke-linejoin:round;stroke-miterlimit:10;stroke-dasharray:none;stroke-opacity:1"
         transform="matrix(0.13333333,0,0,-0.13333333,0,666.66667)" />
      <path
         id="path116"
         d="m 3670.67,3426.46 90.41,29.55 96.22,-294.35 c 8.17,-24.97 -5.45,-51.83 -30.43,-59.99 v 0 c -24.96,-8.15 -51.81,5.47 -59.98,30.43 l -96.22,294.36"
         style="fill:#ffffff;fill-opacity:1;fill-rule:nonzero;stroke:none"
         transform="matrix(0.13333333,0,0,-0.13333333,0,666.66667)" />
      <path
         id="path117"
         d="m 3670.67,3426.46 90.41,29.55 96.22,-294.35 c 8.17,-24.97 -5.45,-51.83 -30.43,-59.99 v 0 c -24.96,-8.15 -51.81,5.47 -59.98,30.43 z"
         style="fill:none;stroke:#2f2e2f;stroke-width:20;stroke-linecap:round;stroke-linejoin:round;stroke-miterlimit:10;stroke-dasharray:none;stroke-opacity:1"
         transform="matrix(0.13333333,0,0,-0.13333333,0,666.66667)" />
      <path
         id="path118"
         d="m 3505.03,3545.4 44.36,-84.14 -273.93,-144.44 c -23.23,-12.25 -52,-3.35 -64.25,19.88 v 0 c -12.26,23.24 -3.35,52.01 19.88,64.26 l 273.94,144.44"
         style="fill:#ffffff;fill-opacity:1;fill-rule:nonzero;stroke:none"
         transform="matrix(0.13333333,0,0,-0.13333333,0,666.66667)" />
      <path
         id="path119"
         d="m 3505.03,3545.4 44.36,-84.14 -273.93,-144.44 c -23.23,-12.25 -52,-3.35 -64.25,19.88 v 0 c -12.26,23.24 -3.35,52.01 19.88,64.26 z"
         style="fill:none;stroke:#2f2e2f;stroke-width:20;stroke-linecap:round;stroke-linejoin:round;stroke-miterlimit:10;stroke-dasharray:none;stroke-opacity:1"
         transform="matrix(0.13333333,0,0,-0.13333333,0,666.66667)" />
      <path
         id="path120"
         d="m 3525.44,3724.91 -59.31,-74.35 -242.1,193.11 c -20.53,16.37 -23.89,46.3 -7.52,66.83 v 0 c 16.38,20.54 46.3,23.9 66.84,7.53 l 242.09,-193.12"
         style="fill:#ffffff;fill-opacity:1;fill-rule:nonzero;stroke:none"
         transform="matrix(0.13333333,0,0,-0.13333333,0,666.66667)" />
      <path
         id="path121"
         d="m 3525.44,3724.91 -59.31,-74.35 -242.1,193.11 c -20.53,16.37 -23.89,46.3 -7.52,66.83 v 0 c 16.38,20.54 46.3,23.9 66.84,7.53 z"
         style="fill:none;stroke:#2f2e2f;stroke-width:20;stroke-linecap:round;stroke-linejoin:round;stroke-miterlimit:10;stroke-dasharray:none;stroke-opacity:1"
         transform="matrix(0.13333333,0,0,-0.13333333,0,666.66667)" />
      <path
         id="path122"
         d="m 3984.31,3496.96 c -62.28,-178.91 -257.8,-273.47 -436.71,-211.2 -178.92,62.28 -273.48,257.8 -211.2,436.72 62.27,178.91 257.79,273.47 436.71,211.19 178.91,-62.27 273.47,-257.79 211.2,-436.71"
         style="fill:#ffffff;fill-opacity:1;fill-rule:nonzero;stroke:none"
         transform="matrix(0.13333333,0,0,-0.13333333,0,666.66667)" />
      <path
         id="path123"
         d="m 3984.31,3496.96 c -62.28,-178.91 -257.8,-273.47 -436.71,-211.2 -178.92,62.28 -273.48,257.8 -211.2,436.72 62.27,178.91 257.79,273.47 436.71,211.19 178.91,-62.27 273.47,-257.79 211.2,-436.71 z"
         style="fill:none;stroke:#2f2e2f;stroke-width:20;stroke-linecap:round;stroke-linejoin:round;stroke-miterlimit:10;stroke-dasharray:none;stroke-opacity:1"
         transform="matrix(0.13333333,0,0,-0.13333333,0,666.66667)" />
      <path
         id="path124"
         d="m 3507.54,3571.53 c 17.23,-43.99 52.74,-80.48 96.25,-98.89 43.5,-18.42 94.42,-18.51 138,-0.27"
         style="fill:none;stroke:#2f2e2f;stroke-width:20;stroke-linecap:round;stroke-linejoin:round;stroke-miterlimit:10;stroke-dasharray:none;stroke-opacity:1"
         transform="matrix(0.13333333,0,0,-0.13333333,0,666.66667)" />
      <path
         id="path125"
         d="m 3438.95,3651.33 c 21.98,16.64 51.35,23.09 78.29,17.22 26.93,-5.88 50.93,-23.99 63.99,-48.28"
         style="fill:none;stroke:#2f2e2f;stroke-width:20;stroke-linecap:round;stroke-linejoin:round;stroke-miterlimit:10;stroke-dasharray:none;stroke-opacity:1"
         transform="matrix(0.13333333,0,0,-0.13333333,0,666.66667)" />
      <path
         id="path126"
         d="m 3714.36,3574.45 c 26.09,5.38 53.91,1.94 77.9,-9.63 23.99,-11.56 44,-31.19 56.04,-54.95"
         style="fill:none;stroke:#2f2e2f;stroke-width:20;stroke-linecap:round;stroke-linejoin:round;stroke-miterlimit:10;stroke-dasharray:none;stroke-opacity:1"
         transform="matrix(0.13333333,0,0,-0.13333333,0,666.66667)" />
      <path
         id="path127"
         d="m 2557.8,2242.26 c -52.91,148.66 -26.76,322.98 67.43,449.57 94.21,126.59 253.68,201.7 411.27,193.71 24.11,-149.7 -27.41,-319.16 -117.72,-440.95 -90.31,-121.8 -210.73,-181.92 -360.98,-202.33"
         style="fill:#ffffff;fill-opacity:1;fill-rule:nonzero;stroke:none"
         transform="matrix(0.13333333,0,0,-0.13333333,0,666.66667)" />
      <path
         id="path128"
         d="m 2557.8,2242.26 c -52.91,148.66 -26.76,322.98 67.43,449.57 94.21,126.59 253.68,201.7 411.27,193.71 24.11,-149.7 -27.41,-319.16 -117.72,-440.95 -90.31,-121.8 -210.73,-181.92 -360.98,-202.33 z"
         style="fill:none;stroke:#2f2e2f;stroke-width:20;stroke-linecap:round;stroke-linejoin:round;stroke-miterlimit:10;stroke-dasharray:none;stroke-opacity:1"
         transform="matrix(0.13333333,0,0,-0.13333333,0,666.66667)" />
      <path
         id="path129"
         d="m 2892.6,2710.42 c -145.14,-105.5 -256.73,-261.55 -334.8,-468.16"
         style="fill:none;stroke:#2f2e2f;stroke-width:20;stroke-linecap:round;stroke-linejoin:round;stroke-miterlimit:10;stroke-dasharray:none;stroke-opacity:1"
         transform="matrix(0.13333333,0,0,-0.13333333,0,666.66667)" />
      <path
         id="path130"
         d="m 2560.01,2156.29 c -21.74,0 -40.86,15.79 -44.39,37.94 -81.99,515.35 -81.33,1037.85 1.96,1553 3.97,24.54 27.06,41.19 51.61,37.24 24.53,-3.97 41.2,-27.07 37.24,-51.6 -81.76,-505.7 -82.41,-1018.61 -1.93,-1524.5 3.91,-24.54 -12.82,-47.61 -37.36,-51.51 -2.39,-0.39 -4.78,-0.57 -7.13,-0.57"
         style="fill:#ffffff;fill-opacity:1;fill-rule:nonzero;stroke:none"
         transform="matrix(0.13333333,0,0,-0.13333333,0,666.66667)" />
      <path
         id="path131"
         d="m 2560.01,2156.29 c -21.74,0 -40.86,15.79 -44.39,37.94 -81.99,515.35 -81.33,1037.85 1.96,1553 3.97,24.54 27.06,41.19 51.61,37.24 24.53,-3.97 41.2,-27.07 37.24,-51.6 -81.76,-505.7 -82.41,-1018.61 -1.93,-1524.5 3.91,-24.54 -12.82,-47.61 -37.36,-51.51 -2.39,-0.39 -4.78,-0.57 -7.13,-0.57 z"
         style="fill:none;stroke:#2f2e2f;stroke-width:20;stroke-linecap:butt;stroke-linejoin:miter;stroke-miterlimit:10;stroke-dasharray:none;stroke-opacity:1"
         transform="matrix(0.13333333,0,0,-0.13333333,0,666.66667)" />
      <path
         id="path132"
         d="m 3194.65,3967.18 c 0,158.52 -128.51,287.02 -287.02,287.02 -41.86,0 -81.59,-9.03 -117.44,-25.14 5.86,22.88 8.99,46.85 8.99,71.57 0,158.51 -128.51,287.01 -287.02,287.01 -158.53,0 -287.03,-128.5 -287.03,-287.01 0,-24.72 3.12,-48.69 9,-71.57 -35.86,16.11 -75.59,25.14 -117.45,25.14 -158.52,0 -287.02,-128.5 -287.02,-287.02 0,-126.26 81.55,-233.39 194.81,-271.81 -30.77,-45.73 -48.75,-100.79 -48.75,-160.06 0,-158.52 128.5,-287.02 287.03,-287.02 106.84,0 199.99,58.42 249.41,145.03 49.41,-86.61 142.56,-145.03 249.4,-145.03 158.52,0 287.02,128.5 287.02,287.02 0,59.27 -17.97,114.33 -48.75,160.06 113.28,38.42 194.82,145.55 194.82,271.81"
         style="fill:#ffffff;fill-opacity:1;fill-rule:nonzero;stroke:none"
         transform="matrix(0.13333333,0,0,-0.13333333,0,666.66667)" />
      <path
         id="path133"
         d="m 3194.65,3967.18 c 0,158.52 -128.51,287.02 -287.02,287.02 -41.86,0 -81.59,-9.03 -117.44,-25.14 5.86,22.88 8.99,46.85 8.99,71.57 0,158.51 -128.51,287.01 -287.02,287.01 -158.53,0 -287.03,-128.5 -287.03,-287.01 0,-24.72 3.12,-48.69 9,-71.57 -35.86,16.11 -75.59,25.14 -117.45,25.14 -158.52,0 -287.02,-128.5 -287.02,-287.02 0,-126.26 81.55,-233.39 194.81,-271.81 -30.77,-45.73 -48.75,-100.79 -48.75,-160.06 0,-158.52 128.5,-287.02 287.03,-287.02 106.84,0 199.99,58.42 249.41,145.03 49.41,-86.61 142.56,-145.03 249.4,-145.03 158.52,0 287.02,128.5 287.02,287.02 0,59.27 -17.97,114.33 -48.75,160.06 113.28,38.42 194.82,145.55 194.82,271.81 z"
         style="fill:none;stroke:#2f2e2f;stroke-width:20;stroke-linecap:round;stroke-linejoin:round;stroke-miterlimit:10;stroke-dasharray:none;stroke-opacity:1"
         transform="matrix(0.13333333,0,0,-0.13333333,0,666.66667)" />
      <path
         id="path134"
         d="m 2558.7,4063.5 h -95.11 v 309.68 c 0,26.27 21.29,47.56 47.55,47.56 v 0 c 26.27,0 47.56,-21.29 47.56,-47.56 V 4063.5"
         style="fill:#ffffff;fill-opacity:1;fill-rule:nonzero;stroke:none"
         transform="matrix(0.13333333,0,0,-0.13333333,0,666.66667)" />
      <path
         id="path135"
         d="m 2558.7,4063.5 h -95.11 v 309.68 c 0,26.27 21.29,47.56 47.55,47.56 v 0 c 26.27,0 47.56,-21.29 47.56,-47.56 z"
         style="fill:none;stroke:#2f2e2f;stroke-width:20;stroke-linecap:round;stroke-linejoin:round;stroke-miterlimit:10;stroke-dasharray:none;stroke-opacity:1"
         transform="matrix(0.13333333,0,0,-0.13333333,0,666.66667)" />
      <path
         id="path136"
         d="m 2708.41,3851.64 -33.34,89.07 290.03,108.55 c 24.6,9.21 52,-3.27 61.21,-27.87 v 0 c 9.21,-24.6 -3.27,-52 -27.87,-61.21 l -290.03,-108.54"
         style="fill:#ffffff;fill-opacity:1;fill-rule:nonzero;stroke:none"
         transform="matrix(0.13333333,0,0,-0.13333333,0,666.66667)" />
      <path
         id="path137"
         d="m 2708.41,3851.64 -33.34,89.07 290.03,108.55 c 24.6,9.21 52,-3.27 61.21,-27.87 v 0 c 9.21,-24.6 -3.27,-52 -27.87,-61.21 z"
         style="fill:none;stroke:#2f2e2f;stroke-width:20;stroke-linecap:round;stroke-linejoin:round;stroke-miterlimit:10;stroke-dasharray:none;stroke-opacity:1"
         transform="matrix(0.13333333,0,0,-0.13333333,0,666.66667)" />
      <path
         id="path138"
         d="m 2582.15,3689.51 75.66,57.63 187.64,-246.37 c 15.91,-20.9 11.87,-50.74 -9.02,-66.65 v 0 c -20.9,-15.92 -50.74,-11.88 -66.65,9.02 l -187.63,246.37"
         style="fill:#ffffff;fill-opacity:1;fill-rule:nonzero;stroke:none"
         transform="matrix(0.13333333,0,0,-0.13333333,0,666.66667)" />
      <path
         id="path139"
         d="m 2582.15,3689.51 75.66,57.63 187.64,-246.37 c 15.91,-20.9 11.87,-50.74 -9.02,-66.65 v 0 c -20.9,-15.92 -50.74,-11.88 -66.65,9.02 z"
         style="fill:none;stroke:#2f2e2f;stroke-width:20;stroke-linecap:round;stroke-linejoin:round;stroke-miterlimit:10;stroke-dasharray:none;stroke-opacity:1"
         transform="matrix(0.13333333,0,0,-0.13333333,0,666.66667)" />
      <path
         id="path140"
         d="m 2386.6,3747.39 69.56,-64.88 -211.23,-226.46 c -17.91,-19.21 -48.01,-20.26 -67.22,-2.34 v 0 c -19.2,17.91 -20.25,48 -2.33,67.21 l 211.22,226.47"
         style="fill:#ffffff;fill-opacity:1;fill-rule:nonzero;stroke:none"
         transform="matrix(0.13333333,0,0,-0.13333333,0,666.66667)" />
      <path
         id="path141"
         d="m 2386.6,3747.39 69.56,-64.88 -211.23,-226.46 c -17.91,-19.21 -48.01,-20.26 -67.22,-2.34 v 0 c -19.2,17.91 -20.25,48 -2.33,67.21 z"
         style="fill:none;stroke:#2f2e2f;stroke-width:20;stroke-linecap:round;stroke-linejoin:round;stroke-miterlimit:10;stroke-dasharray:none;stroke-opacity:1"
         transform="matrix(0.13333333,0,0,-0.13333333,0,666.66667)" />
      <path
         id="path142"
         d="m 2346.87,3923.63 -31.57,-89.72 -292.12,102.8 c -24.78,8.72 -37.79,35.87 -29.07,60.65 v 0 c 8.71,24.77 35.87,37.79 60.64,29.08 l 292.12,-102.81"
         style="fill:#ffffff;fill-opacity:1;fill-rule:nonzero;stroke:none"
         transform="matrix(0.13333333,0,0,-0.13333333,0,666.66667)" />
      <path
         id="path143"
         d="m 2346.87,3923.63 -31.57,-89.72 -292.12,102.8 c -24.78,8.72 -37.79,35.87 -29.07,60.65 v 0 c 8.71,24.77 35.87,37.79 60.64,29.08 z"
         style="fill:none;stroke:#2f2e2f;stroke-width:20;stroke-linecap:round;stroke-linejoin:round;stroke-miterlimit:10;stroke-dasharray:none;stroke-opacity:1"
         transform="matrix(0.13333333,0,0,-0.13333333,0,666.66667)" />
      <path
         id="path144"
         d="m 2855.18,3859.19 c 0,-189.44 -153.58,-343.02 -343.02,-343.02 -189.45,0 -343.02,153.58 -343.02,343.02 0,189.44 153.57,343.02 343.02,343.02 189.44,0 343.02,-153.58 343.02,-343.02"
         style="fill:#ffffff;fill-opacity:1;fill-rule:nonzero;stroke:none"
         transform="matrix(0.13333333,0,0,-0.13333333,0,666.66667)" />
      <path
         id="path145"
         d="m 2855.18,3859.19 c 0,-189.44 -153.58,-343.02 -343.02,-343.02 -189.45,0 -343.02,153.58 -343.02,343.02 0,189.44 153.57,343.02 343.02,343.02 189.44,0 343.02,-153.58 343.02,-343.02 z"
         style="fill:none;stroke:#2f2e2f;stroke-width:20;stroke-linecap:round;stroke-linejoin:round;stroke-miterlimit:10;stroke-dasharray:none;stroke-opacity:1"
         transform="matrix(0.13333333,0,0,-0.13333333,0,666.66667)" />
      <path
         id="path146"
         d="m 2389.4,3852.62 c -4.08,-15.43 -19.89,-24.63 -35.31,-20.55 -15.43,4.08 -24.63,19.89 -20.55,35.31 4.08,15.43 19.89,24.63 35.31,20.55 15.43,-4.08 24.63,-19.89 20.55,-35.31"
         style="fill:#2f2e2f;fill-opacity:1;fill-rule:nonzero;stroke:none"
         transform="matrix(0.13333333,0,0,-0.13333333,0,666.66667)" />
      <path
         id="path147"
         d="m 2401.46,3796.89 c 28.35,-30.9 69.44,-49.76 111.36,-51.08 41.93,-1.33 84.12,14.89 114.37,43.95"
         style="fill:none;stroke:#2f2e2f;stroke-width:20;stroke-linecap:round;stroke-linejoin:round;stroke-miterlimit:10;stroke-dasharray:none;stroke-opacity:1"
         transform="matrix(0.13333333,0,0,-0.13333333,0,666.66667)" />
      <path
         id="path148"
         d="m 2574.55,3852.39 c 12.58,18.65 33.92,31.11 56.34,32.89 22.42,1.8 45.47,-7.12 60.85,-23.54"
         style="fill:none;stroke:#2f2e2f;stroke-width:20;stroke-linecap:round;stroke-linejoin:round;stroke-miterlimit:10;stroke-dasharray:none;stroke-opacity:1"
         transform="matrix(0.13333333,0,0,-0.13333333,0,666.66667)" />
      <path
         id="path149"
         d="m 1724.09,1871.4 c -47.73,32.65 -77.22,90.36 -75.74,148.16 1.49,57.81 33.91,113.93 83.25,144.09 49.35,30.16 114.07,33.42 166.2,8.38 -19.59,65.02 -14.21,134.44 31.73,184.44 45.95,50.01 119.02,73.4 185.47,59.38 66.44,-14.02 123.83,-64.96 145.64,-129.27 35.56,55.84 94.87,93.15 160.9,88.46 66.03,-4.69 127.94,-47.8 155.24,-108.11 30.52,55.94 73.73,99.67 132.87,123.4 59.13,23.73 129.68,21.49 183.87,-12.03 54.19,-33.51 88.38,-99.64 77.95,-162.51 55.96,48.81 135.62,69.5 204.2,41.07 68.59,-28.44 118.32,-97.72 123.32,-171.8 43.47,-3.54 77.81,-23.22 102.92,-58.87 25.12,-35.64 33.46,-82.61 22.16,-124.73 L 1724.09,1871.4"
         style="fill:#ffffff;fill-opacity:1;fill-rule:nonzero;stroke:#2f2e2f;stroke-width:20;stroke-linecap:round;stroke-linejoin:round;stroke-miterlimit:10;stroke-dasharray:none;stroke-opacity:1"
         transform="matrix(0.13333333,0,0,-0.13333333,0,666.66667)" />
      <path
         id="path150"
         d="m 2119.87,230.391 h -89.63 c -50.9,0 -92.55,41.648 -92.55,92.55 v 81.207 c 0,50.911 41.65,92.563 92.55,92.563 h 89.63 c 50.9,0 92.55,-41.652 92.55,-92.563 v -81.207 c 0,-50.902 -41.65,-92.55 -92.55,-92.55"
         style="fill:#ffffff;fill-opacity:1;fill-rule:nonzero;stroke:none"
         transform="matrix(0.13333333,0,0,-0.13333333,0,666.66667)" />
      <path
         id="path151"
         d="m 2119.87,230.391 h -89.63 c -50.9,0 -92.55,41.648 -92.55,92.55 v 81.207 c 0,50.911 41.65,92.563 92.55,92.563 h 89.63 c 50.9,0 92.55,-41.652 92.55,-92.563 v -81.207 c 0,-50.902 -41.65,-92.55 -92.55,-92.55 z"
         style="fill:none;stroke:#2f2e2f;stroke-width:20;stroke-linecap:round;stroke-linejoin:round;stroke-miterlimit:10;stroke-dasharray:none;stroke-opacity:1"
         transform="matrix(0.13333333,0,0,-0.13333333,0,666.66667)" />
      <path
         id="path152"
         d="m 3021.08,230.391 h -89.63 c -50.9,0 -92.54,41.648 -92.54,92.55 v 81.207 c 0,50.911 41.64,92.563 92.54,92.563 h 89.63 c 50.91,0 92.55,-41.652 92.55,-92.563 v -81.207 c 0,-50.902 -41.64,-92.55 -92.55,-92.55"
         style="fill:#ffffff;fill-opacity:1;fill-rule:nonzero;stroke:none"
         transform="matrix(0.13333333,0,0,-0.13333333,0,666.66667)" />
      <path
         id="path153"
         d="m 3021.08,230.391 h -89.63 c -50.9,0 -92.54,41.648 -92.54,92.55 v 81.207 c 0,50.911 41.64,92.563 92.54,92.563 h 89.63 c 50.91,0 92.55,-41.652 92.55,-92.563 v -81.207 c 0,-50.902 -41.64,-92.55 -92.55,-92.55 z"
         style="fill:none;stroke:#2f2e2f;stroke-width:20;stroke-linecap:round;stroke-linejoin:round;stroke-miterlimit:10;stroke-dasharray:none;stroke-opacity:1"
         transform="matrix(0.13333333,0,0,-0.13333333,0,666.66667)" />
      <path
         id="path154"
         d="m 3106.9,375.211 c -434.92,-58.852 -711.37,-58.75 -1146.79,0.281 -90.76,12.309 -161.22,78.11 -171.76,160.567 L 1650.38,1615.89 h 1750.57 l -122,-1077.742 C 3269.5,454.711 3198.64,387.629 3106.9,375.211"
         style="fill:#ffffff;fill-opacity:1;fill-rule:nonzero;stroke:#2f2e2f;stroke-width:20;stroke-linecap:round;stroke-linejoin:round;stroke-miterlimit:10;stroke-dasharray:none;stroke-opacity:1"
         transform="matrix(0.13333333,0,0,-0.13333333,0,666.66667)" />
      <path
         id="path155"
         d="m 2095.3,1097.34 h -378.6 l -11.6,90.4 169,292.71 221.2,-383.11"
         style="fill:#ffffff;fill-opacity:1;fill-rule:nonzero;stroke:none"
         transform="matrix(0.13333333,0,0,-0.13333333,0,666.66667)" />
      <path
         id="path156"
         d="m 2095.3,1097.34 h -378.6 l -11.6,90.4 169,292.71 z"
         style="fill:none;stroke:#2f2e2f;stroke-width:10;stroke-linecap:round;stroke-linejoin:round;stroke-miterlimit:10;stroke-dasharray:none;stroke-opacity:1"
         transform="matrix(0.13333333,0,0,-0.13333333,0,666.66667)" />
      <path
         id="path157"
         d="M 2316.51,1480.47 2095.32,1097.35 H 2537.7 Z"
         style="fill:#ffffff;fill-opacity:1;fill-rule:nonzero;stroke:#2f2e2f;stroke-width:10;stroke-linecap:round;stroke-linejoin:round;stroke-miterlimit:10;stroke-dasharray:none;stroke-opacity:1"
         transform="matrix(0.13333333,0,0,-0.13333333,0,666.66667)" />
      <path
         id="path158"
         d="M 2758.88,1480.47 2537.7,1097.35 h 442.37 z"
         style="fill:#ffffff;fill-opacity:1;fill-rule:nonzero;stroke:#2f2e2f;stroke-width:10;stroke-linecap:round;stroke-linejoin:round;stroke-miterlimit:10;stroke-dasharray:none;stroke-opacity:1"
         transform="matrix(0.13333333,0,0,-0.13333333,0,666.66667)" />
      <path
         id="path159"
         d="m 3355.4,1213.54 v -0.09 l -13.2,-116.11 h -362.1 l 221.2,383.11 154.1,-266.91"
         style="fill:#ffffff;fill-opacity:1;fill-rule:nonzero;stroke:none"
         transform="matrix(0.13333333,0,0,-0.13333333,0,666.66667)" />
      <path
         id="path160"
         d="m 3355.4,1213.54 v -0.09 l -13.2,-116.11 h -362.1 l 221.2,383.11 z"
         style="fill:none;stroke:#2f2e2f;stroke-width:10;stroke-linecap:round;stroke-linejoin:round;stroke-miterlimit:10;stroke-dasharray:none;stroke-opacity:1"
         transform="matrix(0.13333333,0,0,-0.13333333,0,666.66667)" />
      <path
         id="path161"
         d="M 2083.3,714.25 H 1765.6 L 1743,891.148 1862.1,1097.34 2083.3,714.25"
         style="fill:#ffffff;fill-opacity:1;fill-rule:nonzero;stroke:none"
         transform="matrix(0.13333333,0,0,-0.13333333,0,666.66667)" />
      <path
         id="path162"
         d="M 2083.3,714.25 H 1765.6 L 1743,891.148 1862.1,1097.34 Z"
         style="fill:none;stroke:#2f2e2f;stroke-width:10;stroke-linecap:round;stroke-linejoin:round;stroke-miterlimit:10;stroke-dasharray:none;stroke-opacity:1"
         transform="matrix(0.13333333,0,0,-0.13333333,0,666.66667)" />
      <path
         id="path163"
         d="m 2304.47,1097.35 -221.18,-383.1 h 442.37 z"
         style="fill:#ffffff;fill-opacity:1;fill-rule:nonzero;stroke:#2f2e2f;stroke-width:10;stroke-linecap:round;stroke-linejoin:round;stroke-miterlimit:10;stroke-dasharray:none;stroke-opacity:1"
         transform="matrix(0.13333333,0,0,-0.13333333,0,666.66667)" />
      <path
         id="path164"
         d="m 2746.85,1097.35 -221.19,-383.1 h 442.38 z"
         style="fill:#ffffff;fill-opacity:1;fill-rule:nonzero;stroke:#2f2e2f;stroke-width:10;stroke-linecap:round;stroke-linejoin:round;stroke-miterlimit:10;stroke-dasharray:none;stroke-opacity:1"
         transform="matrix(0.13333333,0,0,-0.13333333,0,666.66667)" />
      <path
         id="path165"
         d="m 3317.1,875.852 v -0.102 l -18.3,-161.5 H 2968 l 221.2,383.09 127.9,-221.488"
         style="fill:#ffffff;fill-opacity:1;fill-rule:nonzero;stroke:none"
         transform="matrix(0.13333333,0,0,-0.13333333,0,666.66667)" />
      <path
         id="path166"
         d="m 3317.1,875.852 v -0.102 l -18.3,-161.5 H 2968 l 221.2,383.09 z"
         style="fill:none;stroke:#2f2e2f;stroke-width:10;stroke-linecap:round;stroke-linejoin:round;stroke-miterlimit:10;stroke-dasharray:none;stroke-opacity:1"
         transform="matrix(0.13333333,0,0,-0.13333333,0,666.66667)" />
      <path
         id="path167"
         d="m 2052.6,363.539 c -30.1,3.609 -60.9,7.609 -92.5,11.91 -90.8,12.403 -161.2,78.199 -171.7,160.59 l -7.5,58.402 69.2,119.809 202.5,-350.711"
         style="fill:#ffffff;fill-opacity:1;fill-rule:nonzero;stroke:none"
         transform="matrix(0.13333333,0,0,-0.13333333,0,666.66667)" />
      <path
         id="path168"
         d="m 2052.6,363.539 c -30.1,3.609 -60.9,7.609 -92.5,11.91 -90.8,12.403 -161.2,78.199 -171.7,160.59 l -7.5,58.402 69.2,119.809 z"
         style="fill:none;stroke:#2f2e2f;stroke-width:10;stroke-linecap:round;stroke-linejoin:round;stroke-miterlimit:10;stroke-dasharray:none;stroke-opacity:1"
         transform="matrix(0.13333333,0,0,-0.13333333,0,666.66667)" />
      <path
         id="path169"
         d="m 2513.51,331.25 c -135.31,0.801 -271.41,10.199 -425.91,28.191 l 204.8,354.809 221.11,-383"
         style="fill:#ffffff;fill-opacity:1;fill-rule:nonzero;stroke:none"
         transform="matrix(0.13333333,0,0,-0.13333333,0,666.66667)" />
      <path
         id="path170"
         d="m 2513.51,331.25 c -135.31,0.801 -271.41,10.199 -425.91,28.191 l 204.8,354.809 z"
         style="fill:none;stroke:#2f2e2f;stroke-width:10;stroke-linecap:round;stroke-linejoin:round;stroke-miterlimit:10;stroke-dasharray:none;stroke-opacity:1"
         transform="matrix(0.13333333,0,0,-0.13333333,0,666.66667)" />
      <path
         id="path171"
         d="m 2942.2,355.051 c -146.4,-15.903 -277.1,-23.903 -407.8,-23.903 h -20.8 l 0.1,0.102 221.1,383 207.4,-359.199"
         style="fill:#ffffff;fill-opacity:1;fill-rule:nonzero;stroke:none"
         transform="matrix(0.13333333,0,0,-0.13333333,0,666.66667)" />
      <path
         id="path172"
         d="m 2942.2,355.051 c -146.4,-15.903 -277.1,-23.903 -407.8,-23.903 h -20.8 l 0.1,0.102 221.1,383 z"
         style="fill:none;stroke:#2f2e2f;stroke-width:10;stroke-linecap:round;stroke-linejoin:round;stroke-miterlimit:10;stroke-dasharray:none;stroke-opacity:1"
         transform="matrix(0.13333333,0,0,-0.13333333,0,666.66667)" />
      <path
         id="path173"
         d="M 3278.91,538.141 C 3269.5,454.75 3198.6,387.652 3106.9,375.238 3060.1,368.949 3015.2,363.25 2971.7,358.25 l 205.5,356 101.71,-176.109"
         style="fill:#ffffff;fill-opacity:1;fill-rule:nonzero;stroke:none"
         transform="matrix(0.13333333,0,0,-0.13333333,0,666.66667)" />
      <path
         id="path174"
         d="M 3278.91,538.141 C 3269.5,454.75 3198.6,387.652 3106.9,375.238 3060.1,368.949 3015.2,363.25 2971.7,358.25 l 205.5,356 z"
         style="fill:none;stroke:#2f2e2f;stroke-width:10;stroke-linecap:round;stroke-linejoin:round;stroke-miterlimit:10;stroke-dasharray:none;stroke-opacity:1"
         transform="matrix(0.13333333,0,0,-0.13333333,0,666.66667)" />
      <path
         id="path175"
         d="M 3383.73,1501.83 H 1673.78 c -52.18,0 -99.81,29.85 -122.54,76.82 -60.97,125.97 -52.06,262.26 46.6,411.81 h 1873.81 c 72.11,-131.83 85.86,-263.66 41.24,-395.49 -18.79,-55.51 -70.57,-93.14 -129.16,-93.14"
         style="fill:#ffffff;fill-opacity:1;fill-rule:nonzero;stroke:none"
         transform="matrix(0.13333333,0,0,-0.13333333,0,666.66667)" />
      <path
         id="path176"
         d="M 3383.73,1501.83 H 1673.78 c -52.18,0 -99.81,29.85 -122.54,76.82 -60.97,125.97 -52.06,262.26 46.6,411.81 h 1873.81 c 72.11,-131.83 85.86,-263.66 41.24,-395.49 -18.79,-55.51 -70.57,-93.14 -129.16,-93.14 z"
         style="fill:none;stroke:#2f2e2f;stroke-width:20;stroke-linecap:round;stroke-linejoin:round;stroke-miterlimit:10;stroke-dasharray:none;stroke-opacity:1"
         transform="matrix(0.13333333,0,0,-0.13333333,0,666.66667)" />
    </g>
  </g>
</svg>
